<?xml version="1.0" encoding="utf-8"?>
<!-- Generator: Adobe Illustrator 19.1.0, SVG Export Plug-In . SVG Version: 6.00 Build 0)  -->
<svg version="1.1" id="Layer_1" xmlns="http://www.w3.org/2000/svg" xmlns:xlink="http://www.w3.org/1999/xlink" x="0px" y="0px"
	 viewBox="0 0 82.6 19.6" enable-background="new 0 0 82.6 19.6" xml:space="preserve">
<path fill="#F78406" d="M25.7,0c5.7,0.3,12.1,2.8,21.7,6.6c9.7,3.8,18.5,5.1,25.5,6c3.8,0.5,7.1,1,9.8,1.8
	c-3.8,1.4-9.3,2.8-14.4,3.7l-0.1,0l-0.1,0c-0.1,0-9.4,1.9-17.9,1.5c-5.2-0.3-7.9-1.2-9.3-2c-4.2-2.4-8.8-3.7-13.8-4
	c-4.9-0.2-9.9,0.5-15.2,1.3c-2.7,0.4-5.6,0.8-8.6,1.2c-1.1,0.1-2.1,0.2-3.2,0.2C4.4,13.3,5,10,4.6,7c0.7-0.5,2.1-1.4,4.6-2.6
	C16.2,1.1,21-0.2,25.7,0z"/>
</svg>
