<?xml version="1.0" encoding="utf-8"?>
<!-- Generator: Adobe Illustrator 16.0.0, SVG Export Plug-In . SVG Version: 6.00 Build 0)  -->
<!DOCTYPE svg PUBLIC "-//W3C//DTD SVG 1.1//EN" "http://www.w3.org/Graphics/SVG/1.1/DTD/svg11.dtd">
<svg version="1.1" id="lavaDetail1" xmlns="http://www.w3.org/2000/svg" xmlns:xlink="http://www.w3.org/1999/xlink" x="0px"
	 y="0px" width="612.753px" height="186.27px" viewBox="0 0 612.753 186.27" enable-background="new 0 0 612.753 186.27"
	 xml:space="preserve">
<path id="bottom" fill="#F4750C" d="M478.38,176.392c0,0,170.896-28.632,127.949-70.685
	C563.38,63.653,475.697,84.232,365.643,40.391C255.591-3.45,216.223-17.766,118.696,28.76c-97.527,46.525-3.579,51-79.632,83.21
	c-84.105,35.79-16.105,63.526,65.316,54.579s135.105-28.631,192.368,3.579C354.013,202.339,478.38,176.392,478.38,176.392z"/>
<path id="middle" fill="#F78406" d="M227.856,39.496c32.21,1.79,68.895,16.104,124.369,37.579
	c55.476,21.475,105.579,28.633,145.842,34.896c21.476,2.686,41.158,5.369,55.476,9.843c-21.476,8.054-52.789,16.105-82.315,20.579
	h-0.896h-0.896c-0.896,0-53.685,10.736-102.896,8.053c-29.525-1.789-44.735-7.156-52.789-11.632
	c-24.158-13.421-50.104-21.474-78.736-22.368c-27.737-1.789-56.368,2.686-86.79,7.157c-15.21,2.687-31.315,4.476-49.21,6.265
	c-6.263,0.896-12.526,0.896-17.895,0.896c25.053-17.896,28.631-36.685,26.842-53.686c4.474-2.685,11.631-8.053,26.842-15.21
	C173.276,45.76,201.013,38.602,227.856,39.496z"/>
<path id="top" fill="#FFAE43" fill-opacity="0.55" d="M228.751,60.971c24.158,0.896,51.895,13.421,94.842,31.315
	c34.895,14.314,67.104,21.475,94.842,26.843c-8.947,1.79-44.734,8.053-76.947,7.158c-23.263-0.896-33.104-5.368-35.789-8.055
	c-21.474-13.421-44.737-20.578-69.79-21.474c-24.158-0.896-47.421,2.685-73.369,7.158c-6.263,0.895-12.526,1.789-18.79,2.684
	c1.79-5.368,2.685-11.632,2.685-17.896c2.684-1.79,7.158-4.475,12.526-7.157C190.276,65.444,209.961,60.075,228.751,60.971z"/>
</svg>
