<?xml version="1.0" encoding="utf-8"?>
<!-- Generator: Adobe Illustrator 19.1.0, SVG Export Plug-In . SVG Version: 6.00 Build 0)  -->
<svg version="1.1" xmlns="http://www.w3.org/2000/svg" xmlns:xlink="http://www.w3.org/1999/xlink" x="0px" y="0px"
	 viewBox="0 0 68.4 20.8" enable-background="new 0 0 68.4 20.8" xml:space="preserve">
<g id="Layer_1">
</g>
<g id="L3_x5F_s8">
</g>
<g id="L3_x5F_s7">
</g>
<g id="L3_x5F_s6">
</g>
<g id="L3_x5F_s5">
</g>
<g id="L3_x5F_s4">
</g>
<g id="L3_x5F_s3">
</g>
<g id="L3_x5F_s2">
</g>
<g id="L3_x5F_s1">
</g>
<g id="L2_x5F_s8_1_">
</g>
<g id="L2_x5F_s7">
</g>
<g id="L2_x5F_s6">
</g>
<g id="L2_x5F_s5">
</g>
<g id="L2_x5F_s4">
</g>
<g id="L2_x5F_s3">
</g>
<g id="L2_x5F_s2">
</g>
<g id="L2_x5F_s1">
</g>
<g id="L1_x5F_s8">
</g>
<g id="L1_x5F_s7">
</g>
<g id="L1_x5F_s6">
</g>
<g id="L1_x5F_s5">
</g>
<g id="L1_x5F_s4">
</g>
<g id="L1_x5F_s3">
</g>
<g id="L1_x5F_s2">
</g>
<g id="L1_x5F_s1">
	<g>
		<path id="L1_x5F_l3_x5F_s1" fill="#F4750C" d="M53.4,19.7c0,0,19.1-3.2,14.3-7.9S53.1,9.4,40.8,4.5S24.1-2,13.2,3.2
			s-0.4,5.7-8.9,9.3c-9.4,4-1.8,7.1,7.3,6.1s15.1-3.2,21.5,0.4S53.4,19.7,53.4,19.7z"/>
		<path id="L1_x5F_l2_x5F_s1" fill="#F78406" d="M25.4,4.4c3.6,0.2,7.7,1.8,13.9,4.2c6.2,2.4,11.8,3.2,16.3,3.9
			c2.4,0.3,4.6,0.6,6.2,1.1c-2.4,0.9-5.9,1.8-9.2,2.3l-0.1,0l-0.1,0c-0.1,0-6,1.2-11.5,0.9c-3.3-0.2-5-0.8-5.9-1.3
			c-2.7-1.5-5.6-2.4-8.8-2.5c-3.1-0.2-6.3,0.3-9.7,0.8c-1.7,0.3-3.5,0.5-5.5,0.7c-0.7,0.1-1.4,0.1-2,0.1c2.8-2,3.2-4.1,3-6
			c0.5-0.3,1.3-0.9,3-1.7C19.3,5.1,22.4,4.3,25.4,4.4z"/>
		<path id="L1_x5F_l1_x5F_s1" fill="#FFAE43" fill-opacity="0.55" d="M25.5,6.8c2.7,0.1,5.8,1.5,10.6,3.5c3.9,1.6,7.5,2.4,10.6,3
			c-1,0.2-5,0.9-8.6,0.8c-2.6-0.1-3.7-0.6-4-0.9c-2.4-1.5-5-2.3-7.8-2.4c-2.7-0.1-5.3,0.3-8.2,0.8c-0.7,0.1-1.4,0.2-2.1,0.3
			c0.2-0.6,0.3-1.3,0.3-2c0.3-0.2,0.8-0.5,1.4-0.8C21.2,7.3,23.4,6.7,25.5,6.8z"/>
		<rect id="L1_x5F_s1_x5F_c" x="21.1" y="3.8" fill="none" width="9.3" height="9.3"/>
	</g>
</g>
</svg>
