<?xml version="1.0" encoding="utf-8"?>
<!-- Generator: Adobe Illustrator 16.0.0, SVG Export Plug-In . SVG Version: 6.00 Build 0)  -->
<!DOCTYPE svg PUBLIC "-//W3C//DTD SVG 1.1//EN" "http://www.w3.org/Graphics/SVG/1.1/DTD/svg11.dtd">
<svg version="1.1" id="lavaDetail1" xmlns="http://www.w3.org/2000/svg" xmlns:xlink="http://www.w3.org/1999/xlink" x="0px"
	 y="0px" width="612.753px" height="186.27px" viewBox="-305.876 699.365 612.753 186.27"
	 enable-background="new -305.876 699.365 612.753 186.27" xml:space="preserve">
<path id="bottom" fill="#F4750C" d="M172.004,875.757c0,0,170.896-28.632,127.948-70.685
	c-42.948-42.054-130.632-21.475-240.686-65.316c-110.052-43.841-149.42-58.157-246.947-11.631c-97.527,46.525-3.579,51-79.632,83.21
	c-84.105,35.79-16.105,63.526,65.316,54.579s135.105-28.631,192.368,3.579C47.636,901.704,172.004,875.757,172.004,875.757z"/>
<path id="middle" fill="#F78406" d="M-78.521,738.861c32.21,1.79,68.895,16.105,124.369,37.579
	c55.475,21.475,105.579,28.633,145.842,34.896c21.475,2.685,41.158,5.369,55.475,9.843c-21.475,8.053-52.789,16.105-82.315,20.579
	h-0.895h-0.896c-0.895,0-53.684,10.736-102.895,8.053c-29.526-1.79-44.736-7.157-52.789-11.632
	c-24.158-13.421-50.105-21.474-78.737-22.368c-27.737-1.79-56.368,2.685-86.79,7.157c-15.21,2.686-31.315,4.475-49.21,6.264
	c-6.263,0.896-12.526,0.896-17.895,0.896c25.053-17.896,28.631-36.685,26.842-53.686c4.474-2.684,11.631-8.052,26.842-15.21
	C-133.101,745.125-105.364,737.967-78.521,738.861z"/>
<path id="top" fill="#FFAE43" fill-opacity="0.55" d="M-77.626,760.336c24.158,0.895,51.895,13.421,94.842,31.315
	c34.895,14.315,67.105,21.475,94.842,26.843c-8.947,1.79-44.735,8.053-76.947,7.158c-23.263-0.896-33.104-5.368-35.789-8.054
	c-21.474-13.421-44.737-20.579-69.79-21.474c-24.158-0.896-47.421,2.685-73.369,7.158c-6.263,0.895-12.526,1.789-18.79,2.684
	c1.79-5.368,2.685-11.632,2.685-17.896c2.684-1.79,7.158-4.474,12.526-7.157C-116.101,764.809-96.416,759.44-77.626,760.336z"/>
</svg>
