<?xml version="1.0" encoding="utf-8"?>
<!-- Generator: Adobe Illustrator 19.1.0, SVG Export Plug-In . SVG Version: 6.00 Build 0)  -->
<svg version="1.1" id="Layer_1" xmlns="http://www.w3.org/2000/svg" xmlns:xlink="http://www.w3.org/1999/xlink" x="0px" y="0px"
	 viewBox="0 0 45.8 37.3" enable-background="new 0 0 45.8 37.3" xml:space="preserve">
<g>
	<path fill="#666666" d="M9.4,0.5c0,0-5.8,2.8-4.4,6.9s5.4,11.2,10.5,10.1S29.8,3.3,25,1.2S9.4,0.5,9.4,0.5z"/>
	<path fill="#666666" d="M9.4,0.5c0,0-5.8,2.8-4.4,6.9s5.4,11.2,10.5,10.1S29.8,3.3,25,1.2S9.4,0.5,9.4,0.5z"/>
	<path opacity="0.8" fill="#6D6D6D" d="M14.5,16.7c-4.1,0-7.4-6.1-8.7-9.6C4.7,4,8.9,1.6,9.7,1.3c0.7-0.1,3.8-0.4,7.1-0.4
		c3.5,0,6.2,0.4,7.9,1.1c0.4,0.2,1,0.6,0.9,2C25.1,8.2,19,15.8,15.4,16.6C15.1,16.6,14.8,16.7,14.5,16.7z"/>
	<path fill="#777777" d="M14.5,15.7c-3.1,0-6.2-4.6-7.7-9C6,4.6,9.1,2.7,10,2.2c0.9-0.1,3.7-0.4,6.8-0.4c3.4,0,6,0.4,7.5,1
		c0.1,0,0.4,0.2,0.3,1c-0.4,3.8-6.1,11-9.3,11.7C14.9,15.6,14.7,15.7,14.5,15.7z"/>
	<path fill="#808080" fill-opacity="0.72" d="M14.5,14.5c-2.1,0-4.9-3.5-6.6-8.2c-0.3-0.8,1-2,2.5-2.9C11.5,3.3,14,3,16.8,3
		c2.8,0,5.1,0.3,6.6,0.7c-0.3,3.3-5.7,10.1-8.4,10.7C14.8,14.5,14.6,14.5,14.5,14.5z"/>
	<path fill="#A8A8A8" fill-opacity="0.2" d="M14.5,12.7c-0.8,0-3.1-2.3-4.7-6.5c0.2-0.3,0.6-0.6,1.2-1c1.2-0.1,3.4-0.3,5.8-0.3
		c1.9,0,3.3,0.1,4.3,0.3C19.7,8.1,16.1,12.3,14.5,12.7L14.5,12.7z"/>
	<path fill="#666666" d="M15.5,21.5c0,0-1.7,5,1.3,6.3c3,1.3,9.1,2.9,11.5-0.8S28.9,11.3,25,13S15.5,21.5,15.5,21.5z"/>
	<path fill="#666666" d="M15.5,21.5c0,0-1.7,5,1.3,6.3c3,1.3,9.1,2.9,11.5-0.8S28.9,11.3,25,13S15.5,21.5,15.5,21.5z"/>
	<path opacity="0.8" fill="#6D6D6D" d="M23.2,28.5c-2.7,0-5.4-1.1-6.1-1.4c-2-0.9-1.1-4.5-0.9-5.2c0.8-0.9,5.7-6.7,9.1-8.2
		c0.1-0.1,0.3-0.1,0.4-0.1c0.6,0,1.1,0.8,1.4,1.3c1.6,3.1,1.9,9.5,0.4,11.7C26.7,27.9,25.3,28.5,23.2,28.5
		C23.2,28.5,23.2,28.5,23.2,28.5z"/>
	<path fill="#777777" d="M23.2,27.5c-2.5,0-5-1-5.7-1.3c-1.1-0.5-0.6-2.9-0.4-3.8c1.7-2,5.8-6.5,8.6-7.7c0.1,0,0.7,0.7,1.2,2.4
		c1,3.4,0.7,7.7-0.2,9C26.5,26.4,25.8,27.5,23.2,27.5C23.2,27.5,23.2,27.5,23.2,27.5z"/>
	<path fill="#808080" fill-opacity="0.72" d="M23.2,26.3c-2.2,0-4.4-0.9-5.2-1.2c-0.1-0.3-0.1-1.1,0.1-2.2c1.6-1.9,4.8-5.3,7.1-6.7
		c0.1,0.3,0.3,0.7,0.4,1.2c0.9,3.2,0.6,7.1,0,8C25.6,25.6,25.1,26.3,23.2,26.3z"/>
	<path fill="#A8A8A8" fill-opacity="0.2" d="M23.2,24.5c-1.2,0-2.5-0.3-3.4-0.6c0,0,0-0.1,0-0.1c1.3-1.6,3-3.2,4.4-4.5
		c0.4,2.2,0.2,4.4-0.1,5.1C24.1,24.4,23.8,24.5,23.2,24.5z"/>
	<path fill="#666666" d="M27.9,6c0,0-2,0.9-1,3.3c0.9,2.4,0.9,3.2,2.5,4.6s3.6,2,5.1,0.4s1.9-2.4,2.2-5.1c0.3-2.7,1.2-4.4-2.8-5
		s-3.4-0.6-5.1,0.9C27.1,6.7,27.9,6,27.9,6z"/>
	<path fill="#666666" d="M27.9,6c0,0-2,0.9-1,3.3c0.9,2.4,0.9,3.2,2.5,4.6s3.6,2,5.1,0.4s1.9-2.4,2.2-5.1c0.3-2.7,1.2-4.4-2.8-5
		s-3.4-0.6-5.1,0.9C27.1,6.7,27.9,6,27.9,6z"/>
	<path opacity="0.8" fill="#6D6D6D" d="M32.4,14.4c-0.8,0-1.7-0.4-2.5-1.1c-1.1-1-1.3-1.5-1.8-2.9C28,9.9,27.9,9.5,27.7,9
		c-0.5-1.3,0-1.9,0.5-2.2l0.1-0.1l0.1-0.1c0.1-0.1,0.4-0.4,1-0.9c0.2-0.2,0.4-0.3,0.5-0.5c0.6-0.6,0.7-0.6,1.1-0.6
		c0.4,0,1.1,0.1,2.3,0.3L33.8,5c2.6,0.4,2.5,0.9,2.2,3c-0.1,0.4-0.1,0.8-0.1,1.2c-0.2,2.5-0.6,3.2-1.9,4.6
		C33.5,14.2,33,14.4,32.4,14.4z"/>
	<path fill="#808080" fill-opacity="0.72" d="M32.4,13.4c-0.5,0-1.2-0.3-1.8-0.9c-0.9-0.8-1-1.1-1.5-2.5c-0.1-0.4-0.3-0.8-0.5-1.4
		c-0.3-0.7,0-0.9,0.1-1l0.2-0.1l0.2-0.2C29.2,7.2,29.5,7,30,6.5c0.2-0.2,0.4-0.4,0.5-0.5c0.1-0.1,0.3-0.3,0.4-0.3
		c0.4,0,1.2,0.1,2.1,0.3L33.6,6c1.2,0.2,1.5,0.4,1.5,0.4c0,0.1-0.1,0.9-0.1,1.4c-0.1,0.4-0.1,0.8-0.2,1.2c-0.2,2.3-0.5,2.8-1.7,4
		C32.9,13.3,32.6,13.4,32.4,13.4z"/>
	<path fill="#777777" d="M32.4,13.4c-0.5,0-1.2-0.3-1.8-0.9c-0.9-0.8-1-1.1-1.5-2.5c-0.1-0.4-0.3-0.8-0.5-1.4c-0.3-0.7,0-0.9,0.1-1
		l0.2-0.1l0.2-0.2C29.2,7.2,29.5,7,30,6.5c0.2-0.2,0.4-0.4,0.5-0.5c0.1-0.1,0.3-0.3,0.4-0.3c0.4,0,1.2,0.1,2.1,0.3L33.6,6
		c1.2,0.2,1.5,0.4,1.5,0.4c0,0.1-0.1,0.9-0.1,1.4c-0.1,0.4-0.1,0.8-0.2,1.2c-0.2,2.3-0.5,2.8-1.7,4C32.9,13.3,32.6,13.4,32.4,13.4z"
		/>
	<path fill="#A8A8A8" fill-opacity="0.2" d="M32.3,12.2c-0.2,0-0.5-0.2-0.9-0.6c-0.7-0.6-0.7-0.7-1.2-2c-0.1-0.4-0.3-0.8-0.5-1.2
		l0.2-0.2c0.1-0.1,0.4-0.3,0.9-0.8C31,7.2,31.2,7,31.4,6.9c0.4,0,0.9,0.1,1.5,0.2l0.6,0.1c0.2,0,0.3,0.1,0.4,0.1
		c0,0.2,0,0.3-0.1,0.4c-0.1,0.4-0.1,0.8-0.2,1.3C33.4,11,33.2,11.2,32.3,12.2z"/>
	<path fill="#666666" d="M6.8,29.1c0,0,4.2-2.5,6.6-1.2c2.3,1.3,6.4,2.2,6.8,3.4c0.4,1.2,5.5,4.8,2,5.8s-7.3-1.3-8.9-2
		S6.7,33.4,6.4,32S6.8,29.1,6.8,29.1z"/>
	<path fill="#666666" d="M6.8,29.1c0,0,4.2-2.5,6.6-1.2c2.3,1.3,6.4,2.2,6.8,3.4c0.4,1.2,5.5,4.8,2,5.8s-7.3-1.3-8.9-2
		S6.7,33.4,6.4,32S6.8,29.1,6.8,29.1z"/>
	<path opacity="0.8" fill="#6D6D6D" d="M20.5,36.5c-2.1,0-4.2-0.9-5.7-1.6c-0.5-0.2-0.9-0.4-1.2-0.5c-0.4-0.1-0.9-0.3-1.5-0.5
		c-1.2-0.4-4.6-1.4-4.8-2.1c-0.2-0.8,0.1-1.7,0.2-2.1c0.7-0.4,2.6-1.3,4.3-1.3c0.5,0,0.9,0.1,1.2,0.3c0.9,0.5,2.1,1,3.2,1.4
		c1.1,0.4,3,1.2,3.2,1.6c0.2,0.5,0.6,0.9,1.3,1.7c0.6,0.6,2,2.1,1.8,2.6c0,0-0.1,0.2-0.6,0.3C21.5,36.4,21,36.5,20.5,36.5z"/>
	<path fill="#808080" fill-opacity="0.72" d="M20.5,35.5c-1.9,0-3.8-0.9-5.3-1.5c-0.5-0.2-0.9-0.4-1.3-0.5c-0.4-0.1-0.9-0.3-1.6-0.5
		c-1.1-0.3-3.4-1-4.2-1.6c0-0.3,0-0.7,0.1-1c0.9-0.4,2.3-1,3.4-1c0.3,0,0.6,0,0.7,0.1c1,0.6,2.2,1,3.3,1.5c0.9,0.4,2.3,0.9,2.8,1.2
		c0.3,0.6,0.8,1.1,1.4,1.8c0.3,0.3,0.9,0.9,1.2,1.4C21,35.5,20.7,35.5,20.5,35.5z"/>
	<path fill="#777777" d="M20.5,35.5c-1.9,0-3.8-0.9-5.3-1.5c-0.5-0.2-0.9-0.4-1.3-0.5c-0.4-0.1-0.9-0.3-1.6-0.5
		c-1.1-0.3-3.4-1-4.2-1.6c0-0.3,0-0.7,0.1-1c0.9-0.4,2.3-1,3.4-1c0.3,0,0.6,0,0.7,0.1c1,0.6,2.2,1,3.3,1.5c0.9,0.4,2.3,0.9,2.8,1.2
		c0.3,0.6,0.8,1.1,1.4,1.8c0.3,0.3,0.9,0.9,1.2,1.4C21,35.5,20.7,35.5,20.5,35.5z"/>
	<path fill="#A8A8A8" fill-opacity="0.2" d="M18.3,33.9c-0.9-0.3-1.9-0.7-2.6-1c-0.5-0.2-1-0.4-1.4-0.6c-0.4-0.1-1-0.3-1.6-0.5
		c-1.1-0.3-2-0.6-2.6-0.9c0.6-0.2,1.2-0.4,1.7-0.4c0.2,0,0.2,0,0.2,0c1,0.6,2.2,1,3.4,1.5c0.5,0.2,1.8,0.7,2.3,1
		C17.9,33.3,18.1,33.6,18.3,33.9z"/>
	<path fill="#666666" d="M6.2,13.8c0,0,2.1,3.6,3.5,4s3.5,0.1,3.5,3.1c0,2.9,1,3.6-1.7,4.1S4.3,29.9,3,26.4s-3.7-5.3-2.8-9.3
		s4.4-3.9,4.4-3.9L6.2,13.8z"/>
	<path fill="#666666" d="M6.2,13.8c0,0,2.1,3.6,3.5,4s3.5,0.1,3.5,3.1c0,2.9,1,3.6-1.7,4.1S4.3,29.9,3,26.4s-3.7-5.3-2.8-9.3
		s4.4-3.9,4.4-3.9L6.2,13.8z"/>
	<path opacity="0.8" fill="#6D6D6D" d="M4.7,26.9c-0.3,0-0.7-0.1-0.9-0.8c-0.4-1.2-1-2.1-1.5-3c-1-1.9-1.9-3.4-1.3-5.8
		C1.6,14.3,3.8,14,4.4,14l1.3,0.5c0.6,1,2.3,3.7,3.8,4.1c0.3,0.1,0.6,0.2,1,0.2c1.2,0.2,1.9,0.4,1.9,2c0,0.8,0.1,1.4,0.1,2
		c0,0.4,0.1,0.9,0,1c0,0-0.2,0.2-1.1,0.3c-1,0.2-2.2,0.8-3.4,1.4C6.8,26.2,5.6,26.9,4.7,26.9z"/>
	<path fill="#777777" d="M4.7,25.8c-0.5-1.2-1-2.3-1.5-3.2c-1-1.8-1.7-3-1.2-5.1c0.4-1.9,1.6-2.4,2.3-2.4L5,15.3
		c1,1.6,2.6,3.8,4.2,4.3c0.3,0.1,0.7,0.2,1.1,0.3c0.3,0.1,0.9,0.2,1,0.3c0,0,0.1,0.2,0.1,0.8c0,0.9,0.1,1.6,0.1,2.1c0,0,0,0.1,0,0.1
		c-0.1,0-0.2,0-0.3,0C10,23.3,8.8,24,7.5,24.7c-0.9,0.5-2.1,1.1-2.7,1.2C4.8,25.8,4.8,25.8,4.7,25.8z"/>
	<path fill="#AAAAAA" fill-opacity="0.2" d="M5.5,24.4c-0.4-0.9-0.8-1.7-1.2-2.4c-1-1.8-1.5-2.7-1.1-4.3c0.2-0.8,0.5-1.3,1-1.5l0,0
		c1.6,2.5,3.1,4,4.6,4.5c0.4,0.1,0.8,0.2,1.2,0.3c0,0,0.1,0,0.1,0c0,0.4,0,0.8,0,1.1C9.1,22.5,8,23.1,7,23.6
		C6.6,23.8,6,24.2,5.5,24.4z"/>
	<path fill="#A8A8A8" fill-opacity="0.2" d="M5.9,23.3c-0.3-0.6-0.6-1.2-0.9-1.7c-1-1.7-1.3-2.4-1-3.7C4,17.8,4,17.6,4,17.5
		c1.5,2.2,3,3.5,4.5,4c0.2,0.1,0.4,0.1,0.6,0.2c-0.9,0.3-1.7,0.8-2.5,1.2C6.4,23,6.1,23.1,5.9,23.3z"/>
	<path fill="#666666" d="M38.5,30.8c0,0-6.4-0.9-7-5.5c-0.7-4.6-1.4-10,1.9-8.3s4.8,5.8,6.6,7c1.8,1.2,3.3,3.8,2,5.5
		S38.5,30.8,38.5,30.8z"/>
	<path fill="#666666" d="M38.5,30.8c0,0-6.4-0.9-7-5.5c-0.7-4.6-1.4-10,1.9-8.3s4.8,5.8,6.6,7c1.8,1.2,3.3,3.8,2,5.5
		S38.5,30.8,38.5,30.8z"/>
	<path opacity="0.8" fill="#6D6D6D" d="M39,30c-0.2,0-0.4,0-0.4,0c-0.1,0-5.8-0.9-6.4-4.8c-0.3-2.3-1-6.7-0.2-7.6
		c0-0.1,0.1-0.1,0.2-0.1c0.1,0,0.3,0,0.7,0.2c1.8,0.9,3,2.7,4.1,4.2c0.8,1.2,1.6,2.2,2.4,2.8c1.1,0.7,1.9,1.9,2.1,2.9
		c0.1,0.5,0,1-0.3,1.3C40.7,29.9,39.6,30,39,30z"/>
	<path fill="#808080" fill-opacity="0.72" d="M39,29c-0.1,0-0.2,0-0.3,0c-0.1,0-5-0.8-5.5-4c-0.2-1.4-0.7-4.8-0.5-6.3
		c1.4,0.9,2.5,2.4,3.5,3.8c0.9,1.2,1.7,2.3,2.7,3c0.8,0.6,1.6,1.5,1.7,2.3c0.1,0.4,0,0.5-0.1,0.6C40.2,28.9,39.5,29,39,29z"/>
	<path fill="#777777" d="M39,29c-0.1,0-0.2,0-0.3,0c-0.1,0-5-0.8-5.5-4c-0.2-1.4-0.7-4.8-0.5-6.3c1.4,0.9,2.5,2.4,3.5,3.8
		c0.9,1.2,1.7,2.3,2.7,3c0.8,0.6,1.6,1.5,1.7,2.3c0.1,0.4,0,0.5-0.1,0.6C40.2,28.9,39.5,29,39,29z"/>
	<path fill="#FFFFFF" fill-opacity="0.2" d="M38.9,27.8c0,0-4.1-0.7-4.5-3c-0.1-0.6-0.3-2-0.4-3.4c0.5,0.6,0.9,1.1,1.3,1.7
		c0.9,1.3,1.8,2.5,3,3.3c0.5,0.4,0.9,0.9,1.1,1.2c-0.1,0-0.2,0-0.4,0L38.9,27.8z"/>
	<path fill="#666666" d="M37.6,13.4c0,0,4-0.4,4.9,1.3s3.1,3.8,2.8,4.8s1.8,5.7-0.9,5.2c-2.7-0.5-4.6-3.7-5.4-4.7
		c-0.8-1-3.5-3.5-3-4.6C36.5,14.3,37.6,13.4,37.6,13.4z"/>
	<path fill="#666666" d="M37.6,13.4c0,0,4-0.4,4.9,1.3s3.1,3.8,2.8,4.8s1.8,5.7-0.9,5.2c-2.7-0.5-4.6-3.7-5.4-4.7
		c-0.8-1-3.5-3.5-3-4.6C36.5,14.3,37.6,13.4,37.6,13.4z"/>
	<path opacity="0.8" fill="#6D6D6D" d="M44.8,24c-0.1,0-0.1,0-0.2,0c-2-0.3-3.6-2.6-4.5-3.8c-0.2-0.2-0.3-0.5-0.5-0.6
		c-0.2-0.2-0.5-0.5-0.8-0.9c-0.5-0.6-2.2-2.4-2.1-2.9c0.3-0.7,0.9-1.3,1.2-1.5c0.2,0,0.4,0,0.7,0c1.6,0,2.8,0.3,3.1,0.9
		c0.4,0.7,0.9,1.5,1.5,2.2c0.5,0.6,1.3,1.7,1.3,2.1c-0.1,0.4,0,1,0.2,2c0.1,0.6,0.5,2.3,0.2,2.6C44.9,24,44.8,24,44.8,24z"/>
	<path fill="#808080" fill-opacity="0.72" d="M43.9,22.7c-1.3-0.7-2.4-2.2-3-3.1c-0.2-0.3-0.3-0.5-0.5-0.6c-0.2-0.2-0.5-0.6-0.8-0.9
		c-0.4-0.5-1.4-1.6-1.7-2.2c0.2-0.2,0.4-0.5,0.5-0.6c0.1,0,0.2,0,0.3,0c1.5,0,2.1,0.3,2.2,0.4c0.4,0.7,1,1.5,1.5,2.3
		c0.4,0.5,0.9,1.2,1.1,1.5c-0.1,0.6,0.1,1.3,0.2,2.2C43.8,21.9,43.9,22.3,43.9,22.7z"/>
	<path fill="#777777" d="M43.9,22.7c-1.3-0.7-2.4-2.2-3-3.1c-0.2-0.3-0.3-0.5-0.5-0.6c-0.2-0.2-0.5-0.6-0.8-0.9
		c-0.4-0.5-1.4-1.6-1.7-2.2c0.2-0.2,0.4-0.5,0.5-0.6c0.1,0,0.2,0,0.3,0c1.5,0,2.1,0.3,2.2,0.4c0.4,0.7,1,1.5,1.5,2.3
		c0.4,0.5,0.9,1.2,1.1,1.5c-0.1,0.6,0.1,1.3,0.2,2.2C43.8,21.9,43.9,22.3,43.9,22.7z"/>
	<path fill="#A8A8A8" fill-opacity="0.2" d="M42.7,20.6c-0.5-0.5-0.9-1.1-1.2-1.5c-0.2-0.3-0.4-0.5-0.5-0.7c-0.2-0.3-0.5-0.6-0.9-1
		C40,17.2,39.4,16.6,39,16c0.7,0,1.1,0.1,1.3,0.2c0.4,0.7,0.9,1.4,1.5,2.1c0.2,0.3,0.7,0.9,0.9,1.2C42.6,19.9,42.7,20.3,42.7,20.6z"
		/>
	<path fill="#808080" fill-opacity="0.2" d="M40.5,17.2c-0.1-0.1-0.4-0.4-0.6-0.7c0.1,0,0.2,0,0.2,0.1C40.2,16.8,40.4,17,40.5,17.2
		C40.5,17.2,40.5,17.2,40.5,17.2z"/>
	<path fill="#666666" d="M28.4,32.1c0,0-1.2,0.9-1.3,1.5c-0.1,0.6,0.2,1.4-0.9,1.4s-1.3,0.5-1.7-0.6s-2.4-2.7-1.1-3.3
		c1.2-0.6,1.8-1.6,3.4-1.3c1.6,0.2,1.8,1.6,1.8,1.6L28.4,32.1z"/>
	<path fill="#666666" d="M28.4,32.1c0,0-1.2,0.9-1.3,1.5c-0.1,0.6,0.2,1.4-0.9,1.4s-1.3,0.5-1.7-0.6s-2.4-2.7-1.1-3.3
		c1.2-0.6,1.8-1.6,3.4-1.3c1.6,0.2,1.8,1.6,1.8,1.6L28.4,32.1z"/>
	<path opacity="0.8" fill="#6D6D6D" d="M25.3,34.2c-0.2-0.5-0.5-0.9-0.8-1.4c-0.2-0.3-0.5-0.7-0.6-0.9c0.4-0.2,0.7-0.4,1-0.6
		c0.6-0.4,0.9-0.6,1.4-0.6c0.1,0,0.2,0,0.4,0c0.8,0.1,1,0.6,1.1,0.8l0,0.2c-0.6,0.4-1.3,1.1-1.4,1.8c0,0.1,0,0.3,0,0.5
		c0,0.1,0,0.2,0,0.3c0,0-0.1,0-0.1,0C25.8,34.2,25.5,34.2,25.3,34.2C25.3,34.2,25.3,34.2,25.3,34.2z"/>
	<path fill="#808080" fill-opacity="0.72" d="M25.3,32.1c0.1,0,0.1-0.1,0.2-0.1c0.4-0.3,0.6-0.4,0.7-0.4c-0.3,0.3-0.5,0.6-0.7,0.9
		C25.4,32.4,25.3,32.1,25.3,32.1z"/>
	<path fill="#808080" fill-opacity="0.2" d="M25.3,32.1c0.1,0,0.1-0.1,0.2-0.1c0.4-0.3,0.6-0.4,0.7-0.4c-0.3,0.3-0.5,0.6-0.7,0.9
		C25.4,32.4,25.3,32.1,25.3,32.1z"/>
	<path fill="#666666" d="M28,34.8c0,0,1.9-1.5,1.9-2.2s-0.5-1.6,1.3-2.1s2.1-1.1,2.8,0.1c0.7,1.2,4.3,2.5,2.4,3.6
		c-2,1.2-2.7,2.6-5.3,2.8s-3.2-1.3-3.2-1.3L28,34.8z"/>
	<path fill="#666666" d="M28,34.8c0,0,1.9-1.5,1.9-2.2s-0.5-1.6,1.3-2.1s2.1-1.1,2.8,0.1c0.7,1.2,4.3,2.5,2.4,3.6
		c-2,1.2-2.7,2.6-5.3,2.8s-3.2-1.3-3.2-1.3L28,34.8z"/>
	<path opacity="0.8" fill="#6D6D6D" d="M30.5,36.2c-1.1,0-1.6-0.4-1.8-0.7l0-0.3c0.9-0.8,1.9-1.8,2-2.6c0-0.2,0-0.4,0-0.6
		c-0.1-0.5-0.1-0.5,0.7-0.8c0.5-0.1,0.9-0.3,1.2-0.4c0.2-0.1,0.4-0.2,0.5-0.2c0,0,0.1,0.1,0.2,0.3c0.3,0.5,0.9,1,1.6,1.4
		c0.4,0.3,1,0.7,1.2,1c0,0-0.1,0.1-0.1,0.1c-0.7,0.4-1.2,0.8-1.7,1.2c-1,0.8-1.7,1.4-3.3,1.5C30.8,36.2,30.6,36.2,30.5,36.2z"/>
	<path fill="#808080" fill-opacity="0.72" d="M30.3,35.2c1.4-1.4,1.4-2.2,1.5-2.6c0-0.1,0-0.3,0-0.4c0.4-0.1,0.8-0.2,1-0.3
		c0.4,0.5,1,0.9,1.6,1.3c0,0,0.1,0,0.1,0.1c-0.3,0.2-0.5,0.4-0.7,0.6c-0.9,0.7-1.5,1.2-2.8,1.3c-0.1,0-0.3,0-0.4,0
		C30.4,35.2,30.3,35.2,30.3,35.2z"/>
	<path fill="#808080" fill-opacity="0.2" d="M30.3,35.2c1.4-1.4,1.4-2.2,1.5-2.6c0-0.1,0-0.3,0-0.4c0.4-0.1,0.8-0.2,1-0.3
		c0.4,0.5,1,0.9,1.6,1.3c0,0,0.1,0,0.1,0.1c-0.3,0.2-0.5,0.4-0.7,0.6c-0.9,0.7-1.5,1.2-2.8,1.3c-0.1,0-0.3,0-0.4,0
		C30.4,35.2,30.3,35.2,30.3,35.2z"/>
	<path fill="#777777" d="M30.3,35.2c1.4-1.4,1.4-2.2,1.5-2.6c0-0.1,0-0.3,0-0.4c0.4-0.1,0.8-0.2,1-0.3c0.4,0.5,1,0.9,1.6,1.3
		c0,0,0.1,0,0.1,0.1c-0.3,0.2-0.5,0.4-0.7,0.6c-0.9,0.7-1.5,1.2-2.8,1.3c-0.1,0-0.3,0-0.4,0C30.4,35.2,30.3,35.2,30.3,35.2z"/>
</g>
</svg>
