<?xml version="1.0" encoding="utf-8"?>
<!-- Generator: Adobe Illustrator 19.1.0, SVG Export Plug-In . SVG Version: 6.00 Build 0)  -->
<svg version="1.1" id="Layer_1" xmlns="http://www.w3.org/2000/svg" xmlns:xlink="http://www.w3.org/1999/xlink" x="0px" y="0px"
	 width="45.8px" height="37.3px" viewBox="-408 414.7 45.8 37.3" style="enable-background:new -408 414.7 45.8 37.3;"
	 xml:space="preserve">
<style type="text/css">
	.st0{fill:#666666;}
	.st1{opacity:0.8;fill:#6D6D6D;enable-background:new    ;}
	.st2{fill:#777777;}
	.st3{fill:#808080;fill-opacity:0.72;}
	.st4{fill:#A8A8A8;fill-opacity:0.2;}
	.st5{fill:#AAAAAA;fill-opacity:0.2;}
	.st6{fill:#FFFFFF;fill-opacity:0.2;}
	.st7{fill:#808080;fill-opacity:0.2;}
</style>
<g>
	<path class="st0" d="M-398.6,415.2c0,0-5.8,2.8-4.4,6.9c1.4,4.1,5.4,11.2,10.5,10.1c5.1-1.1,14.3-14.2,9.5-16.3
		C-387.8,413.8-398.6,415.2-398.6,415.2z"/>
	<path class="st0" d="M-398.6,415.2c0,0-5.8,2.8-4.4,6.9c1.4,4.1,5.4,11.2,10.5,10.1c5.1-1.1,14.3-14.2,9.5-16.3
		C-387.8,413.8-398.6,415.2-398.6,415.2z"/>
	<path class="st1" d="M-393.5,431.4c-4.1,0-7.4-6.1-8.7-9.6c-1.1-3.1,3.1-5.5,3.9-5.8c0.7-0.1,3.8-0.4,7.1-0.4
		c3.5,0,6.2,0.4,7.9,1.1c0.4,0.2,1,0.6,0.9,2c-0.5,4.2-6.6,11.8-10.2,12.6C-392.9,431.3-393.2,431.4-393.5,431.4z"/>
	<path class="st2" d="M-393.5,430.4c-3.1,0-6.2-4.6-7.7-9c-0.8-2.1,2.3-4,3.2-4.5c0.9-0.1,3.7-0.4,6.8-0.4c3.4,0,6,0.4,7.5,1
		c0.1,0,0.4,0.2,0.3,1c-0.4,3.8-6.1,11-9.3,11.7C-393.1,430.3-393.3,430.4-393.5,430.4z"/>
	<path class="st3" d="M-393.5,429.2c-2.1,0-4.9-3.5-6.6-8.2c-0.3-0.8,1-2,2.5-2.9c1.1-0.1,3.6-0.4,6.4-0.4s5.1,0.3,6.6,0.7
		c-0.3,3.3-5.7,10.1-8.4,10.7C-393.2,429.2-393.4,429.2-393.5,429.2z"/>
	<path class="st4" d="M-393.5,427.4c-0.8,0-3.1-2.3-4.7-6.5c0.2-0.3,0.6-0.6,1.2-1c1.2-0.1,3.4-0.3,5.8-0.3c1.9,0,3.3,0.1,4.3,0.3
		C-388.3,422.8-391.9,426.9-393.5,427.4L-393.5,427.4z"/>
	<path class="st0" d="M-392.5,436.2c0,0-1.7,5,1.3,6.3s9.1,2.9,11.5-0.8c2.4-3.7,0.6-15.7-3.3-14
		C-386.9,429.4-392.5,436.2-392.5,436.2z"/>
	<path class="st0" d="M-392.5,436.2c0,0-1.7,5,1.3,6.3s9.1,2.9,11.5-0.8c2.4-3.7,0.6-15.7-3.3-14
		C-386.9,429.4-392.5,436.2-392.5,436.2z"/>
	<path class="st1" d="M-384.8,443.2c-2.7,0-5.4-1.1-6.1-1.4c-2-0.9-1.1-4.5-0.9-5.2c0.8-0.9,5.7-6.7,9.1-8.2
		c0.1-0.1,0.3-0.1,0.4-0.1c0.6,0,1.1,0.8,1.4,1.3c1.6,3.1,1.9,9.5,0.4,11.7C-381.3,442.5-382.7,443.2-384.8,443.2L-384.8,443.2z"/>
	<path class="st2" d="M-384.8,442.2c-2.5,0-5-1-5.7-1.3c-1.1-0.5-0.6-2.9-0.4-3.8c1.7-2,5.8-6.5,8.6-7.7c0.1,0,0.7,0.7,1.2,2.4
		c1,3.4,0.7,7.7-0.2,9C-381.5,441.1-382.2,442.2-384.8,442.2L-384.8,442.2z"/>
	<path class="st3" d="M-384.8,440.9c-2.2,0-4.4-0.9-5.2-1.2c-0.1-0.3-0.1-1.1,0.1-2.2c1.6-1.9,4.8-5.3,7.1-6.7
		c0.1,0.3,0.3,0.7,0.4,1.2c0.9,3.2,0.6,7.1,0,8C-382.4,440.3-382.9,440.9-384.8,440.9z"/>
	<path class="st4" d="M-384.8,439.2c-1.2,0-2.5-0.3-3.4-0.6v-0.1c1.3-1.6,3-3.2,4.4-4.5c0.4,2.2,0.2,4.4-0.1,5.1
		C-383.9,439.1-384.2,439.2-384.8,439.2z"/>
	<path class="st0" d="M-380.1,420.7c0,0-2,0.9-1,3.3c0.9,2.4,0.9,3.2,2.5,4.6c1.6,1.4,3.6,2,5.1,0.4s1.9-2.4,2.2-5.1s1.2-4.4-2.8-5
		s-3.4-0.6-5.1,0.9C-380.9,421.4-380.1,420.7-380.1,420.7z"/>
	<path class="st0" d="M-380.1,420.7c0,0-2,0.9-1,3.3c0.9,2.4,0.9,3.2,2.5,4.6c1.6,1.4,3.6,2,5.1,0.4s1.9-2.4,2.2-5.1s1.2-4.4-2.8-5
		s-3.4-0.6-5.1,0.9C-380.9,421.4-380.1,420.7-380.1,420.7z"/>
	<path class="st1" d="M-375.6,429.1c-0.8,0-1.7-0.4-2.5-1.1c-1.1-1-1.3-1.5-1.8-2.9c-0.1-0.5-0.2-0.9-0.4-1.4
		c-0.5-1.3,0-1.9,0.5-2.2l0.1-0.1l0.1-0.1c0.1-0.1,0.4-0.4,1-0.9c0.2-0.2,0.4-0.3,0.5-0.5c0.6-0.6,0.7-0.6,1.1-0.6
		c0.4,0,1.1,0.1,2.3,0.3l0.5,0.1c2.6,0.4,2.5,0.9,2.2,3c-0.1,0.4-0.1,0.8-0.1,1.2c-0.2,2.5-0.6,3.2-1.9,4.6
		C-374.5,428.9-375,429.1-375.6,429.1z"/>
	<path class="st3" d="M-375.6,428.1c-0.5,0-1.2-0.3-1.8-0.9c-0.9-0.8-1-1.1-1.5-2.5c-0.1-0.4-0.3-0.8-0.5-1.4c-0.3-0.7,0-0.9,0.1-1
		l0.2-0.1l0.2-0.2c0.1-0.1,0.4-0.3,0.9-0.8c0.2-0.2,0.4-0.4,0.5-0.5c0.1-0.1,0.3-0.3,0.4-0.3c0.4,0,1.2,0.1,2.1,0.3h0.6
		c1.2,0.2,1.5,0.4,1.5,0.4c0,0.1-0.1,0.9-0.1,1.4c-0.1,0.4-0.1,0.8-0.2,1.2c-0.2,2.3-0.5,2.8-1.7,4
		C-375.1,427.9-375.4,428.1-375.6,428.1z"/>
	<path class="st2" d="M-375.6,428.1c-0.5,0-1.2-0.3-1.8-0.9c-0.9-0.8-1-1.1-1.5-2.5c-0.1-0.4-0.3-0.8-0.5-1.4c-0.3-0.7,0-0.9,0.1-1
		l0.2-0.1l0.2-0.2c0.1-0.1,0.4-0.3,0.9-0.8c0.2-0.2,0.4-0.4,0.5-0.5c0.1-0.1,0.3-0.3,0.4-0.3c0.4,0,1.2,0.1,2.1,0.3h0.6
		c1.2,0.2,1.5,0.4,1.5,0.4c0,0.1-0.1,0.9-0.1,1.4c-0.1,0.4-0.1,0.8-0.2,1.2c-0.2,2.3-0.5,2.8-1.7,4
		C-375.1,427.9-375.4,428.1-375.6,428.1z"/>
	<path class="st4" d="M-375.7,426.9c-0.2,0-0.5-0.2-0.9-0.6c-0.7-0.6-0.7-0.7-1.2-2c-0.1-0.4-0.3-0.8-0.5-1.2l0.2-0.2
		c0.1-0.1,0.4-0.3,0.9-0.8c0.2-0.2,0.4-0.4,0.6-0.5c0.4,0,0.9,0.1,1.5,0.2l0.6,0.1c0.2,0,0.3,0.1,0.4,0.1c0,0.2,0,0.3-0.1,0.4
		c-0.1,0.4-0.1,0.8-0.2,1.3C-374.6,425.7-374.8,425.9-375.7,426.9z"/>
	<path class="st0" d="M-401.2,443.8c0,0,4.2-2.5,6.6-1.2c2.3,1.3,6.4,2.2,6.8,3.4c0.4,1.2,5.5,4.8,2,5.8s-7.3-1.3-8.9-2
		c-1.6-0.7-6.6-1.7-6.9-3.1C-401.9,445.3-401.2,443.8-401.2,443.8z"/>
	<path class="st0" d="M-401.2,443.8c0,0,4.2-2.5,6.6-1.2c2.3,1.3,6.4,2.2,6.8,3.4c0.4,1.2,5.5,4.8,2,5.8s-7.3-1.3-8.9-2
		c-1.6-0.7-6.6-1.7-6.9-3.1C-401.9,445.3-401.2,443.8-401.2,443.8z"/>
	<path class="st1" d="M-387.5,451.2c-2.1,0-4.2-0.9-5.7-1.6c-0.5-0.2-0.9-0.4-1.2-0.5c-0.4-0.1-0.9-0.3-1.5-0.5
		c-1.2-0.4-4.6-1.4-4.8-2.1c-0.2-0.8,0.1-1.7,0.2-2.1c0.7-0.4,2.6-1.3,4.3-1.3c0.5,0,0.9,0.1,1.2,0.3c0.9,0.5,2.1,1,3.2,1.4
		c1.1,0.4,3,1.2,3.2,1.6c0.2,0.5,0.6,0.9,1.3,1.7c0.6,0.6,2,2.1,1.8,2.6c0,0-0.1,0.2-0.6,0.3C-386.5,451.1-387,451.2-387.5,451.2z"
		/>
	<path class="st3" d="M-387.5,450.2c-1.9,0-3.8-0.9-5.3-1.5c-0.5-0.2-0.9-0.4-1.3-0.5c-0.4-0.1-0.9-0.3-1.6-0.5
		c-1.1-0.3-3.4-1-4.2-1.6c0-0.3,0-0.7,0.1-1c0.9-0.4,2.3-1,3.4-1c0.3,0,0.6,0,0.7,0.1c1,0.6,2.2,1,3.3,1.5c0.9,0.4,2.3,0.9,2.8,1.2
		c0.3,0.6,0.8,1.1,1.4,1.8c0.3,0.3,0.9,0.9,1.2,1.4C-387,450.2-387.3,450.2-387.5,450.2z"/>
	<path class="st2" d="M-387.5,450.2c-1.9,0-3.8-0.9-5.3-1.5c-0.5-0.2-0.9-0.4-1.3-0.5c-0.4-0.1-0.9-0.3-1.6-0.5
		c-1.1-0.3-3.4-1-4.2-1.6c0-0.3,0-0.7,0.1-1c0.9-0.4,2.3-1,3.4-1c0.3,0,0.6,0,0.7,0.1c1,0.6,2.2,1,3.3,1.5c0.9,0.4,2.3,0.9,2.8,1.2
		c0.3,0.6,0.8,1.1,1.4,1.8c0.3,0.3,0.9,0.9,1.2,1.4C-387,450.2-387.3,450.2-387.5,450.2z"/>
	<path class="st4" d="M-389.7,448.5c-0.9-0.3-1.9-0.7-2.6-1c-0.5-0.2-1-0.4-1.4-0.6c-0.4-0.1-1-0.3-1.6-0.5c-1.1-0.3-2-0.6-2.6-0.9
		c0.6-0.2,1.2-0.4,1.7-0.4c0.2,0,0.2,0,0.2,0c1,0.6,2.2,1,3.4,1.5c0.5,0.2,1.8,0.7,2.3,1C-390.1,447.9-389.9,448.3-389.7,448.5z"/>
	<path class="st0" d="M-401.8,428.4c0,0,2.1,3.6,3.5,4c1.4,0.4,3.5,0.1,3.5,3.1c0,2.9,1,3.6-1.7,4.1s-7.2,4.9-8.5,1.4
		s-3.7-5.3-2.8-9.3c0.9-4,4.4-3.9,4.4-3.9L-401.8,428.4z"/>
	<path class="st0" d="M-401.8,428.4c0,0,2.1,3.6,3.5,4c1.4,0.4,3.5,0.1,3.5,3.1c0,2.9,1,3.6-1.7,4.1s-7.2,4.9-8.5,1.4
		s-3.7-5.3-2.8-9.3c0.9-4,4.4-3.9,4.4-3.9L-401.8,428.4z"/>
	<path class="st1" d="M-403.3,441.5c-0.3,0-0.7-0.1-0.9-0.8c-0.4-1.2-1-2.1-1.5-3c-1-1.9-1.9-3.4-1.3-5.8c0.6-3,2.8-3.3,3.4-3.3
		l1.3,0.5c0.6,1,2.3,3.7,3.8,4.1c0.3,0.1,0.6,0.2,1,0.2c1.2,0.2,1.9,0.4,1.9,2c0,0.8,0.1,1.4,0.1,2c0,0.4,0.1,0.9,0,1
		c0,0-0.2,0.2-1.1,0.3c-1,0.2-2.2,0.8-3.4,1.4C-401.2,440.9-402.4,441.5-403.3,441.5z"/>
	<path class="st2" d="M-403.3,440.4c-0.5-1.2-1-2.3-1.5-3.2c-1-1.8-1.7-3-1.2-5.1c0.4-1.9,1.6-2.4,2.3-2.4l0.7,0.2
		c1,1.6,2.6,3.8,4.2,4.3c0.3,0.1,0.7,0.2,1.1,0.3c0.3,0.1,0.9,0.2,1,0.3c0,0,0.1,0.2,0.1,0.8c0,0.9,0.1,1.6,0.1,2.1v0.1
		c-0.1,0-0.2,0-0.3,0c-1.2,0.1-2.4,0.8-3.7,1.5C-401.4,439.8-402.6,440.4-403.3,440.4C-403.2,440.4-403.2,440.4-403.3,440.4z"/>
	<path class="st5" d="M-402.5,439.1c-0.4-0.9-0.8-1.7-1.2-2.4c-1-1.8-1.5-2.7-1.1-4.3c0.2-0.8,0.5-1.3,1-1.5l0,0
		c1.6,2.5,3.1,4,4.6,4.5c0.4,0.1,0.8,0.2,1.2,0.3h0.1c0,0.4,0,0.8,0,1.1c-1,0.4-2.1,1-3.1,1.5C-401.4,438.4-402,438.9-402.5,439.1z"
		/>
	<path class="st4" d="M-402.1,437.9c-0.3-0.6-0.6-1.2-0.9-1.7c-1-1.7-1.3-2.4-1-3.7c0-0.1,0-0.3,0-0.4c1.5,2.2,3,3.5,4.5,4
		c0.2,0.1,0.4,0.1,0.6,0.2c-0.9,0.3-1.7,0.8-2.5,1.2C-401.6,437.7-401.9,437.8-402.1,437.9z"/>
	<path class="st0" d="M-369.5,445.4c0,0-6.4-0.9-7-5.5c-0.7-4.6-1.4-10,1.9-8.3s4.8,5.8,6.6,7c1.8,1.2,3.3,3.8,2,5.5
		S-369.5,445.4-369.5,445.4z"/>
	<path class="st0" d="M-369.5,445.4c0,0-6.4-0.9-7-5.5c-0.7-4.6-1.4-10,1.9-8.3s4.8,5.8,6.6,7c1.8,1.2,3.3,3.8,2,5.5
		S-369.5,445.4-369.5,445.4z"/>
	<path class="st1" d="M-369,444.7c-0.2,0-0.4,0-0.4,0c-0.1,0-5.8-0.9-6.4-4.8c-0.3-2.3-1-6.7-0.2-7.6c0-0.1,0.1-0.1,0.2-0.1
		c0.1,0,0.3,0,0.7,0.2c1.8,0.9,3,2.7,4.1,4.2c0.8,1.2,1.6,2.2,2.4,2.8c1.1,0.7,1.9,1.9,2.1,2.9c0.1,0.5,0,1-0.3,1.3
		C-367.3,444.5-368.4,444.7-369,444.7z"/>
	<path class="st3" d="M-369,443.7c-0.1,0-0.2,0-0.3,0s-5-0.8-5.5-4c-0.2-1.4-0.7-4.8-0.5-6.3c1.4,0.9,2.5,2.4,3.5,3.8
		c0.9,1.2,1.7,2.3,2.7,3c0.8,0.6,1.6,1.5,1.7,2.3c0.1,0.4,0,0.5-0.1,0.6C-367.8,443.5-368.5,443.7-369,443.7z"/>
	<path class="st2" d="M-369,443.7c-0.1,0-0.2,0-0.3,0s-5-0.8-5.5-4c-0.2-1.4-0.7-4.8-0.5-6.3c1.4,0.9,2.5,2.4,3.5,3.8
		c0.9,1.2,1.7,2.3,2.7,3c0.8,0.6,1.6,1.5,1.7,2.3c0.1,0.4,0,0.5-0.1,0.6C-367.8,443.5-368.5,443.7-369,443.7z"/>
	<path class="st6" d="M-369.1,442.4c0,0-4.1-0.7-4.5-3c-0.1-0.6-0.3-2-0.4-3.4c0.5,0.6,0.9,1.1,1.3,1.7c0.9,1.3,1.8,2.5,3,3.3
		c0.5,0.4,0.9,0.9,1.1,1.2c-0.1,0-0.2,0-0.4,0L-369.1,442.4z"/>
	<path class="st0" d="M-370.4,428.1c0,0,4-0.4,4.9,1.3c0.9,1.7,3.1,3.8,2.8,4.8c-0.3,1,1.8,5.7-0.9,5.2c-2.7-0.5-4.6-3.7-5.4-4.7
		s-3.5-3.5-3-4.6S-370.4,428.1-370.4,428.1z"/>
	<path class="st0" d="M-370.4,428.1c0,0,4-0.4,4.9,1.3c0.9,1.7,3.1,3.8,2.8,4.8c-0.3,1,1.8,5.7-0.9,5.2c-2.7-0.5-4.6-3.7-5.4-4.7
		s-3.5-3.5-3-4.6S-370.4,428.1-370.4,428.1z"/>
	<path class="st1" d="M-363.2,438.7c-0.1,0-0.1,0-0.2,0c-2-0.3-3.6-2.6-4.5-3.8c-0.2-0.2-0.3-0.5-0.5-0.6c-0.2-0.2-0.5-0.5-0.8-0.9
		c-0.5-0.6-2.2-2.4-2.1-2.9c0.3-0.7,0.9-1.3,1.2-1.5c0.2,0,0.4,0,0.7,0c1.6,0,2.8,0.3,3.1,0.9c0.4,0.7,0.9,1.5,1.5,2.2
		c0.5,0.6,1.3,1.7,1.3,2.1c-0.1,0.4,0,1,0.2,2c0.1,0.6,0.5,2.3,0.2,2.6C-363.1,438.7-363.2,438.7-363.2,438.7z"/>
	<path class="st3" d="M-364.1,437.4c-1.3-0.7-2.4-2.2-3-3.1c-0.2-0.3-0.3-0.5-0.5-0.6c-0.2-0.2-0.5-0.6-0.8-0.9
		c-0.4-0.5-1.4-1.6-1.7-2.2c0.2-0.2,0.4-0.5,0.5-0.6c0.1,0,0.2,0,0.3,0c1.5,0,2.1,0.3,2.2,0.4c0.4,0.7,1,1.5,1.5,2.3
		c0.4,0.5,0.9,1.2,1.1,1.5c-0.1,0.6,0.1,1.3,0.2,2.2C-364.2,436.5-364.1,436.9-364.1,437.4z"/>
	<path class="st2" d="M-364.1,437.4c-1.3-0.7-2.4-2.2-3-3.1c-0.2-0.3-0.3-0.5-0.5-0.6c-0.2-0.2-0.5-0.6-0.8-0.9
		c-0.4-0.5-1.4-1.6-1.7-2.2c0.2-0.2,0.4-0.5,0.5-0.6c0.1,0,0.2,0,0.3,0c1.5,0,2.1,0.3,2.2,0.4c0.4,0.7,1,1.5,1.5,2.3
		c0.4,0.5,0.9,1.2,1.1,1.5c-0.1,0.6,0.1,1.3,0.2,2.2C-364.2,436.5-364.1,436.9-364.1,437.4z"/>
	<path class="st4" d="M-365.3,435.3c-0.5-0.5-0.9-1.1-1.2-1.5c-0.2-0.3-0.4-0.5-0.5-0.7c-0.2-0.3-0.5-0.6-0.9-1
		c-0.1-0.2-0.7-0.8-1.1-1.4c0.7,0,1.1,0.1,1.3,0.2c0.4,0.7,0.9,1.4,1.5,2.1c0.2,0.3,0.7,0.9,0.9,1.2
		C-365.4,434.5-365.3,434.9-365.3,435.3z"/>
	<path class="st7" d="M-367.5,431.9c-0.1-0.1-0.4-0.4-0.6-0.7c0.1,0,0.2,0,0.2,0.1C-367.8,431.4-367.6,431.7-367.5,431.9
		L-367.5,431.9z"/>
	<path class="st0" d="M-379.6,446.8c0,0-1.2,0.9-1.3,1.5c-0.1,0.6,0.2,1.4-0.9,1.4c-1.1,0-1.3,0.5-1.7-0.6c-0.4-1.1-2.4-2.7-1.1-3.3
		c1.2-0.6,1.8-1.6,3.4-1.3c1.6,0.2,1.8,1.6,1.8,1.6L-379.6,446.8z"/>
	<path class="st0" d="M-379.6,446.8c0,0-1.2,0.9-1.3,1.5c-0.1,0.6,0.2,1.4-0.9,1.4c-1.1,0-1.3,0.5-1.7-0.6c-0.4-1.1-2.4-2.7-1.1-3.3
		c1.2-0.6,1.8-1.6,3.4-1.3c1.6,0.2,1.8,1.6,1.8,1.6L-379.6,446.8z"/>
	<path class="st1" d="M-382.7,448.9c-0.2-0.5-0.5-0.9-0.8-1.4c-0.2-0.3-0.5-0.7-0.6-0.9c0.4-0.2,0.7-0.4,1-0.6
		c0.6-0.4,0.9-0.6,1.4-0.6c0.1,0,0.2,0,0.4,0c0.8,0.1,1,0.6,1.1,0.8v0.2c-0.6,0.4-1.3,1.1-1.4,1.8c0,0.1,0,0.3,0,0.5
		c0,0.1,0,0.2,0,0.3h-0.1C-382.2,448.9-382.5,448.9-382.7,448.9L-382.7,448.9z"/>
	<path class="st3" d="M-382.7,446.8c0.1,0,0.1-0.1,0.2-0.1c0.4-0.3,0.6-0.4,0.7-0.4c-0.3,0.3-0.5,0.6-0.7,0.9
		C-382.6,447.1-382.7,446.8-382.7,446.8z"/>
	<path class="st7" d="M-382.7,446.8c0.1,0,0.1-0.1,0.2-0.1c0.4-0.3,0.6-0.4,0.7-0.4c-0.3,0.3-0.5,0.6-0.7,0.9
		C-382.6,447.1-382.7,446.8-382.7,446.8z"/>
	<path class="st0" d="M-380,449.4c0,0,1.9-1.5,1.9-2.2s-0.5-1.6,1.3-2.1s2.1-1.1,2.8,0.1s4.3,2.5,2.4,3.6c-2,1.2-2.7,2.6-5.3,2.8
		c-2.6,0.2-3.2-1.3-3.2-1.3L-380,449.4z"/>
	<path class="st0" d="M-380,449.4c0,0,1.9-1.5,1.9-2.2s-0.5-1.6,1.3-2.1s2.1-1.1,2.8,0.1s4.3,2.5,2.4,3.6c-2,1.2-2.7,2.6-5.3,2.8
		c-2.6,0.2-3.2-1.3-3.2-1.3L-380,449.4z"/>
	<path class="st1" d="M-377.5,450.9c-1.1,0-1.6-0.4-1.8-0.7v-0.3c0.9-0.8,1.9-1.8,2-2.6c0-0.2,0-0.4,0-0.6c-0.1-0.5-0.1-0.5,0.7-0.8
		c0.5-0.1,0.9-0.3,1.2-0.4c0.2-0.1,0.4-0.2,0.5-0.2c0,0,0.1,0.1,0.2,0.3c0.3,0.5,0.9,1,1.6,1.4c0.4,0.3,1,0.7,1.2,1l-0.1,0.1
		c-0.7,0.4-1.2,0.8-1.7,1.2c-1,0.8-1.7,1.4-3.3,1.5C-377.2,450.9-377.4,450.9-377.5,450.9z"/>
	<path class="st3" d="M-377.7,449.9c1.4-1.4,1.4-2.2,1.5-2.6c0-0.1,0-0.3,0-0.4c0.4-0.1,0.8-0.2,1-0.3c0.4,0.5,1,0.9,1.6,1.3
		c0,0,0.1,0,0.1,0.1c-0.3,0.2-0.5,0.4-0.7,0.6c-0.9,0.7-1.5,1.2-2.8,1.3c-0.1,0-0.3,0-0.4,0C-377.6,449.9-377.7,449.9-377.7,449.9z"
		/>
	<path class="st7" d="M-377.7,449.9c1.4-1.4,1.4-2.2,1.5-2.6c0-0.1,0-0.3,0-0.4c0.4-0.1,0.8-0.2,1-0.3c0.4,0.5,1,0.9,1.6,1.3
		c0,0,0.1,0,0.1,0.1c-0.3,0.2-0.5,0.4-0.7,0.6c-0.9,0.7-1.5,1.2-2.8,1.3c-0.1,0-0.3,0-0.4,0C-377.6,449.9-377.7,449.9-377.7,449.9z"
		/>
	<path class="st2" d="M-377.7,449.9c1.4-1.4,1.4-2.2,1.5-2.6c0-0.1,0-0.3,0-0.4c0.4-0.1,0.8-0.2,1-0.3c0.4,0.5,1,0.9,1.6,1.3
		c0,0,0.1,0,0.1,0.1c-0.3,0.2-0.5,0.4-0.7,0.6c-0.9,0.7-1.5,1.2-2.8,1.3c-0.1,0-0.3,0-0.4,0C-377.6,449.9-377.7,449.9-377.7,449.9z"
		/>
</g>
</svg>
