<?xml version="1.0" encoding="utf-8"?>
<!-- Generator: Adobe Illustrator 19.1.0, SVG Export Plug-In . SVG Version: 6.00 Build 0)  -->
<svg version="1.1" id="Layer_1" xmlns="http://www.w3.org/2000/svg" xmlns:xlink="http://www.w3.org/1999/xlink" x="0px" y="0px"
	 width="25.8px" height="32.1px" viewBox="-418 416.9 25.8 32.1" style="enable-background:new -418 416.9 25.8 32.1;"
	 xml:space="preserve">
<style type="text/css">
	.st0{fill:#666666;}
	.st1{fill:#6D6D6D;}
	.st2{fill:#707070;}
	.st3{fill:#757575;}
	.st4{fill:#7F7F7F;}
</style>
<g>
	<path class="st0" d="M-412.7,417.2c0,0-3.3,1.6-2.5,3.9c0.8,2.3,3,6.3,5.9,5.7c2.9-0.6,8-7.9,5.3-9.1
		C-406.7,416.5-412.7,417.2-412.7,417.2z"/>
	<path class="st1" d="M-409.9,425.9c-1.8,0-3.6-2.7-4.5-5.2c-0.5-1.3,1.5-2.5,1.9-2.7c0.5-0.1,2.2-0.3,3.9-0.3
		c1.9,0,3.4,0.2,4.3,0.6c0.1,0,0.3,0.1,0.3,0.8c-0.2,2.2-3.6,6.4-5.4,6.8C-409.6,425.9-409.7,425.9-409.9,425.9L-409.9,425.9z"/>
	<path class="st2" d="M-409.9,425.1c-1.2,0-2.8-2-3.8-4.6c-0.1-0.6,0.8-1.3,1.5-1.7c0.6-0.1,2.1-0.2,3.6-0.2c1.6,0,2.9,0.2,3.7,0.4
		l0,0c-0.2,2-3.4,5.8-4.8,6.1C-409.7,425.1-409.8,425.1-409.9,425.1z"/>
	<path class="st3" d="M-409.9,424.3c-0.5,0-2-1.4-2.9-4c0.1-0.1,0.4-0.4,0.9-0.7c0.7-0.1,2-0.2,3.4-0.2c1.1,0,2,0.1,2.8,0.2
		C-406.5,421.4-408.9,424.1-409.9,424.3L-409.9,424.3z"/>
	<path class="st4" d="M-409.9,423.4c-0.4-0.2-1.3-1.2-2-2.9c0.1,0,0.1-0.1,0.2-0.1c0.7-0.1,1.9-0.2,3.1-0.2c0.5,0,1.1,0,1.5,0.1
		C-407.9,421.6-409.3,423.1-409.9,423.4z"/>
	<path class="st0" d="M-409.3,429c0,0-1,2.8,0.7,3.6c1.7,0.8,5.1,1.6,6.5-0.4s0.4-8.9-1.8-7.9C-406.1,425.3-409.3,429-409.3,429z"/>
	<path class="st1" d="M-404.9,432.6c-1.4,0-2.9-0.6-3.3-0.8c-0.8-0.4-0.4-2-0.3-2.4c0.9-1.1,3.3-3.7,4.9-4.4l0,0
		c0.1,0,0.3,0.1,0.5,0.5c0.9,1.6,1,5.1,0.3,6.2C-403.2,432.3-403.9,432.6-404.9,432.6L-404.9,432.6z"/>
	<path class="st2" d="M-404.9,431.8c-1.3,0-2.7-0.6-3-0.7c0-0.1-0.1-0.6,0.1-1.3c1-1.2,2.8-3.1,4.1-3.8c0.7,1.5,0.8,4.5,0.3,5.3
		C-403.7,431.6-404.2,431.8-404.9,431.8z"/>
	<path class="st3" d="M-404.9,430.9c-0.8,0-1.6-0.3-2.2-0.4c0-0.1,0-0.2,0.1-0.3c0.8-1,1.9-2.1,2.9-2.9c0.3,1.4,0.2,3.1,0,3.5
		C-404.2,430.8-404.4,430.9-404.9,430.9z"/>
	<path class="st4" d="M-404.9,430.1c-0.3,0-0.6,0-0.9-0.1c0.3-0.4,0.7-0.7,1-1.1C-404.8,429.4-404.8,429.8-404.9,430.1L-404.9,430.1
		z"/>
	<path class="st0" d="M-402.3,420.3c0,0-1.1,0.5-0.6,1.8c0.5,1.4,0.5,1.8,1.4,2.6c0.9,0.8,2,1.1,2.9,0.2s1.1-1.4,1.2-2.9
		s0.7-2.5-1.6-2.8c-2.3-0.3-1.8-0.3-2.8,0.6S-402.3,420.3-402.3,420.3z"/>
	<path class="st1" d="M-399.8,424.6c-0.3,0-0.8-0.2-1.2-0.6c-0.5-0.5-0.6-0.7-0.9-1.5c-0.1-0.2-0.2-0.5-0.3-0.8
		c-0.2-0.4-0.1-0.6,0.1-0.8l0.1-0.1l0.2,0.1c0.1-0.1,0.2-0.2,0.5-0.5l0.3-0.7c0.1-0.1,0.2-0.7,0.3-0.7l0,0c0.3,0,0.7,0.5,1.3,0.6
		l0.3,0.3c1.1,0.1,1.1,0.2,1,1.3c0,0.2-0.1,0.5-0.1,0.7c-0.1,1.3-0.3,1.7-1,2.4C-399.4,424.5-399.5,424.6-399.8,424.6z"/>
	<path class="st2" d="M-399.8,423.8c-0.1,0-0.3-0.1-0.6-0.3c-0.4-0.3-0.4-0.4-0.7-1.2c-0.1-0.2-0.2-0.5-0.3-0.7l0,0
		c0.1-0.1,0.3-0.3,0.6-0.5l0.2-0.2l0.3-0.5c0.2,0.1,0.4,0.1,0.7,0.2l0.3,0.2c0,0,0.3,0,0.4,0.1c0,0.1,0,0.2,0,0.3
		c-0.1,0.2-0.1,0.4-0.1,0.7C-399.1,423.1-399.3,423.2-399.8,423.8L-399.8,423.8z"/>
	<path class="st3" d="M-400,422.7c-0.1-0.1-0.1-0.2-0.3-0.7c0-0.1-0.1-0.1-0.1-0.2c0.1-0.1,0.3-0.3,0.3-0.3l0.1-0.1l0,0h0.1
		c0,0.1,0,0.2,0,0.4C-399.9,422.3-399.9,422.5-400,422.7z"/>
	<path class="st4" d="M-400,422.7c-0.1-0.1-0.1-0.2-0.3-0.7c0-0.1-0.1-0.1-0.1-0.2c0.1-0.1,0.3-0.3,0.3-0.3l0.1-0.1l0,0h0.1
		c0,0.1,0,0.2,0,0.4C-399.9,422.3-399.9,422.5-400,422.7z"/>
	<path class="st0" d="M-414.2,433.3c0,0,2.4-1.4,3.7-0.7c1.3,0.7,3.6,1.3,3.8,1.9c0.3,0.7,3.1,2.7,1.1,3.2s-4.1-0.8-5-1.1
		c-0.9-0.3-3.7-1-3.9-1.8C-414.5,434.1-414.2,433.3-414.2,433.3z"/>
	<path class="st1" d="M-406.5,437.1c-1.1,0-2.2-0.5-3-0.9c-0.3-0.1-0.5-0.2-0.7-0.3c-0.2-0.1-0.5-0.2-0.9-0.3
		c-0.6-0.2-2.1-0.6-2.5-1c0-0.3,0-0.6,0.1-0.8c0.5-0.3,1.4-0.6,2.1-0.6c0.2,0,0.4,0,0.5,0.1c0.6,0.3,1.2,0.6,1.9,0.8
		c0.6,0.2,1.5,0.6,1.7,0.8c0.1,0.2,0.4,0.6,0.8,1c0.2,0.3,0.7,1.1,0.9,1.1l0,0C-406,437-406.2,437.1-406.5,437.1z"/>
	<path class="st2" d="M-407.5,436.2c-0.5-0.2-0.9-0.4-1.4-0.6l-0.3-0.1c-0.1,0-0.2-0.1-0.3-0.1c-0.2-0.1-0.3-0.2-0.5-0.2
		c-0.2-0.1-0.5-0.2-0.9-0.3c-0.8-0.2-1.3-0.4-1.6-0.5c0.4-0.1,0.8-0.3,1.1-0.3c0.1,0,0.1,0,0.1,0c0.6,0.3,1.3,0.5,2,0.8
		c0.3,0.1,1,0.4,1.3,0.5C-407.9,435.7-407.7,435.9-407.5,436.2z"/>
	<path class="st3" d="M-407.5,436.2c-0.5-0.2-0.9-0.4-1.4-0.6l-0.3-0.1c-0.1,0-0.2-0.1-0.3-0.1c-0.2-0.1-0.3-0.2-0.5-0.2
		c-0.2-0.1-0.5-0.2-0.9-0.3c-0.8-0.2-1.3-0.4-1.6-0.5c0.4-0.1,0.8-0.3,1.1-0.3c0.1,0,0.1,0,0.1,0c0.6,0.3,1.3,0.5,2,0.8
		c0.3,0.1,1,0.4,1.3,0.5C-407.9,435.7-407.7,435.9-407.5,436.2z"/>
	<path class="st4" d="M-407.5,436.2c-0.5-0.2-0.9-0.4-1.4-0.6l-0.3-0.1c-0.1,0-0.2-0.1-0.3-0.1c-0.2-0.1-0.3-0.2-0.5-0.2
		c-0.2-0.1-0.5-0.2-0.9-0.3c-0.8-0.2-1.3-0.4-1.6-0.5c0.4-0.1,0.8-0.3,1.1-0.3c0.1,0,0.1,0,0.1,0c0.6,0.3,1.3,0.5,2,0.8
		c0.3,0.1,1,0.4,1.3,0.5C-407.9,435.7-407.7,435.9-407.5,436.2z"/>
	<path class="st0" d="M-414.5,424.7c0,0,1.2,2,2,2.3c0.8,0.3,2,0.1,2,1.7c0,1.6,0.6,2-0.9,2.3c-1.5,0.2-4,2.8-4.8,0.8
		c-0.8-2-2.1-3-1.6-5.2c0.5-2.2,2.5-2.2,2.5-2.2L-414.5,424.7z"/>
	<path class="st1" d="M-415.3,431.7c-0.1,0-0.1,0-0.2-0.2c-0.2-0.7-0.6-1.3-0.8-1.8c-0.6-1-1-1.8-0.7-3c0.3-1.3,1.2-1.5,1.5-1.5
		l0.5,0.2c0.5,0.8,1.4,2.1,2.3,2.4c0.2,0.1,0.4,0.1,0.6,0.1c0.7,0.1,0.8,0.1,0.8,0.8c0,0.5,0,0.8,0.1,1.1c0,0.1,0,0.2,0,0.3
		c-0.1,0-0.2,0-0.3,0.1c-0.6,0.1-1.3,0.5-2,0.8C-414.2,431.3-415,431.7-415.3,431.7z"/>
	<path class="st2" d="M-414.9,430.7c-0.2-0.5-0.5-1-0.7-1.4c-0.5-1-0.8-1.5-0.6-2.4c0.1-0.6,0.4-0.8,0.6-0.9l0,0
		c0.9,1.4,1.7,2.2,2.6,2.5c0.2,0.1,0.5,0.1,0.7,0.2h0.1c0,0.3,0,0.5,0,0.7c-0.6,0.2-1.3,0.5-1.8,0.8
		C-414.3,430.4-414.6,430.6-414.9,430.7z"/>
	<path class="st3" d="M-414.6,429.6c-0.1-0.2-0.2-0.5-0.4-0.7c-0.4-0.7-0.5-1-0.6-1.3c0.6,0.7,1.2,1.3,1.8,1.6
		c-0.3,0.1-0.5,0.3-0.7,0.4C-414.5,429.5-414.5,429.5-414.6,429.6z"/>
	<path class="st4" d="M-414.6,429.6c-0.1-0.2-0.2-0.5-0.4-0.7c-0.4-0.7-0.5-1-0.6-1.3c0.6,0.7,1.2,1.3,1.8,1.6
		c-0.3,0.1-0.5,0.3-0.7,0.4C-414.5,429.5-414.5,429.5-414.6,429.6z"/>
	<path class="st0" d="M-396.4,434.2c0,0-3.6-0.5-4-3.1c-0.4-2.6-0.8-5.6,1.1-4.7c1.9,0.9,2.7,3.3,3.7,4s1.9,2.1,1.1,3.1
		S-396.4,434.2-396.4,434.2z"/>
	<path class="st1" d="M-396.1,433.4c-0.1,0-0.2,0-0.2,0s-3-0.5-3.3-2.4c-0.1-0.9-0.5-3.2-0.2-3.9h0.1c0.9,0.5,1.6,1.4,2.2,2.3
		c0.5,0.7,0.9,1.3,1.5,1.7c0.5,0.3,1,0.9,1,1.4c0,0.3,0,0.4-0.1,0.5C-395.3,433.4-395.7,433.4-396.1,433.4z"/>
	<path class="st2" d="M-396.1,432.6c0,0-2.4-0.4-2.6-1.7c-0.1-0.9-0.2-1.5-0.3-2c0.3,0.3,0.6,0.7,0.8,1.1c0.5,0.7,1,1.4,1.7,1.9
		c0.3,0.2,0.6,0.5,0.7,0.8C-395.9,432.6-396,432.6-396.1,432.6L-396.1,432.6z"/>
	<path class="st3" d="M-396.1,432.6c0,0-2.4-0.4-2.6-1.7c-0.1-0.9-0.2-1.5-0.3-2c0.3,0.3,0.6,0.7,0.8,1.1c0.5,0.7,1,1.4,1.7,1.9
		c0.3,0.2,0.6,0.5,0.7,0.8C-395.9,432.6-396,432.6-396.1,432.6L-396.1,432.6z"/>
	<path class="st4" d="M-396.1,432.6c0,0-2.4-0.4-2.6-1.7c-0.1-0.9-0.2-1.5-0.3-2c0.3,0.3,0.6,0.7,0.8,1.1c0.5,0.7,1,1.4,1.7,1.9
		c0.3,0.2,0.6,0.5,0.7,0.8C-395.9,432.6-396,432.6-396.1,432.6L-396.1,432.6z"/>
	<path class="st0" d="M-398.6,434.2c0,0-2.8,0.2-3.4,2.2c-0.3,0.9,0.8,1.6,0.8,2.7c0,1.4-0.1,2.2,1.1,2.5c2.2,0.5,8.2-2.2,7-4
		C-394.4,435.7-398.6,434.2-398.6,434.2z"/>
	<path class="st1" d="M-399.5,440.8c-0.2,0-0.3,0-0.4,0c-0.4-0.1-0.4-0.1-0.4-1.2v-0.5c0-0.8-0.3-1.3-0.6-1.8
		c-0.2-0.3-0.3-0.6-0.3-0.7c0.3-1.1,2-1.5,2.5-1.5c1.2,0.5,4.1,1.7,4.9,2.9c0,0,0,0.1,0,0.2C-394.5,439.3-397.7,440.8-399.5,440.8
		L-399.5,440.8z"/>
	<path class="st2" d="M-399.6,440v-0.9c0-1-0.4-1.7-0.7-2.2c-0.1-0.1-0.1-0.2-0.1-0.2c0.2-0.4,0.9-0.6,1.6-0.8
		c1.5,0.6,3.2,1.5,4,2.2C-395.6,438.8-398,440-399.6,440C-399.5,440-399.5,440-399.6,440z"/>
	<path class="st3" d="M-398.7,438.9c0-0.9-0.3-1.5-0.6-2c0.1,0,0.2-0.1,0.4-0.1c1.1,0.4,2,0.9,2.6,1.2
		C-397,438.3-397.9,438.7-398.7,438.9z"/>
	<path class="st4" d="M-398.7,438.9c0-0.9-0.3-1.5-0.6-2c0.1,0,0.2-0.1,0.4-0.1c1.1,0.4,2,0.9,2.6,1.2
		C-397,438.3-397.9,438.7-398.7,438.9z"/>
	<path class="st0" d="M-409,440c0,0-2,1.8-1.2,2.9c0.8,1.1,2.6,2.9,4.4,1.8c1.8-1.1,4.5-6.5,2.6-6.5C-405.1,438.2-409,440-409,440z"
		/>
	<path class="st1" d="M-407,444.3c-0.9,0-2-0.9-2.6-1.8c-0.2-0.2,0.3-1.1,1-1.7c1.1-0.5,3.8-1.6,5.2-1.7c0.1,1-1.6,4.2-2.9,5
		C-406.5,444.2-406.7,444.3-407,444.3L-407,444.3z"/>
	<path class="st2" d="M-407,443.4c-0.5,0-1.2-0.5-1.7-1.2c0.1-0.2,0.3-0.5,0.6-0.8c1-0.4,2.5-1,3.6-1.3c-0.5,1.1-1.4,2.8-2.2,3.2
		C-406.8,443.4-406.9,443.4-407,443.4z"/>
	<path class="st3" d="M-407,442.6c-0.1,0-0.4-0.2-0.6-0.4c0,0,0-0.1,0.1-0.1c0.4-0.2,1-0.4,1.5-0.6
		C-406.4,442-406.8,442.5-407,442.6z"/>
	<path class="st4" d="M-407,442.6c-0.1,0-0.4-0.2-0.6-0.4c0,0,0-0.1,0.1-0.1c0.4-0.2,1-0.4,1.5-0.6
		C-406.4,442-406.8,442.5-407,442.6z"/>
	<path class="st0" d="M-398.2,442.6c0,0-1,0-1.3,1.2c-0.3,1.2-0.5,1.5-0.3,2.4c0.2,0.9,0.8,1.5,1.8,1.1s1.4-0.7,2.2-1.7
		c0.8-1,1.6-1.6,0.3-2.6s-1.1-0.9-2.1-0.6C-398.7,442.7-398.2,442.6-398.2,442.6z"/>
	<path class="st1" d="M-398.5,446.5c-0.3,0-0.4-0.5-0.4-0.6c-0.1-0.5-0.1-0.7,0.1-1.3c0.1-0.2,0.1-0.4,0.2-0.7
		c0.1-0.5,0.4-0.5,0.5-0.6h0.1c0,0,0.3-0.1,0.7-0.2l0.3-0.1c0.1,0,0.2-0.1,0.3-0.1c0,0,0.3,0.2,0.6,0.5l0.2,0.1
		c0.3,0.2,0.4,0.4,0.4,0.4c0,0.1-0.3,0.4-0.5,0.6c-0.1,0.1-0.2,0.3-0.4,0.5c-0.7,1-1,1.1-1.8,1.5
		C-398.4,446.5-398.5,446.5-398.5,446.5z"/>
	<path class="st2" d="M-398.2,445.5c0-0.1,0-0.3,0.2-0.7c0.1-0.2,0.1-0.4,0.2-0.7h0.1c0,0,0.3-0.1,0.7-0.2l0,0
		c0.1,0.1,0.2,0.2,0.2,0.2c-0.1,0.2-0.3,0.3-0.4,0.5C-397.6,445.2-397.8,445.4-398.2,445.5z"/>
	<path class="st3" d="M-398.2,445.5c0-0.1,0-0.3,0.2-0.7c0.1-0.2,0.1-0.4,0.2-0.7h0.1c0,0,0.3-0.1,0.7-0.2l0,0
		c0.1,0.1,0.2,0.2,0.2,0.2c-0.1,0.2-0.3,0.3-0.4,0.5C-397.6,445.2-397.8,445.4-398.2,445.5z"/>
	<path class="st4" d="M-398.2,445.5c0-0.1,0-0.3,0.2-0.7c0.1-0.2,0.1-0.4,0.2-0.7h0.1c0,0,0.3-0.1,0.7-0.2l0,0
		c0.1,0.1,0.2,0.2,0.2,0.2c-0.1,0.2-0.3,0.3-0.4,0.5C-397.6,445.2-397.8,445.4-398.2,445.5z"/>
	<path class="st0" d="M-396.8,424.5c0,0,2.2-0.2,2.7,0.7c0.5,0.9,1.7,2.1,1.6,2.7c-0.2,0.6,1,3.2-0.5,2.9c-1.5-0.3-2.6-2.1-3-2.6
		c-0.4-0.6-2-2-1.7-2.6C-397.4,425-396.8,424.5-396.8,424.5z"/>
	<path class="st1" d="M-393.1,430c-0.9-0.3-1.7-1.3-2.1-1.9c-0.1-0.1-0.2-0.3-0.3-0.4c-0.1-0.1-0.3-0.3-0.5-0.5
		c-0.3-0.3-0.9-1-1.1-1.4c0.1-0.2,0.3-0.4,0.4-0.5c0.1,0,0.2,0,0.3,0c0.9,0,1.4,0.2,1.4,0.3c0.2,0.4,0.5,0.9,0.9,1.3
		c0.2,0.3,0.6,0.8,0.6,1c-0.1,0.3,0,0.7,0.1,1.2C-393.2,429.2-393.1,429.7-393.1,430z"/>
	<path class="st2" d="M-394.2,428c-0.1-0.2-0.2-0.3-0.3-0.5c-0.1-0.2-0.2-0.3-0.3-0.4c-0.1-0.1-0.3-0.3-0.5-0.6
		c-0.2-0.2-0.3-0.4-0.5-0.5c0.1,0,0.2,0,0.3,0.1c0.2,0.4,0.5,0.8,0.8,1.2C-394.5,427.5-394.3,427.8-394.2,428L-394.2,428z"/>
	<path class="st3" d="M-394.2,428c-0.1-0.2-0.2-0.3-0.3-0.5c-0.1-0.2-0.2-0.3-0.3-0.4c-0.1-0.1-0.3-0.3-0.5-0.6
		c-0.2-0.2-0.3-0.4-0.5-0.5c0.1,0,0.2,0,0.3,0.1c0.2,0.4,0.5,0.8,0.8,1.2C-394.5,427.5-394.3,427.8-394.2,428L-394.2,428z"/>
	<path class="st4" d="M-394.2,428c-0.1-0.2-0.2-0.3-0.3-0.5c-0.1-0.2-0.2-0.3-0.3-0.4c-0.1-0.1-0.3-0.3-0.5-0.6
		c-0.2-0.2-0.3-0.4-0.5-0.5c0.1,0,0.2,0,0.3,0.1c0.2,0.4,0.5,0.8,0.8,1.2C-394.5,427.5-394.3,427.8-394.2,428L-394.2,428z"/>
	<path class="st0" d="M-402,434.9c0,0-0.7,0.5-0.7,0.8c0,0.3,0.1,0.8-0.5,0.8c-0.6,0-0.7,0.3-0.9-0.3c-0.2-0.6-1.3-1.5-0.6-1.8
		c0.7-0.3,1-0.9,1.9-0.8c0.9,0.1,1,0.9,1,0.9L-402,434.9z"/>
	<path class="st1" d="M-403.6,435.7c-0.1-0.2-0.2-0.4-0.4-0.6c0-0.1-0.1-0.1-0.1-0.2c0.1-0.1,0.2-0.1,0.3-0.2
		c0.3-0.2,0.4-0.3,0.6-0.3h0.1c0.1,0,0.2,0,0.2,0.1C-403.2,434.8-403.5,435.2-403.6,435.7L-403.6,435.7z"/>
	<path class="st2" d="M-403.6,435.7c-0.1-0.2-0.2-0.4-0.4-0.6c0-0.1-0.1-0.1-0.1-0.2c0.1-0.1,0.2-0.1,0.3-0.2
		c0.3-0.2,0.4-0.3,0.6-0.3h0.1c0.1,0,0.2,0,0.2,0.1C-403.2,434.8-403.5,435.2-403.6,435.7L-403.6,435.7z"/>
	<path class="st3" d="M-403.6,435.7c-0.1-0.2-0.2-0.4-0.4-0.6c0-0.1-0.1-0.1-0.1-0.2c0.1-0.1,0.2-0.1,0.3-0.2
		c0.3-0.2,0.4-0.3,0.6-0.3h0.1c0.1,0,0.2,0,0.2,0.1C-403.2,434.8-403.5,435.2-403.6,435.7L-403.6,435.7z"/>
	<path class="st4" d="M-403.6,435.7c-0.1-0.2-0.2-0.4-0.4-0.6c0-0.1-0.1-0.1-0.1-0.2c0.1-0.1,0.2-0.1,0.3-0.2
		c0.3-0.2,0.4-0.3,0.6-0.3h0.1c0.1,0,0.2,0,0.2,0.1C-403.2,434.8-403.5,435.2-403.6,435.7L-403.6,435.7z"/>
	<path class="st0" d="M-403.2,448.7c0,0-2.1-1.6-1.1-3.6s2.2-4.5,2.9-3.1c0.7,1.3,0.2,3.3,0.5,4.2c0.3,0.9,0.2,2.2-0.7,2.7
		C-402.5,449.3-403.2,448.7-403.2,448.7z"/>
	<path class="st1" d="M-402.3,448.1c-0.2,0-0.4-0.1-0.4-0.1c-0.1,0-1.5-1.2-0.9-2.6c0.3-0.7,1.1-2.2,1.6-2.8c0.2,0.6,0.2,1.4,0.2,2
		c0,0.7,0,1.3,0.2,1.8c0.2,0.5,0.1,1.4-0.3,1.6C-402,448.1-402.2,448.1-402.3,448.1z"/>
	<path class="st2" d="M-402.3,447.3c-0.2-0.2-0.8-0.8-0.5-1.5c0.1-0.1,0.1-0.3,0.2-0.5c0,0.5,0.1,1,0.2,1.4
		C-402.3,446.9-402.3,447.1-402.3,447.3z"/>
	<path class="st3" d="M-402.3,447.3c-0.2-0.2-0.8-0.8-0.5-1.5c0.1-0.1,0.1-0.3,0.2-0.5c0,0.5,0.1,1,0.2,1.4
		C-402.3,446.9-402.3,447.1-402.3,447.3z"/>
	<path class="st4" d="M-402.3,447.3c-0.2-0.2-0.8-0.8-0.5-1.5c0.1-0.1,0.1-0.3,0.2-0.5c0,0.5,0.1,1,0.2,1.4
		C-402.3,446.9-402.3,447.1-402.3,447.3z"/>
</g>
</svg>
