<?xml version="1.0" encoding="utf-8"?>
<!-- Generator: Adobe Illustrator 19.1.0, SVG Export Plug-In . SVG Version: 6.00 Build 0)  -->
<svg version="1.1" id="Layer_1" xmlns="http://www.w3.org/2000/svg" xmlns:xlink="http://www.w3.org/1999/xlink" x="0px" y="0px"
	 viewBox="0 0 40.4 42.5" enable-background="new 0 0 40.4 42.5" xml:space="preserve" width="40.4px" height="42.5px">
<path fill="#413F51" d="M10,5.2c0,0,5.9-4.4,12.2-1s5.4,2.6,6.4,4.4s0.5,2.9,3.3,5.1s1.4,8.2,2.1,11.8c0.4,2.2-4.5,4.3-3.6,6.8
	c0.9,2.5-7,8.3-11.7,6c-4.7-2.3-5.4-3.5-6.4-5c-1.5-2.2-2-9.5-4.6-11.2c-2.6-1.7-3.7-7.8-1.9-9.8s0.9-2.8,1.5-4.4S10,5.2,10,5.2z"/>
</svg>
