<?xml version="1.0" encoding="utf-8"?>
<!-- Generator: Adobe Illustrator 19.1.0, SVG Export Plug-In . SVG Version: 6.00 Build 0)  -->
<svg version="1.1" id="Layer_1" xmlns="http://www.w3.org/2000/svg" xmlns:xlink="http://www.w3.org/1999/xlink" x="0px" y="0px"
	 width="41.8px" height="23.9px" viewBox="-410 421.1 41.8 23.9" style="enable-background:new -410 421.1 41.8 23.9;"
	 xml:space="preserve">
<style type="text/css">
	.st0{fill:#666666;}
	.st1{fill:#6D6D6D;}
	.st2{fill:#727272;}
	.st3{fill:#777777;}
	.st4{fill:#7C7C7C;}
	.st5{fill:#878787;}
	.st6{fill:#828282;}
	.st7{fill:#757575;}
</style>
<g>
	<path class="st0" d="M-401.4,421.4c0,0-5.3,1.8-4,4.4c1.3,2.6,4.9,7.2,9.6,6.4c4.7-0.8,13-9,8.6-10.4
		C-391.6,420.4-401.4,421.4-401.4,421.4z"/>
	<path class="st1" d="M-396.8,431.5c-3.8,0-6.7-3.8-7.9-6.1c-0.1-0.3-0.1-0.5,0-0.8c0.5-1.1,2.6-2.1,3.5-2.4c0.6,0,3.4-0.3,6.5-0.3
		c3.2,0,5.7,0.2,7.3,0.7c0.7,0.2,0.7,0.5,0.7,0.8c-0.2,2.3-5.6,7.4-9.1,8C-396.2,431.5-396.5,431.5-396.8,431.5L-396.8,431.5z"/>
	<path class="st2" d="M-396.8,430.7c-3.4,0-6.2-3.7-7.1-5.7c0-0.1,0-0.1,0-0.1c0.2-0.6,1.7-1.4,2.9-1.9c0.6-0.1,3.4-0.3,6.4-0.3
		c3.1,0,5.6,0.2,7,0.7h0.1c-0.3,2-5.1,6.7-8.4,7.2C-396.3,430.7-396.6,430.7-396.8,430.7L-396.8,430.7z"/>
	<path class="st3" d="M-396.8,429.8c-2.6,0-5.1-2.7-6.2-4.8c0.4-0.3,1.2-0.8,2.1-1.2c0.7-0.1,3.4-0.3,6.2-0.3c3,0,4.9,0.2,6,0.4
		c-1.1,1.9-4.8,5.4-7.5,5.8C-396.4,429.8-396.6,429.8-396.8,429.8L-396.8,429.8z"/>
	<path class="st4" d="M-396.8,429c-1.9,0-3.9-1.9-5.1-3.8c0.3-0.1,0.7-0.4,1.2-0.6c0.9-0.1,3.4-0.2,6-0.2c2.1,0,3.5,0.1,4.6,0.2
		c-1.5,1.8-4.3,4.1-6.2,4.4C-396.5,429-396.6,429-396.8,429L-396.8,429z"/>
	<path class="st5" d="M-396.8,428.2c-1.3,0-2.8-1.2-3.9-2.7c0.1,0,0.1-0.1,0.2-0.1c1-0.1,3.4-0.2,5.8-0.2c1,0,2,0,2.8,0.1
		c-1.4,1.4-3.3,2.7-4.6,2.9C-396.6,428.2-396.7,428.2-396.8,428.2L-396.8,428.2z"/>
	<path class="st0" d="M-395.9,434.9c0,0-1.6,3.2,1.2,4.1c2.8,0.8,8.3,1.8,10.5-0.5c2.2-2.3,0.6-10.1-3-9
		C-390.8,430.6-395.9,434.9-395.9,434.9z"/>
	<path class="st1" d="M-388.8,439.1c-2.5,0-5-0.7-5.7-0.9c-0.5-0.1-0.8-0.4-0.9-0.7c-0.3-0.6,0-1.6,0.2-2.1c0.8-0.7,5.2-4.3,8.2-5.2
		c0.1,0,0.3-0.1,0.4-0.1c1,0,1.6,1.2,1.9,1.8c0.9,2.1,0.8,5-0.1,6C-385.6,438.7-386.9,439.1-388.8,439.1L-388.8,439.1z"/>
	<path class="st2" d="M-388.8,438.3c-2.4,0-4.7-0.7-5.4-0.9c-0.2-0.1-0.4-0.2-0.4-0.3c-0.1-0.3,0-0.8,0.1-1.2
		c2.3-1.9,5.6-4.2,7.8-4.9c0.1,0,0.1,0,0.2,0c0.3,0,0.8,0.5,1.1,1.3c0.8,1.9,0.7,4.4,0,5.1C-386,437.9-387.2,438.3-388.8,438.3
		L-388.8,438.3z"/>
	<path class="st3" d="M-388.8,437.4c-2.1,0-4.3-0.6-5.1-0.8c0-0.1,0-0.2,0.1-0.3c2.1-1.7,5.1-3.9,7.2-4.5c0.1,0.1,0.3,0.4,0.4,0.7
		c0.7,1.7,0.5,3.9,0.2,4.2C-386.3,437.1-387.2,437.4-388.8,437.4L-388.8,437.4z"/>
	<path class="st4" d="M-388.8,436.6c-1.2,0-2.5-0.2-3.5-0.4c1.7-1.3,3.7-2.7,5.3-3.4l0,0c0.6,1.4,0.4,3.1,0.3,3.4
		C-386.8,436.3-387.4,436.6-388.8,436.6L-388.8,436.6z"/>
	<path class="st5" d="M-388.8,435.8c-0.4,0-0.9,0-1.4-0.1c1-0.7,1.9-1.3,2.7-1.7c0.1,0.7,0.1,1.3,0.1,1.7
		C-387.7,435.7-388.1,435.8-388.8,435.8L-388.8,435.8z"/>
	<path class="st0" d="M-384.5,424.9c0,0-1.8,0.6-0.9,2.1s0.9,2,2.3,2.9c1.4,0.9,3.3,1.3,4.6,0.3s1.7-1.5,2-3.3
		c0.3-1.8,1.1-2.8-2.5-3.2s-3.1-0.4-4.6,0.6S-384.5,424.9-384.5,424.9z"/>
	<path class="st1" d="M-380.4,430c-0.7,0-1.6-0.3-2.3-0.7c-0.9-0.6-1.1-0.9-1.5-1.8c-0.1-0.3-0.3-0.5-0.5-0.9
		c-0.1-0.1-0.2-0.3-0.1-0.5c0.1-0.2,0.3-0.3,0.5-0.4h0.1l0.1-0.1c0.1-0.1,0.4-0.2,0.9-0.6l0.5-0.3c0.5-0.4,0.6-0.4,1-0.4
		c0.4,0,1,0.1,2.1,0.2l0.5,0.1c1.6,0.2,1.9,0.5,2,0.6s0,0.6-0.1,1c0,0.2-0.1,0.5-0.1,0.8c-0.2,1.5-0.5,1.9-1.6,2.7
		C-379.4,429.9-379.9,430-380.4,430z"/>
	<path class="st2" d="M-380.4,429.2c-0.6,0-1.3-0.2-1.9-0.6c-0.8-0.5-0.8-0.6-1.3-1.5c-0.1-0.2-0.2-0.4-0.4-0.7l0.1-0.1
		c0.2-0.1,0.4-0.3,0.9-0.6l0.5-0.3c0.3-0.1,0.5-0.2,0.5-0.2s0,0,0.2,0c0.4,0,1,0.1,2,0.2l0.5,0.1c0.7,0.1,1,0.2,1.3,0.2
		c0,0.1,0,0.2-0.1,0.3c-0.1,0.3-0.1,0.5-0.1,0.8c-0.2,1.2-0.3,1.4-1.3,2.2C-379.8,429.1-380.1,429.2-380.4,429.2z"/>
	<path class="st3" d="M-380.4,428.4c-0.4,0-1-0.2-1.5-0.5c-0.5-0.3-0.5-0.3-0.9-1.1l0,0c0.1-0.1,1.1-0.7,1.1-0.7
		c0.4,0,1,0.1,1.8,0.2c0,0,0.8,0.1,0.9,0.1c0,0.1,0,0.2-0.1,0.4c-0.1,1-0.1,1-1,1.6C-380.1,428.3-380.2,428.4-380.4,428.4z"/>
	<path class="st4" d="M-380.4,427.5c-0.2,0-0.6-0.1-1-0.4c-0.2,0-0.3,0-0.3-0.1c0.1-0.1,0.2-0.1,0.2-0.1c0.4,0,0.9,0.1,1.5,0.1
		c0,0,0,0,0.1,0C-380,427.2-380.1,427.3-380.4,427.5z"/>
	<path class="st6" d="M-380.4,427.5c-0.2,0-0.6-0.1-1-0.4c-0.2,0-0.3,0-0.3-0.1c0.1-0.1,0.2-0.1,0.2-0.1c0.4,0,0.9,0.1,1.5,0.1
		c0,0,0,0,0.1,0C-380,427.2-380.1,427.3-380.4,427.5z"/>
	<path class="st0" d="M-403.8,439.7c0,0,3.9-1.6,6-0.8c2.1,0.8,5.8,1.4,6.2,2.2s5,3.1,1.8,3.7c-3.2,0.6-6.6-0.9-8.1-1.3
		c-1.5-0.4-6-1.1-6.3-2C-404.5,440.6-403.8,439.7-403.8,439.7z"/>
	<path class="st1" d="M-391.3,444.2c-1.9,0-3.8-0.6-5.2-1c-0.4-0.1-0.8-0.3-1.1-0.3c-0.3-0.1-0.8-0.2-1.4-0.3
		c-1.1-0.2-3.8-0.8-4.3-1.2c0-0.3,0.1-0.6,0.2-0.9c0.7-0.2,2.4-0.8,3.9-0.8c0.5,0,0.9,0.1,1.2,0.2c0.9,0.3,1.9,0.6,2.9,0.9
		c1,0.3,2.6,0.7,2.9,1c0.1,0.3,0.5,0.6,1.2,1.1c0.4,0.3,1.1,0.9,1.4,1.2c-0.1,0-0.2,0-0.3,0.1C-390.3,444.1-390.8,444.2-391.3,444.2
		z"/>
	<path class="st2" d="M-391.6,443.4c-1.7-0.1-3.4-0.6-4.7-1c-0.4-0.1-0.8-0.3-1.1-0.3c-0.3-0.1-0.8-0.2-1.4-0.3
		c-1.7-0.4-2.7-0.6-3.3-0.8c0.8-0.2,1.9-0.5,2.8-0.5c0.5,0,0.7,0.1,0.9,0.1c0.9,0.3,2,0.6,3,0.9c0.6,0.2,2.1,0.6,2.5,0.8
		C-392.6,442.6-392.2,442.9-391.6,443.4z"/>
	<path class="st3" d="M-391.6,443.4c-1.7-0.1-3.4-0.6-4.7-1c-0.4-0.1-0.8-0.3-1.1-0.3c-0.3-0.1-0.8-0.2-1.4-0.3
		c-1.7-0.4-2.7-0.6-3.3-0.8c0.8-0.2,1.9-0.5,2.8-0.5c0.5,0,0.7,0.1,0.9,0.1c0.9,0.3,2,0.6,3,0.9c0.6,0.2,2.1,0.6,2.5,0.8
		C-392.6,442.6-392.2,442.9-391.6,443.4z"/>
	<path class="st4" d="M-391.6,443.4c-1.7-0.1-3.4-0.6-4.7-1c-0.4-0.1-0.8-0.3-1.1-0.3c-0.3-0.1-0.8-0.2-1.4-0.3
		c-1.7-0.4-2.7-0.6-3.3-0.8c0.8-0.2,1.9-0.5,2.8-0.5c0.5,0,0.7,0.1,0.9,0.1c0.9,0.3,2,0.6,3,0.9c0.6,0.2,2.1,0.6,2.5,0.8
		C-392.6,442.6-392.2,442.9-391.6,443.4z"/>
	<path class="st7" d="M-391.6,443.4c-1.7-0.1-3.4-0.6-4.7-1c-0.4-0.1-0.8-0.3-1.1-0.3c-0.3-0.1-0.8-0.2-1.4-0.3
		c-1.7-0.4-2.7-0.6-3.3-0.8c0.8-0.2,1.9-0.5,2.8-0.5c0.5,0,0.7,0.1,0.9,0.1c0.9,0.3,2,0.6,3,0.9c0.6,0.2,2.1,0.6,2.5,0.8
		C-392.6,442.6-392.2,442.9-391.6,443.4z"/>
	<path class="st0" d="M-404.3,430c0,0,1.9,2.3,3.2,2.6c1.3,0.3,3.2,0.1,3.2,2s0.9,2.3-1.5,2.6c-2.4,0.3-6.6,3.1-7.7,0.9
		s-3.4-3.4-2.6-6c0.8-2.6,4-2.5,4-2.5L-404.3,430z"/>
	<path class="st1" d="M-405.7,438c-0.6,0-0.7-0.2-0.8-0.4c-0.4-0.8-0.9-1.4-1.4-2c-1-1.3-1.6-2.1-1.1-3.4c0.5-1.7,2.6-1.8,3-1.8
		l1.2,0.3c0.6,0.7,2.1,2.4,3.5,2.7c0.3,0.1,0.6,0.1,0.9,0.1c1.4,0.2,1.6,0.3,1.6,1c0,0.6,0.1,1,0.1,1.3c0,0.1,0,0.2,0,0.3
		c-0.1,0-0.4,0.1-1,0.2c-0.9,0.1-2,0.5-3,0.9S-404.9,438-405.7,438z"/>
	<path class="st2" d="M-405.7,437.2c-0.1,0-0.2,0-0.2,0c-0.4-0.8-0.9-1.5-1.4-2.1c-1-1.3-1.3-1.7-1-2.6c0.4-1.1,1.7-1.3,2.2-1.3
		l0.8,0.2c0.8,1,2.3,2.4,3.7,2.7c0.3,0.1,0.4,0.1,0.8,0.2c0.5,0.1,0.7,0.1,0.7,0.2l0,0c0,0.4,0.2,0.7,0.2,1l0,0
		c-1,0.1-2.1,0.5-3.2,0.9C-404,436.8-405,437.2-405.7,437.2z"/>
	<path class="st3" d="M-405.4,436.3c-0.4-0.7-0.8-1.2-1.2-1.7c-1-1.3-1-1.4-0.9-1.8c0.2-0.6,1-0.7,1.3-0.8l0.5,0.1
		c1,1.1,2.5,2.5,4,2.8c0.1,0,0.2,0,0.2,0.1c-0.6,0.2-1.1,0.4-1.7,0.6l-0.2,0.1C-404,435.9-404.8,436.2-405.4,436.3z"/>
	<path class="st4" d="M-405,435.4c-0.3-0.5-0.7-0.9-1-1.3c-0.6-0.7-0.7-1-0.8-1.1c0.1,0,0.2-0.1,0.5-0.2l0,0
		c0.8,0.9,1.6,1.6,2.4,2.1C-404.1,435.1-404.6,435.3-405,435.4z"/>
	<path class="st6" d="M-405,435.4c-0.3-0.5-0.7-0.9-1-1.3c-0.6-0.7-0.7-1-0.8-1.1c0.1,0,0.2-0.1,0.5-0.2l0,0
		c0.8,0.9,1.6,1.6,2.4,2.1C-404.1,435.1-404.6,435.3-405,435.4z"/>
	<path class="st0" d="M-374.9,440.9c0,0-5.8-0.6-6.4-3.5c-0.6-2.9-1.3-6.4,1.7-5.3s4.4,3.7,6.1,4.5s3,2.4,1.9,3.5
		C-372.9,441.1-374.9,440.9-374.9,440.9z"/>
	<path class="st1" d="M-374.4,440c-0.2,0-0.4,0-0.4,0c-1.4-0.1-5.3-1-5.7-2.9c-0.3-1.3-0.8-3.9-0.3-4.5c0,0,0.1-0.1,0.2-0.1
		s0.3,0,0.7,0.2c1.6,0.6,2.7,1.7,3.7,2.7c0.7,0.7,1.5,1.4,2.3,1.8c1.1,0.5,1.7,1.3,1.8,1.7c0,0.1,0,0.3-0.2,0.4
		C-372.9,440-374,440-374.4,440z"/>
	<path class="st2" d="M-374.4,439.2c-0.2,0-0.3,0-0.3,0c-1.9-0.2-4.8-1.1-5-2.2c-0.4-2-0.5-3-0.5-3.5l0,0c1.4,0.5,2.5,1.5,3.4,2.5
		c0.8,0.8,1.6,1.5,2.5,2c0.7,0.3,1.1,0.7,1.2,0.9C-373.4,439.1-374,439.2-374.4,439.2z"/>
	<path class="st3" d="M-375.4,438.3c-1.8-0.3-3.4-1.1-3.5-1.5c-0.2-0.8-0.3-1.4-0.3-1.9c0.7,0.5,1.3,1.1,1.9,1.7
		C-376.7,437.2-376.1,437.8-375.4,438.3z"/>
	<path class="st4" d="M-375.4,438.3c-1.8-0.3-3.4-1.1-3.5-1.5c-0.2-0.8-0.3-1.4-0.3-1.9c0.7,0.5,1.3,1.1,1.9,1.7
		C-376.7,437.2-376.1,437.8-375.4,438.3z"/>
	<path class="st6" d="M-375.4,438.3c-1.8-0.3-3.4-1.1-3.5-1.5c-0.2-0.8-0.3-1.4-0.3-1.9c0.7,0.5,1.3,1.1,1.9,1.7
		C-376.7,437.2-376.1,437.8-375.4,438.3z"/>
	<path class="st0" d="M-375.7,429.7c0,0,3.6-0.3,4.4,0.8c0.8,1.1,2.8,2.4,2.6,3.1c-0.2,0.7,1.6,3.6-0.9,3.3c-2.5-0.3-4.2-2.4-4.9-3
		c-0.7-0.6-3.2-2.2-2.7-3C-376.7,430.3-375.7,429.7-375.7,429.7z"/>
	<path class="st1" d="M-369.2,436.2c-0.1,0-0.1,0-0.2,0c-1.8-0.2-3.2-1.6-4.1-2.4c-0.2-0.2-0.3-0.3-0.4-0.4
		c-0.2-0.1-0.4-0.3-0.7-0.6c-0.4-0.3-1.4-1.1-1.7-1.5c0.3-0.3,0.7-0.6,0.9-0.7c0.2,0,0.4,0,0.7,0c1.9,0,2.7,0.3,2.8,0.5
		c0.4,0.5,0.9,1,1.4,1.4c0.4,0.3,0.9,0.8,1,1.1c-0.1,0.4,0.1,0.8,0.2,1.4c0.1,0.3,0.3,1,0.2,1.2C-369,436.2-369.1,436.2-369.2,436.2
		z"/>
	<path class="st2" d="M-370.1,435.2c-1.2-0.4-2.2-1.4-2.8-2c-0.2-0.2-0.3-0.3-0.5-0.4c-0.2-0.2-0.4-0.4-0.8-0.6
		c-0.4-0.3-0.7-0.6-1-0.8c0.1,0,0.3,0,0.4,0c1.4,0,2,0.2,2.2,0.3c0.4,0.5,0.9,1,1.4,1.5c0.2,0.2,0.5,0.5,0.8,0.7
		C-370.3,434.2-370.2,434.7-370.1,435.2L-370.1,435.2z"/>
	<path class="st3" d="M-370.1,435.2c-1.2-0.4-2.2-1.4-2.8-2c-0.2-0.2-0.3-0.3-0.5-0.4c-0.2-0.2-0.4-0.4-0.8-0.6
		c-0.4-0.3-0.7-0.6-1-0.8c0.1,0,0.3,0,0.4,0c1.4,0,2,0.2,2.2,0.3c0.4,0.5,0.9,1,1.4,1.5c0.2,0.2,0.5,0.5,0.8,0.7
		C-370.3,434.2-370.2,434.7-370.1,435.2L-370.1,435.2z"/>
	<path class="st4" d="M-370.1,435.2c-1.2-0.4-2.2-1.4-2.8-2c-0.2-0.2-0.3-0.3-0.5-0.4c-0.2-0.2-0.4-0.4-0.8-0.6
		c-0.4-0.3-0.7-0.6-1-0.8c0.1,0,0.3,0,0.4,0c1.4,0,2,0.2,2.2,0.3c0.4,0.5,0.9,1,1.4,1.5c0.2,0.2,0.5,0.5,0.8,0.7
		C-370.3,434.2-370.2,434.7-370.1,435.2L-370.1,435.2z"/>
	<path class="st6" d="M-370.1,435.2c-1.2-0.4-2.2-1.4-2.8-2c-0.2-0.2-0.3-0.3-0.5-0.4c-0.2-0.2-0.4-0.4-0.8-0.6
		c-0.4-0.3-0.7-0.6-1-0.8c0.1,0,0.3,0,0.4,0c1.4,0,2,0.2,2.2,0.3c0.4,0.5,0.9,1,1.4,1.5c0.2,0.2,0.5,0.5,0.8,0.7
		C-370.3,434.2-370.2,434.7-370.1,435.2L-370.1,435.2z"/>
	<path class="st0" d="M-384.1,441.7c0,0-1.1,0.6-1.2,0.9c-0.1,0.4,0.2,0.9-0.9,0.9c-1,0-1.2,0.3-1.5-0.4c-0.3-0.7-2.2-1.7-1-2.1
		c1.1-0.4,1.6-1,3.1-0.9c1.5,0.2,1.6,1,1.6,1L-384.1,441.7z"/>
	<path class="st1" d="M-386.9,442.8c-0.2-0.3-0.5-0.6-0.8-0.9c-0.1,0-0.1-0.1-0.2-0.2c0.2-0.1,0.4-0.2,0.5-0.2
		c0.5-0.2,0.8-0.4,1.3-0.4c0.1,0,0.2,0,0.3,0c0.3,0,0.6,0.1,0.7,0.2c-1,0.6-1.1,1.1-1.1,1.2s0,0.2,0,0.2s0,0-0.1,0
		C-386.5,442.7-386.7,442.7-386.9,442.8L-386.9,442.8z"/>
	<path class="st2" d="M-386.9,442.8c-0.2-0.3-0.5-0.6-0.8-0.9c-0.1,0-0.1-0.1-0.2-0.2c0.2-0.1,0.4-0.2,0.5-0.2
		c0.5-0.2,0.8-0.4,1.3-0.4c0.1,0,0.2,0,0.3,0c0.3,0,0.6,0.1,0.7,0.2c-1,0.6-1.1,1.1-1.1,1.2s0,0.2,0,0.2s0,0-0.1,0
		C-386.5,442.7-386.7,442.7-386.9,442.8L-386.9,442.8z"/>
	<path class="st3" d="M-386.9,442.8c-0.2-0.3-0.5-0.6-0.8-0.9c-0.1,0-0.1-0.1-0.2-0.2c0.2-0.1,0.4-0.2,0.5-0.2
		c0.5-0.2,0.8-0.4,1.3-0.4c0.1,0,0.2,0,0.3,0c0.3,0,0.6,0.1,0.7,0.2c-1,0.6-1.1,1.1-1.1,1.2s0,0.2,0,0.2s0,0-0.1,0
		C-386.5,442.7-386.7,442.7-386.9,442.8L-386.9,442.8z"/>
	<path class="st4" d="M-386.9,442.8c-0.2-0.3-0.5-0.6-0.8-0.9c-0.1,0-0.1-0.1-0.2-0.2c0.2-0.1,0.4-0.2,0.5-0.2
		c0.5-0.2,0.8-0.4,1.3-0.4c0.1,0,0.2,0,0.3,0c0.3,0,0.6,0.1,0.7,0.2c-1,0.6-1.1,1.1-1.1,1.2s0,0.2,0,0.2s0,0-0.1,0
		C-386.5,442.7-386.7,442.7-386.9,442.8L-386.9,442.8z"/>
	<path class="st6" d="M-386.9,442.8c-0.2-0.3-0.5-0.6-0.8-0.9c-0.1,0-0.1-0.1-0.2-0.2c0.2-0.1,0.4-0.2,0.5-0.2
		c0.5-0.2,0.8-0.4,1.3-0.4c0.1,0,0.2,0,0.3,0c0.3,0,0.6,0.1,0.7,0.2c-1,0.6-1.1,1.1-1.1,1.2s0,0.2,0,0.2s0,0-0.1,0
		C-386.5,442.7-386.7,442.7-386.9,442.8L-386.9,442.8z"/>
	<path class="st0" d="M-384.5,443.4c0,0,1.7-1,1.7-1.4c0-0.5-0.5-1,1.2-1.3c1.7-0.3,1.9-0.7,2.6,0.1c0.7,0.7,3.9,1.6,2.2,2.3
		c-1.8,0.7-2.4,1.7-4.9,1.8c-2.4,0.2-2.9-0.9-2.9-0.9L-384.5,443.4z"/>
	<path class="st1" d="M-382.2,444c-0.7,0-1.1-0.1-1.3-0.2c1.6-1,1.6-1.5,1.6-1.8c0-0.2,0-0.3,0-0.4c0.1,0,0.3-0.1,0.6-0.1
		c0.5-0.1,0.8-0.2,1.1-0.2c0.2-0.1,0.5-0.1,0.6-0.1c0,0,0.1,0,0.2,0.2c0.3,0.4,0.9,0.6,1.5,0.9c0.1,0.1,0.3,0.2,0.5,0.3
		c-0.4,0.2-0.8,0.4-1.1,0.6c-0.9,0.5-1.6,0.9-3.1,1C-381.9,444-382.1,444-382.2,444z"/>
	<path class="st2" d="M-381.5,443.2c0.3-0.4,0.4-0.7,0.4-0.9c0.4-0.1,0.7-0.2,1-0.2h0.1c0.2,0.2,0.4,0.3,0.7,0.5
		C-380,442.8-380.5,443.1-381.5,443.2z"/>
	<path class="st3" d="M-381.5,443.2c0.3-0.4,0.4-0.7,0.4-0.9c0.4-0.1,0.7-0.2,1-0.2h0.1c0.2,0.2,0.4,0.3,0.7,0.5
		C-380,442.8-380.5,443.1-381.5,443.2z"/>
	<path class="st4" d="M-381.5,443.2c0.3-0.4,0.4-0.7,0.4-0.9c0.4-0.1,0.7-0.2,1-0.2h0.1c0.2,0.2,0.4,0.3,0.7,0.5
		C-380,442.8-380.5,443.1-381.5,443.2z"/>
	<path class="st6" d="M-381.5,443.2c0.3-0.4,0.4-0.7,0.4-0.9c0.4-0.1,0.7-0.2,1-0.2h0.1c0.2,0.2,0.4,0.3,0.7,0.5
		C-380,442.8-380.5,443.1-381.5,443.2z"/>
</g>
</svg>
