<?xml version="1.0" encoding="utf-8"?>
<!-- Generator: Adobe Illustrator 19.1.0, SVG Export Plug-In . SVG Version: 6.00 Build 0)  -->
<svg version="1.1" id="Layer_1" xmlns="http://www.w3.org/2000/svg" xmlns:xlink="http://www.w3.org/1999/xlink" x="0px" y="0px"
	 viewBox="0 0 41.8 23.9" enable-background="new 0 0 41.8 23.9" xml:space="preserve">
<g>
	<path fill="#666666" d="M8.6,0.3c0,0-5.3,1.8-4,4.4s4.9,7.2,9.6,6.4s13-9,8.6-10.4S8.6,0.3,8.6,0.3z"/>
	<path fill="#6D6D6D" d="M13.2,10.4c-3.8,0-6.7-3.8-7.9-6.1C5.2,4,5.2,3.8,5.3,3.5c0.5-1.1,2.6-2.1,3.5-2.4c0.6,0,3.4-0.3,6.5-0.3
		c3.2,0,5.7,0.2,7.3,0.7c0.7,0.2,0.7,0.5,0.7,0.8c-0.2,2.3-5.6,7.4-9.1,8C13.8,10.4,13.5,10.4,13.2,10.4L13.2,10.4z"/>
	<path fill="#727272" d="M13.2,9.6C9.8,9.6,7,5.9,6.1,3.9c0-0.1,0-0.1,0-0.1c0.2-0.6,1.7-1.4,2.9-1.9c0.6-0.1,3.4-0.3,6.4-0.3
		c3.1,0,5.6,0.2,7,0.7c0,0,0.1,0,0.1,0c-0.3,2-5.1,6.7-8.4,7.2C13.7,9.6,13.4,9.6,13.2,9.6L13.2,9.6z"/>
	<path fill="#777777" d="M13.2,8.7C10.6,8.7,8.1,6,7,3.9c0.4-0.3,1.2-0.8,2.1-1.2c0.7-0.1,3.4-0.3,6.2-0.3c3,0,4.9,0.2,6,0.4
		c-1.1,1.9-4.8,5.4-7.5,5.8C13.6,8.7,13.4,8.7,13.2,8.7L13.2,8.7z"/>
	<path fill="#7C7C7C" d="M13.2,7.9c-1.9,0-3.9-1.9-5.1-3.8C8.4,4,8.8,3.7,9.3,3.5c0.9-0.1,3.4-0.2,6-0.2c2.1,0,3.5,0.1,4.6,0.2
		c-1.5,1.8-4.3,4.1-6.2,4.4C13.5,7.9,13.4,7.9,13.2,7.9L13.2,7.9z"/>
	<path fill="#878787" d="M13.2,7.1c-1.3,0-2.8-1.2-3.9-2.7c0.1,0,0.1-0.1,0.2-0.1c1-0.1,3.4-0.2,5.8-0.2c1,0,2,0,2.8,0.1
		c-1.4,1.4-3.3,2.7-4.6,2.9C13.4,7.1,13.3,7.1,13.2,7.1L13.2,7.1z"/>
	<path fill="#666666" d="M14.1,13.8c0,0-1.6,3.2,1.2,4.1c2.8,0.8,8.3,1.8,10.5-0.5s0.6-10.1-3-9S14.1,13.8,14.1,13.8z"/>
	<path fill="#6D6D6D" d="M21.2,18c-2.5,0-5-0.7-5.7-0.9c-0.5-0.1-0.8-0.4-0.9-0.7c-0.3-0.6,0-1.6,0.2-2.1c0.8-0.7,5.2-4.3,8.2-5.2
		c0.1,0,0.3-0.1,0.4-0.1c1,0,1.6,1.2,1.9,1.8c0.9,2.1,0.8,5-0.1,6C24.4,17.6,23.1,18,21.2,18L21.2,18z"/>
	<path fill="#727272" d="M21.2,17.2c-2.4,0-4.7-0.7-5.4-0.9c-0.2-0.1-0.4-0.2-0.4-0.3c-0.1-0.3,0-0.8,0.1-1.2
		c2.3-1.9,5.6-4.2,7.8-4.9c0.1,0,0.1,0,0.2,0c0.3,0,0.8,0.5,1.1,1.3c0.8,1.9,0.7,4.4,0,5.1C24,16.8,22.8,17.2,21.2,17.2L21.2,17.2z"
		/>
	<path fill="#777777" d="M21.2,16.3c-2.1,0-4.3-0.6-5.1-0.8c0-0.1,0-0.2,0.1-0.3c2.1-1.7,5.1-3.9,7.2-4.5c0.1,0.1,0.3,0.4,0.4,0.7
		c0.7,1.7,0.5,3.9,0.2,4.2C23.7,16,22.8,16.3,21.2,16.3L21.2,16.3z"/>
	<path fill="#7C7C7C" d="M21.2,15.5c-1.2,0-2.5-0.2-3.5-0.4c1.7-1.3,3.7-2.7,5.3-3.4c0,0,0,0,0,0c0.6,1.4,0.4,3.1,0.3,3.4
		C23.2,15.2,22.6,15.5,21.2,15.5L21.2,15.5z"/>
	<path fill="#878787" d="M21.2,14.7c-0.4,0-0.9,0-1.4-0.1c1-0.7,1.9-1.3,2.7-1.7c0.1,0.7,0.1,1.3,0.1,1.7
		C22.3,14.6,21.9,14.7,21.2,14.7L21.2,14.7z"/>
	<path fill="#666666" d="M25.5,3.8c0,0-1.8,0.6-0.9,2.1c0.9,1.5,0.9,2,2.3,2.9c1.4,0.9,3.3,1.3,4.6,0.3c1.3-1,1.7-1.5,2-3.3
		s1.1-2.8-2.5-3.2s-3.1-0.4-4.6,0.6S25.5,3.8,25.5,3.8z"/>
	<path fill="#6D6D6D" d="M29.6,8.9c-0.7,0-1.6-0.3-2.3-0.7c-0.9-0.6-1.1-0.9-1.5-1.8c-0.1-0.3-0.3-0.5-0.5-0.9
		c-0.1-0.1-0.2-0.3-0.1-0.5c0.1-0.2,0.3-0.3,0.5-0.4l0.1,0l0.1-0.1c0.1-0.1,0.4-0.2,0.9-0.6l0.5-0.3c0.5-0.4,0.6-0.4,1-0.4
		c0.4,0,1,0.1,2.1,0.2l0.5,0.1c1.6,0.2,1.9,0.5,2,0.6c0.1,0.1,0,0.6-0.1,1c0,0.2-0.1,0.5-0.1,0.8c-0.2,1.5-0.5,1.9-1.6,2.7
		C30.6,8.8,30.1,8.9,29.6,8.9z"/>
	<path fill="#727272" d="M29.6,8.1c-0.6,0-1.3-0.2-1.9-0.6C26.9,7,26.9,6.9,26.4,6c-0.1-0.2-0.2-0.4-0.4-0.7l0.1-0.1
		c0.2-0.1,0.4-0.3,0.9-0.6l0.5-0.3C27.8,4.2,28,4.1,28,4.1c0,0,0,0,0.2,0c0.4,0,1,0.1,2,0.2l0.5,0.1c0.7,0.1,1,0.2,1.3,0.2
		c0,0.1,0,0.2-0.1,0.3c-0.1,0.3-0.1,0.5-0.1,0.8c-0.2,1.2-0.3,1.4-1.3,2.2C30.2,8,29.9,8.1,29.6,8.1z"/>
	<path fill="#777777" d="M29.6,7.3c-0.4,0-1-0.2-1.5-0.5c-0.5-0.3-0.5-0.3-0.9-1.1c0,0,0,0,0,0c0.1-0.1,1.1-0.7,1.1-0.7
		c0.4,0,1,0.1,1.8,0.2c0,0,0.8,0.1,0.9,0.1c0,0.1,0,0.2-0.1,0.4c-0.1,1-0.1,1-1,1.6C29.9,7.2,29.8,7.3,29.6,7.3z"/>
	<path fill="#7C7C7C" d="M29.6,6.4c-0.2,0-0.6-0.1-1-0.4C28.4,6,28.3,6,28.3,5.9c0.1-0.1,0.2-0.1,0.2-0.1c0.4,0,0.9,0.1,1.5,0.1
		c0,0,0,0,0.1,0C30,6.1,29.9,6.2,29.6,6.4z"/>
	<path fill="#828282" d="M29.6,6.4c-0.2,0-0.6-0.1-1-0.4C28.4,6,28.3,6,28.3,5.9c0.1-0.1,0.2-0.1,0.2-0.1c0.4,0,0.9,0.1,1.5,0.1
		c0,0,0,0,0.1,0C30,6.1,29.9,6.2,29.6,6.4z"/>
	<path fill="#666666" d="M6.2,18.6c0,0,3.9-1.6,6-0.8c2.1,0.8,5.8,1.4,6.2,2.2c0.4,0.8,5,3.1,1.8,3.7c-3.2,0.6-6.6-0.9-8.1-1.3
		s-6-1.1-6.3-2S6.2,18.6,6.2,18.6z"/>
	<path fill="#6D6D6D" d="M18.7,23.1c-1.9,0-3.8-0.6-5.2-1c-0.4-0.1-0.8-0.3-1.1-0.3c-0.3-0.1-0.8-0.2-1.4-0.3
		c-1.1-0.2-3.8-0.8-4.3-1.2c0-0.3,0.1-0.6,0.2-0.9c0.7-0.2,2.4-0.8,3.9-0.8c0.5,0,0.9,0.1,1.2,0.2c0.9,0.3,1.9,0.6,2.9,0.9
		c1,0.3,2.6,0.7,2.9,1c0.1,0.3,0.5,0.6,1.2,1.1c0.4,0.3,1.1,0.9,1.4,1.2c-0.1,0-0.2,0-0.3,0.1C19.7,23,19.2,23.1,18.7,23.1z"/>
	<path fill="#727272" d="M18.4,22.3c-1.7-0.1-3.4-0.6-4.7-1c-0.4-0.1-0.8-0.3-1.1-0.3c-0.3-0.1-0.8-0.2-1.4-0.3
		c-1.7-0.4-2.7-0.6-3.3-0.8c0.8-0.2,1.9-0.5,2.8-0.5c0.5,0,0.7,0.1,0.9,0.1c0.9,0.3,2,0.6,3,0.9c0.6,0.2,2.1,0.6,2.5,0.8
		C17.4,21.5,17.8,21.8,18.4,22.3z"/>
	<path fill="#777777" d="M18.4,22.3c-1.7-0.1-3.4-0.6-4.7-1c-0.4-0.1-0.8-0.3-1.1-0.3c-0.3-0.1-0.8-0.2-1.4-0.3
		c-1.7-0.4-2.7-0.6-3.3-0.8c0.8-0.2,1.9-0.5,2.8-0.5c0.5,0,0.7,0.1,0.9,0.1c0.9,0.3,2,0.6,3,0.9c0.6,0.2,2.1,0.6,2.5,0.8
		C17.4,21.5,17.8,21.8,18.4,22.3z"/>
	<path fill="#7C7C7C" d="M18.4,22.3c-1.7-0.1-3.4-0.6-4.7-1c-0.4-0.1-0.8-0.3-1.1-0.3c-0.3-0.1-0.8-0.2-1.4-0.3
		c-1.7-0.4-2.7-0.6-3.3-0.8c0.8-0.2,1.9-0.5,2.8-0.5c0.5,0,0.7,0.1,0.9,0.1c0.9,0.3,2,0.6,3,0.9c0.6,0.2,2.1,0.6,2.5,0.8
		C17.4,21.5,17.8,21.8,18.4,22.3z"/>
	<path fill="#757575" d="M18.4,22.3c-1.7-0.1-3.4-0.6-4.7-1c-0.4-0.1-0.8-0.3-1.1-0.3c-0.3-0.1-0.8-0.2-1.4-0.3
		c-1.7-0.4-2.7-0.6-3.3-0.8c0.8-0.2,1.9-0.5,2.8-0.5c0.5,0,0.7,0.1,0.9,0.1c0.9,0.3,2,0.6,3,0.9c0.6,0.2,2.1,0.6,2.5,0.8
		C17.4,21.5,17.8,21.8,18.4,22.3z"/>
	<path fill="#666666" d="M5.7,8.9c0,0,1.9,2.3,3.2,2.6s3.2,0.1,3.2,2s0.9,2.3-1.5,2.6s-6.6,3.1-7.7,0.9s-3.4-3.4-2.6-6s4-2.5,4-2.5
		L5.7,8.9z"/>
	<path fill="#6D6D6D" d="M4.3,16.9c-0.6,0-0.7-0.2-0.8-0.4c-0.4-0.8-0.9-1.4-1.4-2c-1-1.3-1.6-2.1-1.1-3.4C1.5,9.4,3.6,9.3,4,9.3
		l1.2,0.3c0.6,0.7,2.1,2.4,3.5,2.7c0.3,0.1,0.6,0.1,0.9,0.1c1.4,0.2,1.6,0.3,1.6,1c0,0.6,0.1,1,0.1,1.3c0,0.1,0,0.2,0,0.3
		c-0.1,0-0.4,0.1-1,0.2c-0.9,0.1-2,0.5-3,0.9C6.3,16.5,5.1,16.9,4.3,16.9z"/>
	<path fill="#727272" d="M4.3,16.1c-0.1,0-0.2,0-0.2,0c-0.4-0.8-0.9-1.5-1.4-2.1c-1-1.3-1.3-1.7-1-2.6c0.4-1.1,1.7-1.3,2.2-1.3
		l0.8,0.2c0.8,1,2.3,2.4,3.7,2.7c0.3,0.1,0.4,0.1,0.8,0.2c0.5,0.1,0.7,0.1,0.7,0.2c0,0,0,0,0,0c0,0.4,0.2,0.7,0.2,1c0,0,0,0,0,0
		c-1,0.1-2.1,0.5-3.2,0.9C6,15.7,5,16.1,4.3,16.1z"/>
	<path fill="#777777" d="M4.6,15.2c-0.4-0.7-0.8-1.2-1.2-1.7c-1-1.3-1-1.4-0.9-1.8c0.2-0.6,1-0.7,1.3-0.8L4.3,11
		c1,1.1,2.5,2.5,4,2.8c0.1,0,0.2,0,0.2,0.1c-0.6,0.2-1.1,0.4-1.7,0.6l-0.2,0.1C6,14.8,5.2,15.1,4.6,15.2z"/>
	<path fill="#7C7C7C" d="M5,14.3c-0.3-0.5-0.7-0.9-1-1.3c-0.6-0.7-0.7-1-0.8-1.1c0.1,0,0.2-0.1,0.5-0.2l0,0c0.8,0.9,1.6,1.6,2.4,2.1
		C5.9,14,5.4,14.2,5,14.3z"/>
	<path fill="#828282" d="M5,14.3c-0.3-0.5-0.7-0.9-1-1.3c-0.6-0.7-0.7-1-0.8-1.1c0.1,0,0.2-0.1,0.5-0.2l0,0c0.8,0.9,1.6,1.6,2.4,2.1
		C5.9,14,5.4,14.2,5,14.3z"/>
	<path fill="#666666" d="M35.1,19.8c0,0-5.8-0.6-6.4-3.5s-1.3-6.4,1.7-5.3s4.4,3.7,6.1,4.5c1.7,0.8,3,2.4,1.9,3.5
		C37.1,20,35.1,19.8,35.1,19.8z"/>
	<path fill="#6D6D6D" d="M35.6,18.9c-0.2,0-0.4,0-0.4,0c-1.4-0.1-5.3-1-5.7-2.9c-0.3-1.3-0.8-3.9-0.3-4.5c0,0,0.1-0.1,0.2-0.1
		c0.1,0,0.3,0,0.7,0.2c1.6,0.6,2.7,1.7,3.7,2.7c0.7,0.7,1.5,1.4,2.3,1.8c1.1,0.5,1.7,1.3,1.8,1.7c0,0.1,0,0.3-0.2,0.4
		C37.1,18.9,36,18.9,35.6,18.9z"/>
	<path fill="#727272" d="M35.6,18.1c-0.2,0-0.3,0-0.3,0c-1.9-0.2-4.8-1.1-5-2.2c-0.4-2-0.5-3-0.5-3.5c0,0,0,0,0,0
		c1.4,0.5,2.5,1.5,3.4,2.5c0.8,0.8,1.6,1.5,2.5,2c0.7,0.3,1.1,0.7,1.2,0.9C36.6,18,36,18.1,35.6,18.1z"/>
	<path fill="#777777" d="M34.6,17.2c-1.8-0.3-3.4-1.1-3.5-1.5c-0.2-0.8-0.3-1.4-0.3-1.9c0.7,0.5,1.3,1.1,1.9,1.7
		C33.3,16.1,33.9,16.7,34.6,17.2z"/>
	<path fill="#7C7C7C" d="M34.6,17.2c-1.8-0.3-3.4-1.1-3.5-1.5c-0.2-0.8-0.3-1.4-0.3-1.9c0.7,0.5,1.3,1.1,1.9,1.7
		C33.3,16.1,33.9,16.7,34.6,17.2z"/>
	<path fill="#828282" d="M34.6,17.2c-1.8-0.3-3.4-1.1-3.5-1.5c-0.2-0.8-0.3-1.4-0.3-1.9c0.7,0.5,1.3,1.1,1.9,1.7
		C33.3,16.1,33.9,16.7,34.6,17.2z"/>
	<path fill="#666666" d="M34.3,8.6c0,0,3.6-0.3,4.4,0.8s2.8,2.4,2.6,3.1s1.6,3.6-0.9,3.3s-4.2-2.4-4.9-3s-3.2-2.2-2.7-3
		C33.3,9.2,34.3,8.6,34.3,8.6z"/>
	<path fill="#6D6D6D" d="M40.8,15.1c-0.1,0-0.1,0-0.2,0c-1.8-0.2-3.2-1.6-4.1-2.4c-0.2-0.2-0.3-0.3-0.4-0.4
		c-0.2-0.1-0.4-0.3-0.7-0.6c-0.4-0.3-1.4-1.1-1.7-1.5c0.3-0.3,0.7-0.6,0.9-0.7c0.2,0,0.4,0,0.7,0c1.9,0,2.7,0.3,2.8,0.5
		c0.4,0.5,0.9,1,1.4,1.4c0.4,0.3,0.9,0.8,1,1.1c-0.1,0.4,0.1,0.8,0.2,1.4c0.1,0.3,0.3,1,0.2,1.2C41,15.1,40.9,15.1,40.8,15.1z"/>
	<path fill="#727272" d="M39.9,14.1c-1.2-0.4-2.2-1.4-2.8-2c-0.2-0.2-0.3-0.3-0.5-0.4c-0.2-0.2-0.4-0.4-0.8-0.6
		c-0.4-0.3-0.7-0.6-1-0.8c0.1,0,0.3,0,0.4,0c1.4,0,2,0.2,2.2,0.3c0.4,0.5,0.9,1,1.4,1.5c0.2,0.2,0.5,0.5,0.8,0.7
		C39.7,13.1,39.8,13.6,39.9,14.1C39.9,14.1,39.9,14.1,39.9,14.1z"/>
	<path fill="#777777" d="M39.9,14.1c-1.2-0.4-2.2-1.4-2.8-2c-0.2-0.2-0.3-0.3-0.5-0.4c-0.2-0.2-0.4-0.4-0.8-0.6
		c-0.4-0.3-0.7-0.6-1-0.8c0.1,0,0.3,0,0.4,0c1.4,0,2,0.2,2.2,0.3c0.4,0.5,0.9,1,1.4,1.5c0.2,0.2,0.5,0.5,0.8,0.7
		C39.7,13.1,39.8,13.6,39.9,14.1C39.9,14.1,39.9,14.1,39.9,14.1z"/>
	<path fill="#7C7C7C" d="M39.9,14.1c-1.2-0.4-2.2-1.4-2.8-2c-0.2-0.2-0.3-0.3-0.5-0.4c-0.2-0.2-0.4-0.4-0.8-0.6
		c-0.4-0.3-0.7-0.6-1-0.8c0.1,0,0.3,0,0.4,0c1.4,0,2,0.2,2.2,0.3c0.4,0.5,0.9,1,1.4,1.5c0.2,0.2,0.5,0.5,0.8,0.7
		C39.7,13.1,39.8,13.6,39.9,14.1C39.9,14.1,39.9,14.1,39.9,14.1z"/>
	<path fill="#828282" d="M39.9,14.1c-1.2-0.4-2.2-1.4-2.8-2c-0.2-0.2-0.3-0.3-0.5-0.4c-0.2-0.2-0.4-0.4-0.8-0.6
		c-0.4-0.3-0.7-0.6-1-0.8c0.1,0,0.3,0,0.4,0c1.4,0,2,0.2,2.2,0.3c0.4,0.5,0.9,1,1.4,1.5c0.2,0.2,0.5,0.5,0.8,0.7
		C39.7,13.1,39.8,13.6,39.9,14.1C39.9,14.1,39.9,14.1,39.9,14.1z"/>
	<path fill="#666666" d="M25.9,20.6c0,0-1.1,0.6-1.2,0.9c-0.1,0.4,0.2,0.9-0.9,0.9c-1,0-1.2,0.3-1.5-0.4c-0.3-0.7-2.2-1.7-1-2.1
		c1.1-0.4,1.6-1,3.1-0.9c1.5,0.2,1.6,1,1.6,1L25.9,20.6z"/>
	<path fill="#6D6D6D" d="M23.1,21.7c-0.2-0.3-0.5-0.6-0.8-0.9c-0.1,0-0.1-0.1-0.2-0.2c0.2-0.1,0.4-0.2,0.5-0.2
		c0.5-0.2,0.8-0.4,1.3-0.4c0.1,0,0.2,0,0.3,0c0.3,0,0.6,0.1,0.7,0.2c-1,0.6-1.1,1.1-1.1,1.2c0,0.1,0,0.2,0,0.2c0,0,0,0-0.1,0
		C23.5,21.6,23.3,21.6,23.1,21.7C23.1,21.7,23.1,21.7,23.1,21.7z"/>
	<path fill="#727272" d="M23.1,21.7c-0.2-0.3-0.5-0.6-0.8-0.9c-0.1,0-0.1-0.1-0.2-0.2c0.2-0.1,0.4-0.2,0.5-0.2
		c0.5-0.2,0.8-0.4,1.3-0.4c0.1,0,0.2,0,0.3,0c0.3,0,0.6,0.1,0.7,0.2c-1,0.6-1.1,1.1-1.1,1.2c0,0.1,0,0.2,0,0.2c0,0,0,0-0.1,0
		C23.5,21.6,23.3,21.6,23.1,21.7C23.1,21.7,23.1,21.7,23.1,21.7z"/>
	<path fill="#777777" d="M23.1,21.7c-0.2-0.3-0.5-0.6-0.8-0.9c-0.1,0-0.1-0.1-0.2-0.2c0.2-0.1,0.4-0.2,0.5-0.2
		c0.5-0.2,0.8-0.4,1.3-0.4c0.1,0,0.2,0,0.3,0c0.3,0,0.6,0.1,0.7,0.2c-1,0.6-1.1,1.1-1.1,1.2c0,0.1,0,0.2,0,0.2c0,0,0,0-0.1,0
		C23.5,21.6,23.3,21.6,23.1,21.7C23.1,21.7,23.1,21.7,23.1,21.7z"/>
	<path fill="#7C7C7C" d="M23.1,21.7c-0.2-0.3-0.5-0.6-0.8-0.9c-0.1,0-0.1-0.1-0.2-0.2c0.2-0.1,0.4-0.2,0.5-0.2
		c0.5-0.2,0.8-0.4,1.3-0.4c0.1,0,0.2,0,0.3,0c0.3,0,0.6,0.1,0.7,0.2c-1,0.6-1.1,1.1-1.1,1.2c0,0.1,0,0.2,0,0.2c0,0,0,0-0.1,0
		C23.5,21.6,23.3,21.6,23.1,21.7C23.1,21.7,23.1,21.7,23.1,21.7z"/>
	<path fill="#828282" d="M23.1,21.7c-0.2-0.3-0.5-0.6-0.8-0.9c-0.1,0-0.1-0.1-0.2-0.2c0.2-0.1,0.4-0.2,0.5-0.2
		c0.5-0.2,0.8-0.4,1.3-0.4c0.1,0,0.2,0,0.3,0c0.3,0,0.6,0.1,0.7,0.2c-1,0.6-1.1,1.1-1.1,1.2c0,0.1,0,0.2,0,0.2c0,0,0,0-0.1,0
		C23.5,21.6,23.3,21.6,23.1,21.7C23.1,21.7,23.1,21.7,23.1,21.7z"/>
	<path fill="#666666" d="M25.5,22.3c0,0,1.7-1,1.7-1.4c0-0.5-0.5-1,1.2-1.3s1.9-0.7,2.6,0.1c0.7,0.7,3.9,1.6,2.2,2.3
		c-1.8,0.7-2.4,1.7-4.9,1.8c-2.4,0.2-2.9-0.9-2.9-0.9L25.5,22.3z"/>
	<path fill="#6D6D6D" d="M27.8,22.9c-0.7,0-1.1-0.1-1.3-0.2c1.6-1,1.6-1.5,1.6-1.8c0-0.2,0-0.3,0-0.4c0.1,0,0.3-0.1,0.6-0.1
		c0.5-0.1,0.8-0.2,1.1-0.2c0.2-0.1,0.5-0.1,0.6-0.1c0,0,0.1,0,0.2,0.2c0.3,0.4,0.9,0.6,1.5,0.9c0.1,0.1,0.3,0.2,0.5,0.3
		c-0.4,0.2-0.8,0.4-1.1,0.6c-0.9,0.5-1.6,0.9-3.1,1C28.1,22.9,27.9,22.9,27.8,22.9z"/>
	<path fill="#727272" d="M28.5,22.1c0.3-0.4,0.4-0.7,0.4-0.9c0.4-0.1,0.7-0.2,1-0.2c0,0,0.1,0,0.1,0c0.2,0.2,0.4,0.3,0.7,0.5
		C30,21.7,29.5,22,28.5,22.1z"/>
	<path fill="#777777" d="M28.5,22.1c0.3-0.4,0.4-0.7,0.4-0.9c0.4-0.1,0.7-0.2,1-0.2c0,0,0.1,0,0.1,0c0.2,0.2,0.4,0.3,0.7,0.5
		C30,21.7,29.5,22,28.5,22.1z"/>
	<path fill="#7C7C7C" d="M28.5,22.1c0.3-0.4,0.4-0.7,0.4-0.9c0.4-0.1,0.7-0.2,1-0.2c0,0,0.1,0,0.1,0c0.2,0.2,0.4,0.3,0.7,0.5
		C30,21.7,29.5,22,28.5,22.1z"/>
	<path fill="#828282" d="M28.5,22.1c0.3-0.4,0.4-0.7,0.4-0.9c0.4-0.1,0.7-0.2,1-0.2c0,0,0.1,0,0.1,0c0.2,0.2,0.4,0.3,0.7,0.5
		C30,21.7,29.5,22,28.5,22.1z"/>
</g>
</svg>
