<?xml version="1.0" encoding="utf-8"?>
<!-- Generator: Adobe Illustrator 19.1.0, SVG Export Plug-In . SVG Version: 6.00 Build 0)  -->
<svg version="1.1" id="Layer_1" xmlns="http://www.w3.org/2000/svg" xmlns:xlink="http://www.w3.org/1999/xlink" x="0px" y="0px"
	 viewBox="0 0 63.7 47.9" enable-background="new 0 0 63.7 47.9" xml:space="preserve" width="63.7px" height="47.9px">
<path fill="#413F51" d="M13.9,8.2c0,0,4.6-4.8,8.7-4.8s8.5-1.5,14.9,1.8c1.3,0.7,4.4,3.3,7.7,3c3.3-0.3,7.8,8.7,7.8,8.7
	s7.4,7.4,5.4,12.9s-2.8,2.8-8.2,9.1s-16.5,9-22.2,5.9c-5.7-3-8-1.7-12.4-2.9s-4.3-7.3-6.5-9.9C7,29.4,5.9,21.7,8.6,17.5
	S13.9,8.2,13.9,8.2z"/>
</svg>
