<?xml version="1.0" encoding="utf-8"?>
<!-- Generator: Adobe Illustrator 19.1.0, SVG Export Plug-In . SVG Version: 6.00 Build 0)  -->
<svg version="1.1" id="Layer_1" xmlns="http://www.w3.org/2000/svg" xmlns:xlink="http://www.w3.org/1999/xlink" x="0px" y="0px"
	 width="45.8px" height="37.3px" viewBox="-430.9 433.4 45.8 37.3" style="enable-background:new -430.9 433.4 45.8 37.3;"
	 xml:space="preserve">
<style type="text/css">
	.st0{fill:#666666;}
	.st1{opacity:0.8;fill:#6D6D6D;enable-background:new    ;}
	.st2{fill:#777777;}
	.st3{fill:#808080;fill-opacity:0.72;}
	.st4{fill:#A8A8A8;fill-opacity:0.2;}
	.st5{fill:#AAAAAA;fill-opacity:0.2;}
	.st6{fill:#FFFFFF;fill-opacity:0.2;}
	.st7{fill:#808080;fill-opacity:0.2;}
</style>
<g>
	<path class="st0" d="M-421.5,433.9c0,0-5.8,2.8-4.4,6.9s5.4,11.2,10.5,10.1s14.3-14.2,9.5-16.3
		C-410.7,432.5-421.5,433.9-421.5,433.9z"/>
	<path class="st0" d="M-421.5,433.9c0,0-5.8,2.8-4.4,6.9s5.4,11.2,10.5,10.1s14.3-14.2,9.5-16.3
		C-410.7,432.5-421.5,433.9-421.5,433.9z"/>
	<path class="st1" d="M-416.4,450.1c-4.1,0-7.4-6.1-8.7-9.6c-1.1-3.1,3.1-5.5,3.9-5.8c0.7-0.1,3.8-0.4,7.1-0.4
		c3.5,0,6.2,0.4,7.9,1.1c0.4,0.2,1,0.6,0.9,2c-0.5,4.2-6.6,11.8-10.2,12.6C-415.8,450-416.1,450.1-416.4,450.1z"/>
	<path class="st2" d="M-416.4,449.1c-3.1,0-6.2-4.6-7.7-9c-0.8-2.1,2.3-4,3.2-4.5c0.9-0.1,3.7-0.4,6.8-0.4c3.4,0,6,0.4,7.5,1
		c0.1,0,0.4,0.2,0.3,1c-0.4,3.8-6.1,11-9.3,11.7C-416,449-416.2,449.1-416.4,449.1z"/>
	<path class="st3" d="M-416.4,447.9c-2.1,0-4.9-3.5-6.6-8.2c-0.3-0.8,1-2,2.5-2.9c1.1-0.1,3.6-0.4,6.4-0.4c2.8,0,5.1,0.3,6.6,0.7
		c-0.3,3.3-5.7,10.1-8.4,10.7C-416.1,447.9-416.3,447.9-416.4,447.9z"/>
	<path class="st4" d="M-416.4,446.1c-0.8,0-3.1-2.3-4.7-6.5c0.2-0.3,0.6-0.6,1.2-1c1.2-0.1,3.4-0.3,5.8-0.3c1.9,0,3.3,0.1,4.3,0.3
		C-411.2,441.5-414.8,445.6-416.4,446.1L-416.4,446.1z"/>
	<path class="st0" d="M-415.4,454.9c0,0-1.7,5,1.3,6.3c3,1.3,9.1,2.9,11.5-0.8c2.4-3.7,0.6-15.7-3.3-14S-415.4,454.9-415.4,454.9z"
		/>
	<path class="st0" d="M-415.4,454.9c0,0-1.7,5,1.3,6.3c3,1.3,9.1,2.9,11.5-0.8c2.4-3.7,0.6-15.7-3.3-14S-415.4,454.9-415.4,454.9z"
		/>
	<path class="st1" d="M-407.7,461.9c-2.7,0-5.4-1.1-6.1-1.4c-2-0.9-1.1-4.5-0.9-5.2c0.8-0.9,5.7-6.7,9.1-8.2
		c0.1-0.1,0.3-0.1,0.4-0.1c0.6,0,1.1,0.8,1.4,1.3c1.6,3.1,1.9,9.5,0.4,11.7C-404.2,461.2-405.6,461.9-407.7,461.9L-407.7,461.9z"/>
	<path class="st2" d="M-407.7,460.9c-2.5,0-5-1-5.7-1.3c-1.1-0.5-0.6-2.9-0.4-3.8c1.7-2,5.8-6.5,8.6-7.7c0.1,0,0.7,0.7,1.2,2.4
		c1,3.4,0.7,7.7-0.2,9C-404.4,459.8-405.1,460.9-407.7,460.9L-407.7,460.9z"/>
	<path class="st3" d="M-407.7,459.6c-2.2,0-4.4-0.9-5.2-1.2c-0.1-0.3-0.1-1.1,0.1-2.2c1.6-1.9,4.8-5.3,7.1-6.7
		c0.1,0.3,0.3,0.7,0.4,1.2c0.9,3.2,0.6,7.1,0,8C-405.3,459-405.8,459.6-407.7,459.6z"/>
	<path class="st4" d="M-407.7,457.9c-1.2,0-2.5-0.3-3.4-0.6v-0.1c1.3-1.6,3-3.2,4.4-4.5c0.4,2.2,0.2,4.4-0.1,5.1
		C-406.8,457.8-407.1,457.9-407.7,457.9z"/>
	<path class="st0" d="M-403,439.4c0,0-2,0.9-1,3.3c0.9,2.4,0.9,3.2,2.5,4.6s3.6,2,5.1,0.4c1.5-1.6,1.9-2.4,2.2-5.1
		c0.3-2.7,1.2-4.4-2.8-5c-4-0.6-3.4-0.6-5.1,0.9C-403.8,440.1-403,439.4-403,439.4z"/>
	<path class="st0" d="M-403,439.4c0,0-2,0.9-1,3.3c0.9,2.4,0.9,3.2,2.5,4.6s3.6,2,5.1,0.4c1.5-1.6,1.9-2.4,2.2-5.1
		c0.3-2.7,1.2-4.4-2.8-5c-4-0.6-3.4-0.6-5.1,0.9C-403.8,440.1-403,439.4-403,439.4z"/>
	<path class="st1" d="M-398.5,447.8c-0.8,0-1.7-0.4-2.5-1.1c-1.1-1-1.3-1.5-1.8-2.9c-0.1-0.5-0.2-0.9-0.4-1.4
		c-0.5-1.3,0-1.9,0.5-2.2l0.1-0.1l0.1-0.1c0.1-0.1,0.4-0.4,1-0.9c0.2-0.2,0.4-0.3,0.5-0.5c0.6-0.6,0.7-0.6,1.1-0.6s1.1,0.1,2.3,0.3
		l0.5,0.1c2.6,0.4,2.5,0.9,2.2,3c-0.1,0.4-0.1,0.8-0.1,1.2c-0.2,2.5-0.6,3.2-1.9,4.6C-397.4,447.6-397.9,447.8-398.5,447.8z"/>
	<path class="st3" d="M-398.5,446.8c-0.5,0-1.2-0.3-1.8-0.9c-0.9-0.8-1-1.1-1.5-2.5c-0.1-0.4-0.3-0.8-0.5-1.4c-0.3-0.7,0-0.9,0.1-1
		l0.2-0.1l0.2-0.2c0.1-0.1,0.4-0.3,0.9-0.8c0.2-0.2,0.4-0.4,0.5-0.5s0.3-0.3,0.4-0.3c0.4,0,1.2,0.1,2.1,0.3h0.6
		c1.2,0.2,1.5,0.4,1.5,0.4c0,0.1-0.1,0.9-0.1,1.4c-0.1,0.4-0.1,0.8-0.2,1.2c-0.2,2.3-0.5,2.8-1.7,4
		C-398,446.6-398.3,446.8-398.5,446.8z"/>
	<path class="st2" d="M-398.5,446.8c-0.5,0-1.2-0.3-1.8-0.9c-0.9-0.8-1-1.1-1.5-2.5c-0.1-0.4-0.3-0.8-0.5-1.4c-0.3-0.7,0-0.9,0.1-1
		l0.2-0.1l0.2-0.2c0.1-0.1,0.4-0.3,0.9-0.8c0.2-0.2,0.4-0.4,0.5-0.5s0.3-0.3,0.4-0.3c0.4,0,1.2,0.1,2.1,0.3h0.6
		c1.2,0.2,1.5,0.4,1.5,0.4c0,0.1-0.1,0.9-0.1,1.4c-0.1,0.4-0.1,0.8-0.2,1.2c-0.2,2.3-0.5,2.8-1.7,4
		C-398,446.6-398.3,446.8-398.5,446.8z"/>
	<path class="st4" d="M-398.6,445.6c-0.2,0-0.5-0.2-0.9-0.6c-0.7-0.6-0.7-0.7-1.2-2c-0.1-0.4-0.3-0.8-0.5-1.2l0.2-0.2
		c0.1-0.1,0.4-0.3,0.9-0.8c0.2-0.2,0.4-0.4,0.6-0.5c0.4,0,0.9,0.1,1.5,0.2l0.6,0.1c0.2,0,0.3,0.1,0.4,0.1c0,0.2,0,0.3-0.1,0.4
		c-0.1,0.4-0.1,0.8-0.2,1.3C-397.5,444.4-397.7,444.6-398.6,445.6z"/>
	<path class="st0" d="M-424.1,462.5c0,0,4.2-2.5,6.6-1.2c2.3,1.3,6.4,2.2,6.8,3.4c0.4,1.2,5.5,4.8,2,5.8s-7.3-1.3-8.9-2
		c-1.6-0.7-6.6-1.7-6.9-3.1C-424.8,464-424.1,462.5-424.1,462.5z"/>
	<path class="st0" d="M-424.1,462.5c0,0,4.2-2.5,6.6-1.2c2.3,1.3,6.4,2.2,6.8,3.4c0.4,1.2,5.5,4.8,2,5.8s-7.3-1.3-8.9-2
		c-1.6-0.7-6.6-1.7-6.9-3.1C-424.8,464-424.1,462.5-424.1,462.5z"/>
	<path class="st1" d="M-410.4,469.9c-2.1,0-4.2-0.9-5.7-1.6c-0.5-0.2-0.9-0.4-1.2-0.5c-0.4-0.1-0.9-0.3-1.5-0.5
		c-1.2-0.4-4.6-1.4-4.8-2.1c-0.2-0.8,0.1-1.7,0.2-2.1c0.7-0.4,2.6-1.3,4.3-1.3c0.5,0,0.9,0.1,1.2,0.3c0.9,0.5,2.1,1,3.2,1.4
		c1.1,0.4,3,1.2,3.2,1.6c0.2,0.5,0.6,0.9,1.3,1.7c0.6,0.6,2,2.1,1.8,2.6c0,0-0.1,0.2-0.6,0.3C-409.4,469.8-409.9,469.9-410.4,469.9z
		"/>
	<path class="st3" d="M-410.4,468.9c-1.9,0-3.8-0.9-5.3-1.5c-0.5-0.2-0.9-0.4-1.3-0.5s-0.9-0.3-1.6-0.5c-1.1-0.3-3.4-1-4.2-1.6
		c0-0.3,0-0.7,0.1-1c0.9-0.4,2.3-1,3.4-1c0.3,0,0.6,0,0.7,0.1c1,0.6,2.2,1,3.3,1.5c0.9,0.4,2.3,0.9,2.8,1.2c0.3,0.6,0.8,1.1,1.4,1.8
		c0.3,0.3,0.9,0.9,1.2,1.4C-409.9,468.9-410.2,468.9-410.4,468.9z"/>
	<path class="st2" d="M-410.4,468.9c-1.9,0-3.8-0.9-5.3-1.5c-0.5-0.2-0.9-0.4-1.3-0.5s-0.9-0.3-1.6-0.5c-1.1-0.3-3.4-1-4.2-1.6
		c0-0.3,0-0.7,0.1-1c0.9-0.4,2.3-1,3.4-1c0.3,0,0.6,0,0.7,0.1c1,0.6,2.2,1,3.3,1.5c0.9,0.4,2.3,0.9,2.8,1.2c0.3,0.6,0.8,1.1,1.4,1.8
		c0.3,0.3,0.9,0.9,1.2,1.4C-409.9,468.9-410.2,468.9-410.4,468.9z"/>
	<path class="st4" d="M-412.6,467.2c-0.9-0.3-1.9-0.7-2.6-1c-0.5-0.2-1-0.4-1.4-0.6c-0.4-0.1-1-0.3-1.6-0.5c-1.1-0.3-2-0.6-2.6-0.9
		c0.6-0.2,1.2-0.4,1.7-0.4c0.2,0,0.2,0,0.2,0c1,0.6,2.2,1,3.4,1.5c0.5,0.2,1.8,0.7,2.3,1C-413,466.6-412.8,467-412.6,467.2z"/>
	<path class="st0" d="M-424.7,447.1c0,0,2.1,3.6,3.5,4c1.4,0.4,3.5,0.1,3.5,3.1c0,2.9,1,3.6-1.7,4.1s-7.2,4.9-8.5,1.4
		s-3.7-5.3-2.8-9.3c0.9-4,4.4-3.9,4.4-3.9L-424.7,447.1z"/>
	<path class="st0" d="M-424.7,447.1c0,0,2.1,3.6,3.5,4c1.4,0.4,3.5,0.1,3.5,3.1c0,2.9,1,3.6-1.7,4.1s-7.2,4.9-8.5,1.4
		s-3.7-5.3-2.8-9.3c0.9-4,4.4-3.9,4.4-3.9L-424.7,447.1z"/>
	<path class="st1" d="M-426.2,460.2c-0.3,0-0.7-0.1-0.9-0.8c-0.4-1.2-1-2.1-1.5-3c-1-1.9-1.9-3.4-1.3-5.8c0.6-3,2.8-3.3,3.4-3.3
		l1.3,0.5c0.6,1,2.3,3.7,3.8,4.1c0.3,0.1,0.6,0.2,1,0.2c1.2,0.2,1.9,0.4,1.9,2c0,0.8,0.1,1.4,0.1,2c0,0.4,0.1,0.9,0,1
		c0,0-0.2,0.2-1.1,0.3c-1,0.2-2.2,0.8-3.4,1.4C-424.1,459.6-425.3,460.2-426.2,460.2z"/>
	<path class="st2" d="M-426.2,459.1c-0.5-1.2-1-2.3-1.5-3.2c-1-1.8-1.7-3-1.2-5.1c0.4-1.9,1.6-2.4,2.3-2.4l0.7,0.2
		c1,1.6,2.6,3.8,4.2,4.3c0.3,0.1,0.7,0.2,1.1,0.3c0.3,0.1,0.9,0.2,1,0.3c0,0,0.1,0.2,0.1,0.8c0,0.9,0.1,1.6,0.1,2.1v0.1
		c-0.1,0-0.2,0-0.3,0c-1.2,0.1-2.4,0.8-3.7,1.5c-0.9,0.5-2.1,1.1-2.7,1.2C-426.1,459.1-426.1,459.1-426.2,459.1z"/>
	<path class="st5" d="M-425.4,457.8c-0.4-0.9-0.8-1.7-1.2-2.4c-1-1.8-1.5-2.7-1.1-4.3c0.2-0.8,0.5-1.3,1-1.5l0,0
		c1.6,2.5,3.1,4,4.6,4.5c0.4,0.1,0.8,0.2,1.2,0.3h0.1c0,0.4,0,0.8,0,1.1c-1,0.4-2.1,1-3.1,1.5C-424.3,457.1-424.9,457.6-425.4,457.8
		z"/>
	<path class="st4" d="M-425,456.6c-0.3-0.6-0.6-1.2-0.9-1.7c-1-1.7-1.3-2.4-1-3.7c0-0.1,0-0.3,0-0.4c1.5,2.2,3,3.5,4.5,4
		c0.2,0.1,0.4,0.1,0.6,0.2c-0.9,0.3-1.7,0.8-2.5,1.2C-424.5,456.4-424.8,456.5-425,456.6z"/>
	<path class="st0" d="M-392.4,464.1c0,0-6.4-0.9-7-5.5c-0.7-4.6-1.4-10,1.9-8.3c3.3,1.7,4.8,5.8,6.6,7s3.3,3.8,2,5.5
		S-392.4,464.1-392.4,464.1z"/>
	<path class="st0" d="M-392.4,464.1c0,0-6.4-0.9-7-5.5c-0.7-4.6-1.4-10,1.9-8.3c3.3,1.7,4.8,5.8,6.6,7s3.3,3.8,2,5.5
		S-392.4,464.1-392.4,464.1z"/>
	<path class="st1" d="M-391.9,463.4c-0.2,0-0.4,0-0.4,0c-0.1,0-5.8-0.9-6.4-4.8c-0.3-2.3-1-6.7-0.2-7.6c0-0.1,0.1-0.1,0.2-0.1
		c0.1,0,0.3,0,0.7,0.2c1.8,0.9,3,2.7,4.1,4.2c0.8,1.2,1.6,2.2,2.4,2.8c1.1,0.7,1.9,1.9,2.1,2.9c0.1,0.5,0,1-0.3,1.3
		C-390.2,463.2-391.3,463.4-391.9,463.4z"/>
	<path class="st3" d="M-391.9,462.4c-0.1,0-0.2,0-0.3,0c-0.1,0-5-0.8-5.5-4c-0.2-1.4-0.7-4.8-0.5-6.3c1.4,0.9,2.5,2.4,3.5,3.8
		c0.9,1.2,1.7,2.3,2.7,3c0.8,0.6,1.6,1.5,1.7,2.3c0.1,0.4,0,0.5-0.1,0.6C-390.7,462.2-391.4,462.4-391.9,462.4z"/>
	<path class="st2" d="M-391.9,462.4c-0.1,0-0.2,0-0.3,0c-0.1,0-5-0.8-5.5-4c-0.2-1.4-0.7-4.8-0.5-6.3c1.4,0.9,2.5,2.4,3.5,3.8
		c0.9,1.2,1.7,2.3,2.7,3c0.8,0.6,1.6,1.5,1.7,2.3c0.1,0.4,0,0.5-0.1,0.6C-390.7,462.2-391.4,462.4-391.9,462.4z"/>
	<path class="st6" d="M-392,461.1c0,0-4.1-0.7-4.5-3c-0.1-0.6-0.3-2-0.4-3.4c0.5,0.6,0.9,1.1,1.3,1.7c0.9,1.3,1.8,2.5,3,3.3
		c0.5,0.4,0.9,0.9,1.1,1.2c-0.1,0-0.2,0-0.4,0L-392,461.1z"/>
	<path class="st0" d="M-393.3,446.8c0,0,4-0.4,4.9,1.3c0.9,1.7,3.1,3.8,2.8,4.8c-0.3,1,1.8,5.7-0.9,5.2s-4.6-3.7-5.4-4.7
		c-0.8-1-3.5-3.5-3-4.6S-393.3,446.8-393.3,446.8z"/>
	<path class="st0" d="M-393.3,446.8c0,0,4-0.4,4.9,1.3c0.9,1.7,3.1,3.8,2.8,4.8c-0.3,1,1.8,5.7-0.9,5.2s-4.6-3.7-5.4-4.7
		c-0.8-1-3.5-3.5-3-4.6S-393.3,446.8-393.3,446.8z"/>
	<path class="st1" d="M-386.1,457.4c-0.1,0-0.1,0-0.2,0c-2-0.3-3.6-2.6-4.5-3.8c-0.2-0.2-0.3-0.5-0.5-0.6c-0.2-0.2-0.5-0.5-0.8-0.9
		c-0.5-0.6-2.2-2.4-2.1-2.9c0.3-0.7,0.9-1.3,1.2-1.5c0.2,0,0.4,0,0.7,0c1.6,0,2.8,0.3,3.1,0.9c0.4,0.7,0.9,1.5,1.5,2.2
		c0.5,0.6,1.3,1.7,1.3,2.1c-0.1,0.4,0,1,0.2,2c0.1,0.6,0.5,2.3,0.2,2.6C-386,457.4-386.1,457.4-386.1,457.4z"/>
	<path class="st3" d="M-387,456.1c-1.3-0.7-2.4-2.2-3-3.1c-0.2-0.3-0.3-0.5-0.5-0.6c-0.2-0.2-0.5-0.6-0.8-0.9
		c-0.4-0.5-1.4-1.6-1.7-2.2c0.2-0.2,0.4-0.5,0.5-0.6c0.1,0,0.2,0,0.3,0c1.5,0,2.1,0.3,2.2,0.4c0.4,0.7,1,1.5,1.5,2.3
		c0.4,0.5,0.9,1.2,1.1,1.5c-0.1,0.6,0.1,1.3,0.2,2.2C-387.1,455.2-387,455.6-387,456.1z"/>
	<path class="st2" d="M-387,456.1c-1.3-0.7-2.4-2.2-3-3.1c-0.2-0.3-0.3-0.5-0.5-0.6c-0.2-0.2-0.5-0.6-0.8-0.9
		c-0.4-0.5-1.4-1.6-1.7-2.2c0.2-0.2,0.4-0.5,0.5-0.6c0.1,0,0.2,0,0.3,0c1.5,0,2.1,0.3,2.2,0.4c0.4,0.7,1,1.5,1.5,2.3
		c0.4,0.5,0.9,1.2,1.1,1.5c-0.1,0.6,0.1,1.3,0.2,2.2C-387.1,455.2-387,455.6-387,456.1z"/>
	<path class="st4" d="M-388.2,454c-0.5-0.5-0.9-1.1-1.2-1.5c-0.2-0.3-0.4-0.5-0.5-0.7c-0.2-0.3-0.5-0.6-0.9-1
		c-0.1-0.2-0.7-0.8-1.1-1.4c0.7,0,1.1,0.1,1.3,0.2c0.4,0.7,0.9,1.4,1.5,2.1c0.2,0.3,0.7,0.9,0.9,1.2
		C-388.3,453.2-388.2,453.6-388.2,454z"/>
	<path class="st7" d="M-390.4,450.6c-0.1-0.1-0.4-0.4-0.6-0.7c0.1,0,0.2,0,0.2,0.1C-390.7,450.1-390.5,450.4-390.4,450.6
		L-390.4,450.6z"/>
	<path class="st0" d="M-402.5,465.5c0,0-1.2,0.9-1.3,1.5c-0.1,0.6,0.2,1.4-0.9,1.4c-1.1,0-1.3,0.5-1.7-0.6c-0.4-1.1-2.4-2.7-1.1-3.3
		c1.2-0.6,1.8-1.6,3.4-1.3c1.6,0.2,1.8,1.6,1.8,1.6L-402.5,465.5z"/>
	<path class="st0" d="M-402.5,465.5c0,0-1.2,0.9-1.3,1.5c-0.1,0.6,0.2,1.4-0.9,1.4c-1.1,0-1.3,0.5-1.7-0.6c-0.4-1.1-2.4-2.7-1.1-3.3
		c1.2-0.6,1.8-1.6,3.4-1.3c1.6,0.2,1.8,1.6,1.8,1.6L-402.5,465.5z"/>
	<path class="st1" d="M-405.6,467.6c-0.2-0.5-0.5-0.9-0.8-1.4c-0.2-0.3-0.5-0.7-0.6-0.9c0.4-0.2,0.7-0.4,1-0.6
		c0.6-0.4,0.9-0.6,1.4-0.6c0.1,0,0.2,0,0.4,0c0.8,0.1,1,0.6,1.1,0.8v0.2c-0.6,0.4-1.3,1.1-1.4,1.8c0,0.1,0,0.3,0,0.5
		c0,0.1,0,0.2,0,0.3h-0.1C-405.1,467.6-405.4,467.6-405.6,467.6L-405.6,467.6z"/>
	<path class="st3" d="M-405.6,465.5c0.1,0,0.1-0.1,0.2-0.1c0.4-0.3,0.6-0.4,0.7-0.4c-0.3,0.3-0.5,0.6-0.7,0.9
		C-405.5,465.8-405.6,465.5-405.6,465.5z"/>
	<path class="st7" d="M-405.6,465.5c0.1,0,0.1-0.1,0.2-0.1c0.4-0.3,0.6-0.4,0.7-0.4c-0.3,0.3-0.5,0.6-0.7,0.9
		C-405.5,465.8-405.6,465.5-405.6,465.5z"/>
	<path class="st0" d="M-402.9,468.1c0,0,1.9-1.5,1.9-2.2c0-0.7-0.5-1.6,1.3-2.1c1.8-0.5,2.1-1.1,2.8,0.1c0.7,1.2,4.3,2.5,2.4,3.6
		c-2,1.2-2.7,2.6-5.3,2.8c-2.6,0.2-3.2-1.3-3.2-1.3L-402.9,468.1z"/>
	<path class="st0" d="M-402.9,468.1c0,0,1.9-1.5,1.9-2.2c0-0.7-0.5-1.6,1.3-2.1c1.8-0.5,2.1-1.1,2.8,0.1c0.7,1.2,4.3,2.5,2.4,3.6
		c-2,1.2-2.7,2.6-5.3,2.8c-2.6,0.2-3.2-1.3-3.2-1.3L-402.9,468.1z"/>
	<path class="st1" d="M-400.4,469.6c-1.1,0-1.6-0.4-1.8-0.7v-0.3c0.9-0.8,1.9-1.8,2-2.6c0-0.2,0-0.4,0-0.6c-0.1-0.5-0.1-0.5,0.7-0.8
		c0.5-0.1,0.9-0.3,1.2-0.4c0.2-0.1,0.4-0.2,0.5-0.2c0,0,0.1,0.1,0.2,0.3c0.3,0.5,0.9,1,1.6,1.4c0.4,0.3,1,0.7,1.2,1l-0.1,0.1
		c-0.7,0.4-1.2,0.8-1.7,1.2c-1,0.8-1.7,1.4-3.3,1.5C-400.1,469.6-400.3,469.6-400.4,469.6z"/>
	<path class="st3" d="M-400.6,468.6c1.4-1.4,1.4-2.2,1.5-2.6c0-0.1,0-0.3,0-0.4c0.4-0.1,0.8-0.2,1-0.3c0.4,0.5,1,0.9,1.6,1.3
		c0,0,0.1,0,0.1,0.1c-0.3,0.2-0.5,0.4-0.7,0.6c-0.9,0.7-1.5,1.2-2.8,1.3c-0.1,0-0.3,0-0.4,0C-400.5,468.6-400.6,468.6-400.6,468.6z"
		/>
	<path class="st7" d="M-400.6,468.6c1.4-1.4,1.4-2.2,1.5-2.6c0-0.1,0-0.3,0-0.4c0.4-0.1,0.8-0.2,1-0.3c0.4,0.5,1,0.9,1.6,1.3
		c0,0,0.1,0,0.1,0.1c-0.3,0.2-0.5,0.4-0.7,0.6c-0.9,0.7-1.5,1.2-2.8,1.3c-0.1,0-0.3,0-0.4,0C-400.5,468.6-400.6,468.6-400.6,468.6z"
		/>
	<path class="st2" d="M-400.6,468.6c1.4-1.4,1.4-2.2,1.5-2.6c0-0.1,0-0.3,0-0.4c0.4-0.1,0.8-0.2,1-0.3c0.4,0.5,1,0.9,1.6,1.3
		c0,0,0.1,0,0.1,0.1c-0.3,0.2-0.5,0.4-0.7,0.6c-0.9,0.7-1.5,1.2-2.8,1.3c-0.1,0-0.3,0-0.4,0C-400.5,468.6-400.6,468.6-400.6,468.6z"
		/>
</g>
</svg>
