<?xml version="1.0" encoding="utf-8"?>
<!-- Generator: Adobe Illustrator 19.1.0, SVG Export Plug-In . SVG Version: 6.00 Build 0)  -->
<svg version="1.1" id="Layer_1" xmlns="http://www.w3.org/2000/svg" xmlns:xlink="http://www.w3.org/1999/xlink" x="0px" y="0px"
	 width="41.8px" height="23.9px" viewBox="-410 421.1 41.8 23.9" style="enable-background:new -410 421.1 41.8 23.9;"
	 xml:space="preserve">
<style type="text/css">
	.st0{fill:#666666;}
	.st1{fill:#6D6D6D;}
	.st2{fill:#727272;}
	.st3{fill:#777777;}
	.st4{fill:#7C7C7C;}
	.st5{fill:#878787;}
	.st6{fill:#828282;}
	.st7{fill:#757575;}
</style>
<g>
	<path class="st0" d="M-401.4,421.5c0,0-5.3,1.8-4,4.4s4.9,7.2,9.6,6.4c4.7-0.8,13-9,8.6-10.4C-391.6,420.5-401.4,421.5-401.4,421.5
		z"/>
	<path class="st1" d="M-396.8,431.6c-3.8,0-6.7-3.8-7.9-6.1c-0.1-0.3-0.1-0.5,0-0.8c0.5-1.1,2.6-2.1,3.5-2.4c0.6,0,3.4-0.3,6.5-0.3
		c3.2,0,5.7,0.2,7.3,0.7c0.7,0.2,0.7,0.5,0.7,0.8c-0.2,2.3-5.6,7.4-9.1,8C-396.2,431.6-396.5,431.6-396.8,431.6L-396.8,431.6z"/>
	<path class="st2" d="M-396.8,430.8c-3.4,0-6.2-3.7-7.1-5.7c0-0.1,0-0.1,0-0.1c0.2-0.6,1.7-1.4,2.9-1.9c0.6-0.1,3.4-0.3,6.4-0.3
		c3.1,0,5.6,0.2,7,0.7h0.1c-0.3,2-5.1,6.7-8.4,7.2C-396.3,430.8-396.6,430.8-396.8,430.8L-396.8,430.8z"/>
	<path class="st3" d="M-396.8,429.9c-2.6,0-5.1-2.7-6.2-4.8c0.4-0.3,1.2-0.8,2.1-1.2c0.7-0.1,3.4-0.3,6.2-0.3c3,0,4.9,0.2,6,0.4
		c-1.1,1.9-4.8,5.4-7.5,5.8C-396.4,429.9-396.6,429.9-396.8,429.9L-396.8,429.9z"/>
	<path class="st4" d="M-396.8,429.1c-1.9,0-3.9-1.9-5.1-3.8c0.3-0.1,0.7-0.4,1.2-0.6c0.9-0.1,3.4-0.2,6-0.2c2.1,0,3.5,0.1,4.6,0.2
		c-1.5,1.8-4.3,4.1-6.2,4.4C-396.5,429.1-396.6,429.1-396.8,429.1L-396.8,429.1z"/>
	<path class="st5" d="M-396.8,428.3c-1.3,0-2.8-1.2-3.9-2.7c0.1,0,0.1-0.1,0.2-0.1c1-0.1,3.4-0.2,5.8-0.2c1,0,2,0,2.8,0.1
		c-1.4,1.4-3.3,2.7-4.6,2.9C-396.6,428.3-396.7,428.3-396.8,428.3L-396.8,428.3z"/>
	<path class="st0" d="M-395.9,435c0,0-1.6,3.2,1.2,4.1c2.8,0.8,8.3,1.8,10.5-0.5s0.6-10.1-3-9S-395.9,435-395.9,435z"/>
	<path class="st1" d="M-388.8,439.2c-2.5,0-5-0.7-5.7-0.9c-0.5-0.1-0.8-0.4-0.9-0.7c-0.3-0.6,0-1.6,0.2-2.1c0.8-0.7,5.2-4.3,8.2-5.2
		c0.1,0,0.3-0.1,0.4-0.1c1,0,1.6,1.2,1.9,1.8c0.9,2.1,0.8,5-0.1,6C-385.6,438.8-386.9,439.2-388.8,439.2L-388.8,439.2z"/>
	<path class="st2" d="M-388.8,438.4c-2.4,0-4.7-0.7-5.4-0.9c-0.2-0.1-0.4-0.2-0.4-0.3c-0.1-0.3,0-0.8,0.1-1.2
		c2.3-1.9,5.6-4.2,7.8-4.9c0.1,0,0.1,0,0.2,0c0.3,0,0.8,0.5,1.1,1.3c0.8,1.9,0.7,4.4,0,5.1C-386,438-387.2,438.4-388.8,438.4
		L-388.8,438.4z"/>
	<path class="st3" d="M-388.8,437.5c-2.1,0-4.3-0.6-5.1-0.8c0-0.1,0-0.2,0.1-0.3c2.1-1.7,5.1-3.9,7.2-4.5c0.1,0.1,0.3,0.4,0.4,0.7
		c0.7,1.7,0.5,3.9,0.2,4.2C-386.3,437.2-387.2,437.5-388.8,437.5L-388.8,437.5z"/>
	<path class="st4" d="M-388.8,436.7c-1.2,0-2.5-0.2-3.5-0.4c1.7-1.3,3.7-2.7,5.3-3.4l0,0c0.6,1.4,0.4,3.1,0.3,3.4
		C-386.8,436.4-387.4,436.7-388.8,436.7L-388.8,436.7z"/>
	<path class="st5" d="M-388.8,435.9c-0.4,0-0.9,0-1.4-0.1c1-0.7,1.9-1.3,2.7-1.7c0.1,0.7,0.1,1.3,0.1,1.7
		C-387.7,435.8-388.1,435.9-388.8,435.9L-388.8,435.9z"/>
	<path class="st0" d="M-384.5,425c0,0-1.8,0.6-0.9,2.1s0.9,2,2.3,2.9s3.3,1.3,4.6,0.3s1.7-1.5,2-3.3s1.1-2.8-2.5-3.2
		s-3.1-0.4-4.6,0.6S-384.5,425-384.5,425z"/>
	<path class="st1" d="M-380.4,430.1c-0.7,0-1.6-0.3-2.3-0.7c-0.9-0.6-1.1-0.9-1.5-1.8c-0.1-0.3-0.3-0.5-0.5-0.9
		c-0.1-0.1-0.2-0.3-0.1-0.5s0.3-0.3,0.5-0.4h0.1l0.1-0.1c0.1-0.1,0.4-0.2,0.9-0.6l0.5-0.3c0.5-0.4,0.6-0.4,1-0.4s1,0.1,2.1,0.2
		l0.5,0.1c1.6,0.2,1.9,0.5,2,0.6s0,0.6-0.1,1c0,0.2-0.1,0.5-0.1,0.8c-0.2,1.5-0.5,1.9-1.6,2.7C-379.4,430-379.9,430.1-380.4,430.1z"
		/>
	<path class="st2" d="M-380.4,429.3c-0.6,0-1.3-0.2-1.9-0.6c-0.8-0.5-0.8-0.6-1.3-1.5c-0.1-0.2-0.2-0.4-0.4-0.7l0.1-0.1
		c0.2-0.1,0.4-0.3,0.9-0.6l0.5-0.3c0.3-0.1,0.5-0.2,0.5-0.2s0,0,0.2,0c0.4,0,1,0.1,2,0.2l0.5,0.1c0.7,0.1,1,0.2,1.3,0.2
		c0,0.1,0,0.2-0.1,0.3c-0.1,0.3-0.1,0.5-0.1,0.8c-0.2,1.2-0.3,1.4-1.3,2.2C-379.8,429.2-380.1,429.3-380.4,429.3z"/>
	<path class="st3" d="M-380.4,428.5c-0.4,0-1-0.2-1.5-0.5s-0.5-0.3-0.9-1.1l0,0c0.1-0.1,1.1-0.7,1.1-0.7c0.4,0,1,0.1,1.8,0.2
		c0,0,0.8,0.1,0.9,0.1c0,0.1,0,0.2-0.1,0.4c-0.1,1-0.1,1-1,1.6C-380.1,428.4-380.2,428.5-380.4,428.5z"/>
	<path class="st4" d="M-380.4,427.6c-0.2,0-0.6-0.1-1-0.4c-0.2,0-0.3,0-0.3-0.1c0.1-0.1,0.2-0.1,0.2-0.1c0.4,0,0.9,0.1,1.5,0.1
		c0,0,0,0,0.1,0C-380,427.3-380.1,427.4-380.4,427.6z"/>
	<path class="st6" d="M-380.4,427.6c-0.2,0-0.6-0.1-1-0.4c-0.2,0-0.3,0-0.3-0.1c0.1-0.1,0.2-0.1,0.2-0.1c0.4,0,0.9,0.1,1.5,0.1
		c0,0,0,0,0.1,0C-380,427.3-380.1,427.4-380.4,427.6z"/>
	<path class="st0" d="M-403.8,439.8c0,0,3.9-1.6,6-0.8c2.1,0.8,5.8,1.4,6.2,2.2s5,3.1,1.8,3.7s-6.6-0.9-8.1-1.3s-6-1.1-6.3-2
		C-404.5,440.7-403.8,439.8-403.8,439.8z"/>
	<path class="st1" d="M-391.3,444.3c-1.9,0-3.8-0.6-5.2-1c-0.4-0.1-0.8-0.3-1.1-0.3c-0.3-0.1-0.8-0.2-1.4-0.3
		c-1.1-0.2-3.8-0.8-4.3-1.2c0-0.3,0.1-0.6,0.2-0.9c0.7-0.2,2.4-0.8,3.9-0.8c0.5,0,0.9,0.1,1.2,0.2c0.9,0.3,1.9,0.6,2.9,0.9
		s2.6,0.7,2.9,1c0.1,0.3,0.5,0.6,1.2,1.1c0.4,0.3,1.1,0.9,1.4,1.2c-0.1,0-0.2,0-0.3,0.1C-390.3,444.2-390.8,444.3-391.3,444.3z"/>
	<path class="st2" d="M-391.6,443.5c-1.7-0.1-3.4-0.6-4.7-1c-0.4-0.1-0.8-0.3-1.1-0.3c-0.3-0.1-0.8-0.2-1.4-0.3
		c-1.7-0.4-2.7-0.6-3.3-0.8c0.8-0.2,1.9-0.5,2.8-0.5c0.5,0,0.7,0.1,0.9,0.1c0.9,0.3,2,0.6,3,0.9c0.6,0.2,2.1,0.6,2.5,0.8
		C-392.6,442.7-392.2,443-391.6,443.5z"/>
	<path class="st3" d="M-391.6,443.5c-1.7-0.1-3.4-0.6-4.7-1c-0.4-0.1-0.8-0.3-1.1-0.3c-0.3-0.1-0.8-0.2-1.4-0.3
		c-1.7-0.4-2.7-0.6-3.3-0.8c0.8-0.2,1.9-0.5,2.8-0.5c0.5,0,0.7,0.1,0.9,0.1c0.9,0.3,2,0.6,3,0.9c0.6,0.2,2.1,0.6,2.5,0.8
		C-392.6,442.7-392.2,443-391.6,443.5z"/>
	<path class="st4" d="M-391.6,443.5c-1.7-0.1-3.4-0.6-4.7-1c-0.4-0.1-0.8-0.3-1.1-0.3c-0.3-0.1-0.8-0.2-1.4-0.3
		c-1.7-0.4-2.7-0.6-3.3-0.8c0.8-0.2,1.9-0.5,2.8-0.5c0.5,0,0.7,0.1,0.9,0.1c0.9,0.3,2,0.6,3,0.9c0.6,0.2,2.1,0.6,2.5,0.8
		C-392.6,442.7-392.2,443-391.6,443.5z"/>
	<path class="st7" d="M-391.6,443.5c-1.7-0.1-3.4-0.6-4.7-1c-0.4-0.1-0.8-0.3-1.1-0.3c-0.3-0.1-0.8-0.2-1.4-0.3
		c-1.7-0.4-2.7-0.6-3.3-0.8c0.8-0.2,1.9-0.5,2.8-0.5c0.5,0,0.7,0.1,0.9,0.1c0.9,0.3,2,0.6,3,0.9c0.6,0.2,2.1,0.6,2.5,0.8
		C-392.6,442.7-392.2,443-391.6,443.5z"/>
	<path class="st0" d="M-404.3,430.1c0,0,1.9,2.3,3.2,2.6c1.3,0.3,3.2,0.1,3.2,2s0.9,2.3-1.5,2.6c-2.4,0.3-6.6,3.1-7.7,0.9
		s-3.4-3.4-2.6-6s4-2.5,4-2.5L-404.3,430.1z"/>
	<path class="st1" d="M-405.7,438.1c-0.6,0-0.7-0.2-0.8-0.4c-0.4-0.8-0.9-1.4-1.4-2c-1-1.3-1.6-2.1-1.1-3.4c0.5-1.7,2.6-1.8,3-1.8
		l1.2,0.3c0.6,0.7,2.1,2.4,3.5,2.7c0.3,0.1,0.6,0.1,0.9,0.1c1.4,0.2,1.6,0.3,1.6,1c0,0.6,0.1,1,0.1,1.3c0,0.1,0,0.2,0,0.3
		c-0.1,0-0.4,0.1-1,0.2c-0.9,0.1-2,0.5-3,0.9S-404.9,438.1-405.7,438.1z"/>
	<path class="st2" d="M-405.7,437.3c-0.1,0-0.2,0-0.2,0c-0.4-0.8-0.9-1.5-1.4-2.1c-1-1.3-1.3-1.7-1-2.6c0.4-1.1,1.7-1.3,2.2-1.3
		l0.8,0.2c0.8,1,2.3,2.4,3.7,2.7c0.3,0.1,0.4,0.1,0.8,0.2c0.5,0.1,0.7,0.1,0.7,0.2l0,0c0,0.4,0.2,0.7,0.2,1l0,0
		c-1,0.1-2.1,0.5-3.2,0.9C-404,436.9-405,437.3-405.7,437.3z"/>
	<path class="st3" d="M-405.4,436.4c-0.4-0.7-0.8-1.2-1.2-1.7c-1-1.3-1-1.4-0.9-1.8c0.2-0.6,1-0.7,1.3-0.8l0.5,0.1
		c1,1.1,2.5,2.5,4,2.8c0.1,0,0.2,0,0.2,0.1c-0.6,0.2-1.1,0.4-1.7,0.6l-0.2,0.1C-404,436-404.8,436.3-405.4,436.4z"/>
	<path class="st4" d="M-405,435.5c-0.3-0.5-0.7-0.9-1-1.3c-0.6-0.7-0.7-1-0.8-1.1c0.1,0,0.2-0.1,0.5-0.2l0,0
		c0.8,0.9,1.6,1.6,2.4,2.1C-404.1,435.2-404.6,435.4-405,435.5z"/>
	<path class="st6" d="M-405,435.5c-0.3-0.5-0.7-0.9-1-1.3c-0.6-0.7-0.7-1-0.8-1.1c0.1,0,0.2-0.1,0.5-0.2l0,0
		c0.8,0.9,1.6,1.6,2.4,2.1C-404.1,435.2-404.6,435.4-405,435.5z"/>
	<path class="st0" d="M-374.9,441c0,0-5.8-0.6-6.4-3.5s-1.3-6.4,1.7-5.3s4.4,3.7,6.1,4.5s3,2.4,1.9,3.5
		C-372.9,441.2-374.9,441-374.9,441z"/>
	<path class="st1" d="M-374.4,440.1c-0.2,0-0.4,0-0.4,0c-1.4-0.1-5.3-1-5.7-2.9c-0.3-1.3-0.8-3.9-0.3-4.5c0,0,0.1-0.1,0.2-0.1
		s0.3,0,0.7,0.2c1.6,0.6,2.7,1.7,3.7,2.7c0.7,0.7,1.5,1.4,2.3,1.8c1.1,0.5,1.7,1.3,1.8,1.7c0,0.1,0,0.3-0.2,0.4
		C-372.9,440.1-374,440.1-374.4,440.1z"/>
	<path class="st2" d="M-374.4,439.3c-0.2,0-0.3,0-0.3,0c-1.9-0.2-4.8-1.1-5-2.2c-0.4-2-0.5-3-0.5-3.5l0,0c1.4,0.5,2.5,1.5,3.4,2.5
		c0.8,0.8,1.6,1.5,2.5,2c0.7,0.3,1.1,0.7,1.2,0.9C-373.4,439.2-374,439.3-374.4,439.3z"/>
	<path class="st3" d="M-375.4,438.4c-1.8-0.3-3.4-1.1-3.5-1.5c-0.2-0.8-0.3-1.4-0.3-1.9c0.7,0.5,1.3,1.1,1.9,1.7
		C-376.7,437.3-376.1,437.9-375.4,438.4z"/>
	<path class="st4" d="M-375.4,438.4c-1.8-0.3-3.4-1.1-3.5-1.5c-0.2-0.8-0.3-1.4-0.3-1.9c0.7,0.5,1.3,1.1,1.9,1.7
		C-376.7,437.3-376.1,437.9-375.4,438.4z"/>
	<path class="st6" d="M-375.4,438.4c-1.8-0.3-3.4-1.1-3.5-1.5c-0.2-0.8-0.3-1.4-0.3-1.9c0.7,0.5,1.3,1.1,1.9,1.7
		C-376.7,437.3-376.1,437.9-375.4,438.4z"/>
	<path class="st0" d="M-375.7,429.8c0,0,3.6-0.3,4.4,0.8c0.8,1.1,2.8,2.4,2.6,3.1c-0.2,0.7,1.6,3.6-0.9,3.3c-2.5-0.3-4.2-2.4-4.9-3
		c-0.7-0.6-3.2-2.2-2.7-3C-376.7,430.4-375.7,429.8-375.7,429.8z"/>
	<path class="st1" d="M-369.2,436.3c-0.1,0-0.1,0-0.2,0c-1.8-0.2-3.2-1.6-4.1-2.4c-0.2-0.2-0.3-0.3-0.4-0.4
		c-0.2-0.1-0.4-0.3-0.7-0.6c-0.4-0.3-1.4-1.1-1.7-1.5c0.3-0.3,0.7-0.6,0.9-0.7c0.2,0,0.4,0,0.7,0c1.9,0,2.7,0.3,2.8,0.5
		c0.4,0.5,0.9,1,1.4,1.4c0.4,0.3,0.9,0.8,1,1.1c-0.1,0.4,0.1,0.8,0.2,1.4C-369.2,435.4-369,436.1-369.2,436.3
		C-369,436.3-369.1,436.3-369.2,436.3z"/>
	<path class="st2" d="M-370.1,435.3c-1.2-0.4-2.2-1.4-2.8-2c-0.2-0.2-0.3-0.3-0.5-0.4c-0.2-0.2-0.4-0.4-0.8-0.6
		c-0.4-0.3-0.7-0.6-1-0.8c0.1,0,0.3,0,0.4,0c1.4,0,2,0.2,2.2,0.3c0.4,0.5,0.9,1,1.4,1.5c0.2,0.2,0.5,0.5,0.8,0.7
		C-370.3,434.3-370.2,434.8-370.1,435.3L-370.1,435.3z"/>
	<path class="st3" d="M-370.1,435.3c-1.2-0.4-2.2-1.4-2.8-2c-0.2-0.2-0.3-0.3-0.5-0.4c-0.2-0.2-0.4-0.4-0.8-0.6
		c-0.4-0.3-0.7-0.6-1-0.8c0.1,0,0.3,0,0.4,0c1.4,0,2,0.2,2.2,0.3c0.4,0.5,0.9,1,1.4,1.5c0.2,0.2,0.5,0.5,0.8,0.7
		C-370.3,434.3-370.2,434.8-370.1,435.3L-370.1,435.3z"/>
	<path class="st4" d="M-370.1,435.3c-1.2-0.4-2.2-1.4-2.8-2c-0.2-0.2-0.3-0.3-0.5-0.4c-0.2-0.2-0.4-0.4-0.8-0.6
		c-0.4-0.3-0.7-0.6-1-0.8c0.1,0,0.3,0,0.4,0c1.4,0,2,0.2,2.2,0.3c0.4,0.5,0.9,1,1.4,1.5c0.2,0.2,0.5,0.5,0.8,0.7
		C-370.3,434.3-370.2,434.8-370.1,435.3L-370.1,435.3z"/>
	<path class="st6" d="M-370.1,435.3c-1.2-0.4-2.2-1.4-2.8-2c-0.2-0.2-0.3-0.3-0.5-0.4c-0.2-0.2-0.4-0.4-0.8-0.6
		c-0.4-0.3-0.7-0.6-1-0.8c0.1,0,0.3,0,0.4,0c1.4,0,2,0.2,2.2,0.3c0.4,0.5,0.9,1,1.4,1.5c0.2,0.2,0.5,0.5,0.8,0.7
		C-370.3,434.3-370.2,434.8-370.1,435.3L-370.1,435.3z"/>
	<path class="st0" d="M-384.1,441.8c0,0-1.1,0.6-1.2,0.9c-0.1,0.4,0.2,0.9-0.9,0.9c-1,0-1.2,0.3-1.5-0.4c-0.3-0.7-2.2-1.7-1-2.1
		c1.1-0.4,1.6-1,3.1-0.9c1.5,0.2,1.6,1,1.6,1L-384.1,441.8z"/>
	<path class="st1" d="M-386.9,442.9c-0.2-0.3-0.5-0.6-0.8-0.9c-0.1,0-0.1-0.1-0.2-0.2c0.2-0.1,0.4-0.2,0.5-0.2
		c0.5-0.2,0.8-0.4,1.3-0.4c0.1,0,0.2,0,0.3,0c0.3,0,0.6,0.1,0.7,0.2c-1,0.6-1.1,1.1-1.1,1.2s0,0.2,0,0.2s0,0-0.1,0
		C-386.5,442.8-386.7,442.8-386.9,442.9L-386.9,442.9z"/>
	<path class="st2" d="M-386.9,442.9c-0.2-0.3-0.5-0.6-0.8-0.9c-0.1,0-0.1-0.1-0.2-0.2c0.2-0.1,0.4-0.2,0.5-0.2
		c0.5-0.2,0.8-0.4,1.3-0.4c0.1,0,0.2,0,0.3,0c0.3,0,0.6,0.1,0.7,0.2c-1,0.6-1.1,1.1-1.1,1.2s0,0.2,0,0.2s0,0-0.1,0
		C-386.5,442.8-386.7,442.8-386.9,442.9L-386.9,442.9z"/>
	<path class="st3" d="M-386.9,442.9c-0.2-0.3-0.5-0.6-0.8-0.9c-0.1,0-0.1-0.1-0.2-0.2c0.2-0.1,0.4-0.2,0.5-0.2
		c0.5-0.2,0.8-0.4,1.3-0.4c0.1,0,0.2,0,0.3,0c0.3,0,0.6,0.1,0.7,0.2c-1,0.6-1.1,1.1-1.1,1.2s0,0.2,0,0.2s0,0-0.1,0
		C-386.5,442.8-386.7,442.8-386.9,442.9L-386.9,442.9z"/>
	<path class="st4" d="M-386.9,442.9c-0.2-0.3-0.5-0.6-0.8-0.9c-0.1,0-0.1-0.1-0.2-0.2c0.2-0.1,0.4-0.2,0.5-0.2
		c0.5-0.2,0.8-0.4,1.3-0.4c0.1,0,0.2,0,0.3,0c0.3,0,0.6,0.1,0.7,0.2c-1,0.6-1.1,1.1-1.1,1.2s0,0.2,0,0.2s0,0-0.1,0
		C-386.5,442.8-386.7,442.8-386.9,442.9L-386.9,442.9z"/>
	<path class="st6" d="M-386.9,442.9c-0.2-0.3-0.5-0.6-0.8-0.9c-0.1,0-0.1-0.1-0.2-0.2c0.2-0.1,0.4-0.2,0.5-0.2
		c0.5-0.2,0.8-0.4,1.3-0.4c0.1,0,0.2,0,0.3,0c0.3,0,0.6,0.1,0.7,0.2c-1,0.6-1.1,1.1-1.1,1.2s0,0.2,0,0.2s0,0-0.1,0
		C-386.5,442.8-386.7,442.8-386.9,442.9L-386.9,442.9z"/>
	<path class="st0" d="M-384.5,443.5c0,0,1.7-1,1.7-1.4c0-0.5-0.5-1,1.2-1.3s1.9-0.7,2.6,0.1c0.7,0.7,3.9,1.6,2.2,2.3
		c-1.8,0.7-2.4,1.7-4.9,1.8c-2.4,0.2-2.9-0.9-2.9-0.9L-384.5,443.5z"/>
	<path class="st1" d="M-382.2,444.1c-0.7,0-1.1-0.1-1.3-0.2c1.6-1,1.6-1.5,1.6-1.8c0-0.2,0-0.3,0-0.4c0.1,0,0.3-0.1,0.6-0.1
		c0.5-0.1,0.8-0.2,1.1-0.2c0.2-0.1,0.5-0.1,0.6-0.1c0,0,0.1,0,0.2,0.2c0.3,0.4,0.9,0.6,1.5,0.9c0.1,0.1,0.3,0.2,0.5,0.3
		c-0.4,0.2-0.8,0.4-1.1,0.6c-0.9,0.5-1.6,0.9-3.1,1C-381.9,444.1-382.1,444.1-382.2,444.1z"/>
	<path class="st2" d="M-381.5,443.3c0.3-0.4,0.4-0.7,0.4-0.9c0.4-0.1,0.7-0.2,1-0.2h0.1c0.2,0.2,0.4,0.3,0.7,0.5
		C-380,442.9-380.5,443.2-381.5,443.3z"/>
	<path class="st3" d="M-381.5,443.3c0.3-0.4,0.4-0.7,0.4-0.9c0.4-0.1,0.7-0.2,1-0.2h0.1c0.2,0.2,0.4,0.3,0.7,0.5
		C-380,442.9-380.5,443.2-381.5,443.3z"/>
	<path class="st4" d="M-381.5,443.3c0.3-0.4,0.4-0.7,0.4-0.9c0.4-0.1,0.7-0.2,1-0.2h0.1c0.2,0.2,0.4,0.3,0.7,0.5
		C-380,442.9-380.5,443.2-381.5,443.3z"/>
	<path class="st6" d="M-381.5,443.3c0.3-0.4,0.4-0.7,0.4-0.9c0.4-0.1,0.7-0.2,1-0.2h0.1c0.2,0.2,0.4,0.3,0.7,0.5
		C-380,442.9-380.5,443.2-381.5,443.3z"/>
</g>
</svg>
