<?xml version="1.0" encoding="utf-8"?>
<!-- Generator: Adobe Illustrator 19.1.0, SVG Export Plug-In . SVG Version: 6.00 Build 0)  -->
<svg version="1.1" id="Layer_1" xmlns="http://www.w3.org/2000/svg" xmlns:xlink="http://www.w3.org/1999/xlink" x="0px" y="0px"
	 viewBox="0 0 25.8 32.1" enable-background="new 0 0 25.8 32.1" xml:space="preserve">
<g>
	<path fill="#666666" d="M5.3,0.3c0,0-3.3,1.6-2.5,3.9s3,6.3,5.9,5.7s8-7.9,5.3-9.1S5.3,0.3,5.3,0.3z"/>
	<path fill="#6D6D6D" d="M8.1,9C6.3,9,4.5,6.3,3.6,3.8C3.1,2.5,5.1,1.3,5.5,1.1C6,1,7.7,0.8,9.4,0.8c1.9,0,3.4,0.2,4.3,0.6
		c0.1,0,0.3,0.1,0.3,0.8C13.8,4.4,10.4,8.6,8.6,9C8.4,9,8.3,9,8.1,9L8.1,9z"/>
	<path fill="#707070" d="M8.1,8.2c-1.2,0-2.8-2-3.8-4.6C4.2,3,5.1,2.3,5.8,1.9c0.6-0.1,2.1-0.2,3.6-0.2c1.6,0,2.9,0.2,3.7,0.4
		c0,0,0,0,0,0c-0.2,2-3.4,5.8-4.8,6.1C8.3,8.2,8.2,8.2,8.1,8.2z"/>
	<path fill="#757575" d="M8.1,7.4c-0.5,0-2-1.4-2.9-4C5.3,3.3,5.6,3,6.1,2.7c0.7-0.1,2-0.2,3.4-0.2c1.1,0,2,0.1,2.8,0.2
		C11.5,4.5,9.1,7.2,8.1,7.4L8.1,7.4z"/>
	<path fill="#7F7F7F" d="M8.1,6.5c-0.4-0.2-1.3-1.2-2-2.9c0.1,0,0.1-0.1,0.2-0.1C7,3.4,8.2,3.3,9.4,3.3c0.5,0,1.1,0,1.5,0.1
		C10.1,4.7,8.7,6.2,8.1,6.5z"/>
	<path fill="#666666" d="M8.7,12.1c0,0-1,2.8,0.7,3.6s5.1,1.6,6.5-0.4s0.4-8.9-1.8-7.9S8.7,12.1,8.7,12.1z"/>
	<path fill="#6D6D6D" d="M13.1,15.7c-1.4,0-2.9-0.6-3.3-0.8c-0.8-0.4-0.4-2-0.3-2.4c0.9-1.1,3.3-3.7,4.9-4.4c0,0,0,0,0,0
		c0.1,0,0.3,0.1,0.5,0.5c0.9,1.6,1,5.1,0.3,6.2C14.8,15.4,14.1,15.7,13.1,15.7C13.1,15.7,13.1,15.7,13.1,15.7z"/>
	<path fill="#707070" d="M13.1,14.9c-1.3,0-2.7-0.6-3-0.7c0-0.1-0.1-0.6,0.1-1.3c1-1.2,2.8-3.1,4.1-3.8c0.7,1.5,0.8,4.5,0.3,5.3
		C14.3,14.7,13.8,14.9,13.1,14.9z"/>
	<path fill="#757575" d="M13.1,14c-0.8,0-1.6-0.3-2.2-0.4c0-0.1,0-0.2,0.1-0.3c0.8-1,1.9-2.1,2.9-2.9c0.3,1.4,0.2,3.1,0,3.5
		C13.8,13.9,13.6,14,13.1,14z"/>
	<path fill="#7F7F7F" d="M13.1,13.2c-0.3,0-0.6,0-0.9-0.1c0.3-0.4,0.7-0.7,1-1.1C13.2,12.5,13.2,12.9,13.1,13.2
		C13.1,13.2,13.1,13.2,13.1,13.2z"/>
	<path fill="#666666" d="M15.7,3.4c0,0-1.1,0.5-0.6,1.8c0.5,1.4,0.5,1.8,1.4,2.6c0.9,0.8,2,1.1,2.9,0.2s1.1-1.4,1.2-2.9
		c0.1-1.5,0.7-2.5-1.6-2.8S17.2,2,16.2,2.9C15.2,3.8,15.7,3.4,15.7,3.4z"/>
	<path fill="#6D6D6D" d="M18.2,7.7c-0.3,0-0.8-0.2-1.2-0.6c-0.5-0.5-0.6-0.7-0.9-1.5c-0.1-0.2-0.2-0.5-0.3-0.8
		c-0.2-0.4-0.1-0.6,0.1-0.8l0.1-0.1L16.2,4c0.1-0.1,0.2-0.2,0.5-0.5L17,2.8c0.1-0.1,0.2-0.7,0.3-0.7c0,0,0,0,0,0
		c0.3,0,0.7,0.5,1.3,0.6l0.3,0.3C20,3.1,20,3.2,19.9,4.3c0,0.2-0.1,0.5-0.1,0.7c-0.1,1.3-0.3,1.7-1,2.4C18.6,7.6,18.5,7.7,18.2,7.7z
		"/>
	<path fill="#707070" d="M18.2,6.9c-0.1,0-0.3-0.1-0.6-0.3c-0.4-0.3-0.4-0.4-0.7-1.2c-0.1-0.2-0.2-0.5-0.3-0.7l0,0
		c0.1-0.1,0.3-0.3,0.6-0.5L17.4,4l0.3-0.5c0.2,0.1,0.4,0.1,0.7,0.2l0.3,0.2c0,0,0.3,0,0.4,0.1c0,0.1,0,0.2,0,0.3C19,4.5,19,4.7,19,5
		C18.9,6.2,18.7,6.3,18.2,6.9L18.2,6.9z"/>
	<path fill="#757575" d="M18,5.8c-0.1-0.1-0.1-0.2-0.3-0.7c0-0.1-0.1-0.1-0.1-0.2c0.1-0.1,0.3-0.3,0.3-0.3l0.1-0.1c0,0,0,0,0,0
		l0.1,0c0,0.1,0,0.2,0,0.4C18.1,5.4,18.1,5.6,18,5.8z"/>
	<path fill="#7F7F7F" d="M18,5.8c-0.1-0.1-0.1-0.2-0.3-0.7c0-0.1-0.1-0.1-0.1-0.2c0.1-0.1,0.3-0.3,0.3-0.3l0.1-0.1c0,0,0,0,0,0
		l0.1,0c0,0.1,0,0.2,0,0.4C18.1,5.4,18.1,5.6,18,5.8z"/>
	<path fill="#666666" d="M3.8,16.4c0,0,2.4-1.4,3.7-0.7c1.3,0.7,3.6,1.3,3.8,1.9c0.3,0.7,3.1,2.7,1.1,3.2s-4.1-0.8-5-1.1
		s-3.7-1-3.9-1.8C3.5,17.2,3.8,16.4,3.8,16.4z"/>
	<path fill="#6D6D6D" d="M11.5,20.2c-1.1,0-2.2-0.5-3-0.9C8.2,19.2,8,19.1,7.8,19c-0.2-0.1-0.5-0.2-0.9-0.3c-0.6-0.2-2.1-0.6-2.5-1
		c0-0.3,0-0.6,0.1-0.8c0.5-0.3,1.4-0.6,2.1-0.6c0.2,0,0.4,0,0.5,0.1C7.7,16.7,8.3,17,9,17.2c0.6,0.2,1.5,0.6,1.7,0.8
		c0.1,0.2,0.4,0.6,0.8,1c0.2,0.3,0.7,1.1,0.9,1.1c0,0,0,0,0,0C12,20.1,11.8,20.2,11.5,20.2z"/>
	<path fill="#707070" d="M10.5,19.3c-0.5-0.2-0.9-0.4-1.4-0.6l-0.3-0.1c-0.1,0-0.2-0.1-0.3-0.1c-0.2-0.1-0.3-0.2-0.5-0.2
		c-0.2-0.1-0.5-0.2-0.9-0.3c-0.8-0.2-1.3-0.4-1.6-0.5c0.4-0.1,0.8-0.3,1.1-0.3c0.1,0,0.1,0,0.1,0C7.3,17.5,8,17.7,8.7,18
		c0.3,0.1,1,0.4,1.3,0.5C10.1,18.8,10.3,19,10.5,19.3z"/>
	<path fill="#757575" d="M10.5,19.3c-0.5-0.2-0.9-0.4-1.4-0.6l-0.3-0.1c-0.1,0-0.2-0.1-0.3-0.1c-0.2-0.1-0.3-0.2-0.5-0.2
		c-0.2-0.1-0.5-0.2-0.9-0.3c-0.8-0.2-1.3-0.4-1.6-0.5c0.4-0.1,0.8-0.3,1.1-0.3c0.1,0,0.1,0,0.1,0C7.3,17.5,8,17.7,8.7,18
		c0.3,0.1,1,0.4,1.3,0.5C10.1,18.8,10.3,19,10.5,19.3z"/>
	<path fill="#7F7F7F" d="M10.5,19.3c-0.5-0.2-0.9-0.4-1.4-0.6l-0.3-0.1c-0.1,0-0.2-0.1-0.3-0.1c-0.2-0.1-0.3-0.2-0.5-0.2
		c-0.2-0.1-0.5-0.2-0.9-0.3c-0.8-0.2-1.3-0.4-1.6-0.5c0.4-0.1,0.8-0.3,1.1-0.3c0.1,0,0.1,0,0.1,0C7.3,17.5,8,17.7,8.7,18
		c0.3,0.1,1,0.4,1.3,0.5C10.1,18.8,10.3,19,10.5,19.3z"/>
	<path fill="#666666" d="M3.5,7.8c0,0,1.2,2,2,2.3s2,0.1,2,1.7s0.6,2-0.9,2.3c-1.5,0.2-4,2.8-4.8,0.8s-2.1-3-1.6-5.2
		s2.5-2.2,2.5-2.2L3.5,7.8z"/>
	<path fill="#6D6D6D" d="M2.7,14.8c-0.1,0-0.1,0-0.2-0.2c-0.2-0.7-0.6-1.3-0.8-1.8c-0.6-1-1-1.8-0.7-3c0.3-1.3,1.2-1.5,1.5-1.5
		l0.5,0.2c0.5,0.8,1.4,2.1,2.3,2.4c0.2,0.1,0.4,0.1,0.6,0.1c0.7,0.1,0.8,0.1,0.8,0.8c0,0.5,0,0.8,0.1,1.1c0,0.1,0,0.2,0,0.3
		c-0.1,0-0.2,0-0.3,0.1c-0.6,0.1-1.3,0.5-2,0.8C3.8,14.4,3,14.8,2.7,14.8z"/>
	<path fill="#707070" d="M3.1,13.8c-0.2-0.5-0.5-1-0.7-1.4c-0.5-1-0.8-1.5-0.6-2.4c0.1-0.6,0.4-0.8,0.6-0.9l0,0
		c0.9,1.4,1.7,2.2,2.6,2.5c0.2,0.1,0.5,0.1,0.7,0.2c0,0,0.1,0,0.1,0c0,0.3,0,0.5,0,0.7c-0.6,0.2-1.3,0.5-1.8,0.8
		C3.7,13.5,3.4,13.7,3.1,13.8z"/>
	<path fill="#757575" d="M3.4,12.7c-0.1-0.2-0.2-0.5-0.4-0.7c-0.4-0.7-0.5-1-0.6-1.3c0.6,0.7,1.2,1.3,1.8,1.6
		c-0.3,0.1-0.5,0.3-0.7,0.4C3.5,12.6,3.5,12.6,3.4,12.7z"/>
	<path fill="#7F7F7F" d="M3.4,12.7c-0.1-0.2-0.2-0.5-0.4-0.7c-0.4-0.7-0.5-1-0.6-1.3c0.6,0.7,1.2,1.3,1.8,1.6
		c-0.3,0.1-0.5,0.3-0.7,0.4C3.5,12.6,3.5,12.6,3.4,12.7z"/>
	<path fill="#666666" d="M21.6,17.3c0,0-3.6-0.5-4-3.1s-0.8-5.6,1.1-4.7s2.7,3.3,3.7,4c1,0.7,1.9,2.1,1.1,3.1S21.6,17.3,21.6,17.3z"
		/>
	<path fill="#6D6D6D" d="M21.9,16.5c-0.1,0-0.2,0-0.2,0c0,0-3-0.5-3.3-2.4c-0.1-0.9-0.5-3.2-0.2-3.9c0,0,0.1,0,0.1,0
		c0.9,0.5,1.6,1.4,2.2,2.3c0.5,0.7,0.9,1.3,1.5,1.7c0.5,0.3,1,0.9,1,1.4c0,0.3,0,0.4-0.1,0.5C22.7,16.5,22.3,16.5,21.9,16.5z"/>
	<path fill="#707070" d="M21.9,15.7c0,0-2.4-0.4-2.6-1.7c-0.1-0.9-0.2-1.5-0.3-2c0.3,0.3,0.6,0.7,0.8,1.1c0.5,0.7,1,1.4,1.7,1.9
		c0.3,0.2,0.6,0.5,0.7,0.8C22.1,15.7,22,15.7,21.9,15.7L21.9,15.7z"/>
	<path fill="#757575" d="M21.9,15.7c0,0-2.4-0.4-2.6-1.7c-0.1-0.9-0.2-1.5-0.3-2c0.3,0.3,0.6,0.7,0.8,1.1c0.5,0.7,1,1.4,1.7,1.9
		c0.3,0.2,0.6,0.5,0.7,0.8C22.1,15.7,22,15.7,21.9,15.7L21.9,15.7z"/>
	<path fill="#7F7F7F" d="M21.9,15.7c0,0-2.4-0.4-2.6-1.7c-0.1-0.9-0.2-1.5-0.3-2c0.3,0.3,0.6,0.7,0.8,1.1c0.5,0.7,1,1.4,1.7,1.9
		c0.3,0.2,0.6,0.5,0.7,0.8C22.1,15.7,22,15.7,21.9,15.7L21.9,15.7z"/>
	<path fill="#666666" d="M19.4,17.3c0,0-2.8,0.2-3.4,2.2c-0.3,0.9,0.8,1.6,0.8,2.7c0,1.4-0.1,2.2,1.1,2.5c2.2,0.5,8.2-2.2,7-4
		C23.6,18.8,19.4,17.3,19.4,17.3z"/>
	<path fill="#6D6D6D" d="M18.5,23.9c-0.2,0-0.3,0-0.4,0c-0.4-0.1-0.4-0.1-0.4-1.2l0-0.5c0-0.8-0.3-1.3-0.6-1.8
		c-0.2-0.3-0.3-0.6-0.3-0.7c0.3-1.1,2-1.5,2.5-1.5c1.2,0.5,4.1,1.7,4.9,2.9c0,0,0,0.1,0,0.2C23.5,22.4,20.3,23.9,18.5,23.9
		L18.5,23.9z"/>
	<path fill="#707070" d="M18.4,23.1c0,0,0-0.9,0-0.9c0-1-0.4-1.7-0.7-2.2c-0.1-0.1-0.1-0.2-0.1-0.2c0.2-0.4,0.9-0.6,1.6-0.8
		c1.5,0.6,3.2,1.5,4,2.2C22.4,21.9,20,23.1,18.4,23.1C18.5,23.1,18.5,23.1,18.4,23.1z"/>
	<path fill="#757575" d="M19.3,22c0-0.9-0.3-1.5-0.6-2c0.1,0,0.2-0.1,0.4-0.1c1.1,0.4,2,0.9,2.6,1.2C21,21.4,20.1,21.8,19.3,22z"/>
	<path fill="#7F7F7F" d="M19.3,22c0-0.9-0.3-1.5-0.6-2c0.1,0,0.2-0.1,0.4-0.1c1.1,0.4,2,0.9,2.6,1.2C21,21.4,20.1,21.8,19.3,22z"/>
	<path fill="#666666" d="M9,23.1c0,0-2,1.8-1.2,2.9c0.8,1.1,2.6,2.9,4.4,1.8s4.5-6.5,2.6-6.5S9,23.1,9,23.1z"/>
	<path fill="#6D6D6D" d="M11,27.4c-0.9,0-2-0.9-2.6-1.8c-0.2-0.2,0.3-1.1,1-1.7c1.1-0.5,3.8-1.6,5.2-1.7c0.1,1-1.6,4.2-2.9,5
		C11.5,27.3,11.3,27.4,11,27.4L11,27.4z"/>
	<path fill="#707070" d="M11,26.5c-0.5,0-1.2-0.5-1.7-1.2c0.1-0.2,0.3-0.5,0.6-0.8c1-0.4,2.5-1,3.6-1.3c-0.5,1.1-1.4,2.8-2.2,3.2
		C11.2,26.5,11.1,26.5,11,26.5z"/>
	<path fill="#757575" d="M11,25.7c-0.1,0-0.4-0.2-0.6-0.4c0,0,0-0.1,0.1-0.1c0.4-0.2,1-0.4,1.5-0.6C11.6,25.1,11.2,25.6,11,25.7z"/>
	<path fill="#7F7F7F" d="M11,25.7c-0.1,0-0.4-0.2-0.6-0.4c0,0,0-0.1,0.1-0.1c0.4-0.2,1-0.4,1.5-0.6C11.6,25.1,11.2,25.6,11,25.7z"/>
	<path fill="#666666" d="M19.8,25.7c0,0-1,0-1.3,1.2c-0.3,1.2-0.5,1.5-0.3,2.4s0.8,1.5,1.8,1.1c1-0.4,1.4-0.7,2.2-1.7
		s1.6-1.6,0.3-2.6c-1.3-1-1.1-0.9-2.1-0.6C19.3,25.8,19.8,25.7,19.8,25.7z"/>
	<path fill="#6D6D6D" d="M19.5,29.6c-0.3,0-0.4-0.5-0.4-0.6c-0.1-0.5-0.1-0.7,0.1-1.3c0.1-0.2,0.1-0.4,0.2-0.7
		c0.1-0.5,0.4-0.5,0.5-0.6l0.1,0c0,0,0.3-0.1,0.7-0.2l0.3-0.1c0.1,0,0.2-0.1,0.3-0.1c0,0,0.3,0.2,0.6,0.5l0.2,0.1
		c0.3,0.2,0.4,0.4,0.4,0.4c0,0.1-0.3,0.4-0.5,0.6c-0.1,0.1-0.2,0.3-0.4,0.5c-0.7,1-1,1.1-1.8,1.5C19.6,29.6,19.5,29.6,19.5,29.6z"/>
	<path fill="#707070" d="M19.8,28.6c0-0.1,0-0.3,0.2-0.7c0.1-0.2,0.1-0.4,0.2-0.7l0.1,0c0,0,0.3-0.1,0.7-0.2L21,27
		c0.1,0.1,0.2,0.2,0.2,0.2c-0.1,0.2-0.3,0.3-0.4,0.5C20.4,28.3,20.2,28.5,19.8,28.6z"/>
	<path fill="#757575" d="M19.8,28.6c0-0.1,0-0.3,0.2-0.7c0.1-0.2,0.1-0.4,0.2-0.7l0.1,0c0,0,0.3-0.1,0.7-0.2L21,27
		c0.1,0.1,0.2,0.2,0.2,0.2c-0.1,0.2-0.3,0.3-0.4,0.5C20.4,28.3,20.2,28.5,19.8,28.6z"/>
	<path fill="#7F7F7F" d="M19.8,28.6c0-0.1,0-0.3,0.2-0.7c0.1-0.2,0.1-0.4,0.2-0.7l0.1,0c0,0,0.3-0.1,0.7-0.2L21,27
		c0.1,0.1,0.2,0.2,0.2,0.2c-0.1,0.2-0.3,0.3-0.4,0.5C20.4,28.3,20.2,28.5,19.8,28.6z"/>
	<path fill="#666666" d="M21.2,7.6c0,0,2.2-0.2,2.7,0.7s1.7,2.1,1.6,2.7c-0.2,0.6,1,3.2-0.5,2.9s-2.6-2.1-3-2.6
		c-0.4-0.6-2-2-1.7-2.6S21.2,7.6,21.2,7.6z"/>
	<path fill="#6D6D6D" d="M24.9,13.1c-0.9-0.3-1.7-1.3-2.1-1.9c-0.1-0.1-0.2-0.3-0.3-0.4c-0.1-0.1-0.3-0.3-0.5-0.5
		c-0.3-0.3-0.9-1-1.1-1.4c0.1-0.2,0.3-0.4,0.4-0.5c0.1,0,0.2,0,0.3,0c0.9,0,1.4,0.2,1.4,0.3c0.2,0.4,0.5,0.9,0.9,1.3
		c0.2,0.3,0.6,0.8,0.6,1c-0.1,0.3,0,0.7,0.1,1.2C24.8,12.3,24.9,12.8,24.9,13.1z"/>
	<path fill="#707070" d="M23.8,11.1c-0.1-0.2-0.2-0.3-0.3-0.5c-0.1-0.2-0.2-0.3-0.3-0.4c-0.1-0.1-0.3-0.3-0.5-0.6
		c-0.2-0.2-0.3-0.4-0.5-0.5c0.1,0,0.2,0,0.3,0.1c0.2,0.4,0.5,0.8,0.8,1.2C23.5,10.6,23.7,10.9,23.8,11.1
		C23.8,11.1,23.8,11.1,23.8,11.1z"/>
	<path fill="#757575" d="M23.8,11.1c-0.1-0.2-0.2-0.3-0.3-0.5c-0.1-0.2-0.2-0.3-0.3-0.4c-0.1-0.1-0.3-0.3-0.5-0.6
		c-0.2-0.2-0.3-0.4-0.5-0.5c0.1,0,0.2,0,0.3,0.1c0.2,0.4,0.5,0.8,0.8,1.2C23.5,10.6,23.7,10.9,23.8,11.1
		C23.8,11.1,23.8,11.1,23.8,11.1z"/>
	<path fill="#7F7F7F" d="M23.8,11.1c-0.1-0.2-0.2-0.3-0.3-0.5c-0.1-0.2-0.2-0.3-0.3-0.4c-0.1-0.1-0.3-0.3-0.5-0.6
		c-0.2-0.2-0.3-0.4-0.5-0.5c0.1,0,0.2,0,0.3,0.1c0.2,0.4,0.5,0.8,0.8,1.2C23.5,10.6,23.7,10.9,23.8,11.1
		C23.8,11.1,23.8,11.1,23.8,11.1z"/>
	<path fill="#666666" d="M16,18c0,0-0.7,0.5-0.7,0.8c0,0.3,0.1,0.8-0.5,0.8c-0.6,0-0.7,0.3-0.9-0.3s-1.3-1.5-0.6-1.8
		c0.7-0.3,1-0.9,1.9-0.8c0.9,0.1,1,0.9,1,0.9L16,18z"/>
	<path fill="#6D6D6D" d="M14.4,18.8c-0.1-0.2-0.2-0.4-0.4-0.6c0-0.1-0.1-0.1-0.1-0.2c0.1-0.1,0.2-0.1,0.3-0.2
		c0.3-0.2,0.4-0.3,0.6-0.3c0,0,0.1,0,0.1,0c0.1,0,0.2,0,0.2,0.1C14.8,17.9,14.5,18.3,14.4,18.8C14.4,18.8,14.4,18.8,14.4,18.8z"/>
	<path fill="#707070" d="M14.4,18.8c-0.1-0.2-0.2-0.4-0.4-0.6c0-0.1-0.1-0.1-0.1-0.2c0.1-0.1,0.2-0.1,0.3-0.2
		c0.3-0.2,0.4-0.3,0.6-0.3c0,0,0.1,0,0.1,0c0.1,0,0.2,0,0.2,0.1C14.8,17.9,14.5,18.3,14.4,18.8C14.4,18.8,14.4,18.8,14.4,18.8z"/>
	<path fill="#757575" d="M14.4,18.8c-0.1-0.2-0.2-0.4-0.4-0.6c0-0.1-0.1-0.1-0.1-0.2c0.1-0.1,0.2-0.1,0.3-0.2
		c0.3-0.2,0.4-0.3,0.6-0.3c0,0,0.1,0,0.1,0c0.1,0,0.2,0,0.2,0.1C14.8,17.9,14.5,18.3,14.4,18.8C14.4,18.8,14.4,18.8,14.4,18.8z"/>
	<path fill="#7F7F7F" d="M14.4,18.8c-0.1-0.2-0.2-0.4-0.4-0.6c0-0.1-0.1-0.1-0.1-0.2c0.1-0.1,0.2-0.1,0.3-0.2
		c0.3-0.2,0.4-0.3,0.6-0.3c0,0,0.1,0,0.1,0c0.1,0,0.2,0,0.2,0.1C14.8,17.9,14.5,18.3,14.4,18.8C14.4,18.8,14.4,18.8,14.4,18.8z"/>
	<path fill="#666666" d="M14.8,31.8c0,0-2.1-1.6-1.1-3.6s2.2-4.5,2.9-3.1c0.7,1.3,0.2,3.3,0.5,4.2c0.3,0.9,0.2,2.2-0.7,2.7
		C15.5,32.4,14.8,31.8,14.8,31.8z"/>
	<path fill="#6D6D6D" d="M15.7,31.2c-0.2,0-0.4-0.1-0.4-0.1c-0.1,0-1.5-1.2-0.9-2.6c0.3-0.7,1.1-2.2,1.6-2.8c0.2,0.6,0.2,1.4,0.2,2
		c0,0.7,0,1.3,0.2,1.8c0.2,0.5,0.1,1.4-0.3,1.6C16,31.2,15.8,31.2,15.7,31.2z"/>
	<path fill="#707070" d="M15.7,30.4c-0.2-0.2-0.8-0.8-0.5-1.5c0.1-0.1,0.1-0.3,0.2-0.5c0,0.5,0.1,1,0.2,1.4
		C15.7,30,15.7,30.2,15.7,30.4z"/>
	<path fill="#757575" d="M15.7,30.4c-0.2-0.2-0.8-0.8-0.5-1.5c0.1-0.1,0.1-0.3,0.2-0.5c0,0.5,0.1,1,0.2,1.4
		C15.7,30,15.7,30.2,15.7,30.4z"/>
	<path fill="#7F7F7F" d="M15.7,30.4c-0.2-0.2-0.8-0.8-0.5-1.5c0.1-0.1,0.1-0.3,0.2-0.5c0,0.5,0.1,1,0.2,1.4
		C15.7,30,15.7,30.2,15.7,30.4z"/>
</g>
</svg>
