<?xml version="1.0" encoding="utf-8"?>
<!-- Generator: Adobe Illustrator 19.1.0, SVG Export Plug-In . SVG Version: 6.00 Build 0)  -->
<svg version="1.1" xmlns="http://www.w3.org/2000/svg" xmlns:xlink="http://www.w3.org/1999/xlink" x="0px" y="0px"
	 viewBox="0 0 175.6 48.7" enable-background="new 0 0 175.6 48.7" xml:space="preserve">
<g id="Layer_1">
</g>
<g id="L3_x5F_s8">
</g>
<g id="L3_x5F_s7">
</g>
<g id="L3_x5F_s6">
</g>
<g id="L3_x5F_s5">
</g>
<g id="L3_x5F_s4">
</g>
<g id="L3_x5F_s3">
</g>
<g id="L3_x5F_s2">
</g>
<g id="L3_x5F_s1">
</g>
<g id="L2_x5F_s8_1_">
</g>
<g id="L2_x5F_s7">
</g>
<g id="L2_x5F_s6">
</g>
<g id="L2_x5F_s5">
</g>
<g id="L2_x5F_s4">
</g>
<g id="L2_x5F_s3">
</g>
<g id="L2_x5F_s2">
</g>
<g id="L2_x5F_s1">
</g>
<g id="L1_x5F_s8">
</g>
<g id="L1_x5F_s7">
	<g>
		<path id="L1_x5F_l3_x5F_s7" fill="#F4750C" d="M137.3,46.8c0,0,48.9-6.5,36.3-17.5s-37.5-6.4-69.3-18.1S61.2-4.6,33.3,6.8
			s-0.8,13-22.5,21C-13,36.5,6.6,43.9,29.9,42s38.7-6.7,55.3,2S137.3,46.8,137.3,46.8z"/>
		<path id="L1_x5F_l2_x5F_s7" fill="#F78406" d="M70.9,7.3C80.4,7.7,91,12,107,18.5c16.2,6.5,30.7,8.6,42.4,10.3
			c6.3,0.9,11.9,1.7,16.2,3c-6.3,2.3-15.4,4.8-24,6.3l-0.2,0l-0.2,0c-0.1,0-15.6,3.2-29.9,2.5c-8.7-0.4-13.1-2.1-15.4-3.4
			c-7-4.1-14.6-6.3-23-6.7c-8.2-0.4-16.5,0.9-25.3,2.3c-4.5,0.7-9.2,1.4-14.3,2c-1.8,0.2-3.6,0.3-5.3,0.4c7.3-5.3,8.3-10.9,7.7-16.1
			c1.2-0.9,3.5-2.4,7.7-4.5C55.2,9,63.1,6.9,70.9,7.3z"/>
		<path id="L1_x5F_l1_x5F_s7" fill="#FFAE43" fill-opacity="0.55" d="M71.4,13c8.3,0.4,18.3,4.4,33.4,10.3
			c12.3,4.9,23.5,7.2,33.3,8.8c-3.3,0.6-15.5,2.7-26.8,2.1c-8.1-0.4-11.5-1.9-12.6-2.5C91.1,27.3,83,25,74,24.6
			c-8.5-0.4-16.8,0.9-25.6,2.2c-2.1,0.3-4.3,0.7-6.5,1c0.6-1.9,1-3.8,1-5.9c1.1-0.6,2.5-1.4,4.4-2.3C57.8,14.5,64.8,12.6,71.4,13z"
			/>
		<rect id="L1_x5F_s7_x5F_c" x="75.5" y="15" fill="none" width="9.3" height="9.3"/>
	</g>
</g>
<g id="L1_x5F_s6">
</g>
<g id="L1_x5F_s5">
</g>
<g id="L1_x5F_s4">
</g>
<g id="L1_x5F_s3">
</g>
<g id="L1_x5F_s2">
</g>
<g id="L1_x5F_s1">
</g>
</svg>
