<?xml version="1.0" encoding="utf-8"?>
<!-- Generator: Adobe Illustrator 19.1.0, SVG Export Plug-In . SVG Version: 6.00 Build 0)  -->
<svg version="1.1" xmlns="http://www.w3.org/2000/svg" xmlns:xlink="http://www.w3.org/1999/xlink" x="0px" y="0px"
	 viewBox="0 0 175.6 48.7" enable-background="new 0 0 175.6 48.7" xml:space="preserve">
<g id="Layer_1">
</g>
<g id="L3_x5F_s8">
</g>
<g id="L3_x5F_s7">
</g>
<g id="L3_x5F_s6">
</g>
<g id="L3_x5F_s5">
</g>
<g id="L3_x5F_s4">
</g>
<g id="L3_x5F_s3">
</g>
<g id="L3_x5F_s2">
</g>
<g id="L3_x5F_s1">
</g>
<g id="L2_x5F_s8_1_">
</g>
<g id="L2_x5F_s7">
</g>
<g id="L2_x5F_s6">
</g>
<g id="L2_x5F_s5">
</g>
<g id="L2_x5F_s4">
</g>
<g id="L2_x5F_s3">
</g>
<g id="L2_x5F_s2">
</g>
<g id="L2_x5F_s1">
</g>
<g id="L1_x5F_s8">
</g>
<g id="L1_x5F_s7">
</g>
<g id="L1_x5F_s6">
	<g>
		<path id="L1_x5F_l3_x5F_s6" fill="#F4750C" d="M137.3,46.8c0,0,48.9-6.5,36.3-17.5s-37.5-6.4-69.3-18.1S61.2-4.6,33.3,6.8
			s-0.8,13-22.5,21C-13,36.5,6.6,43.9,29.9,42s38.7-6.7,55.3,2S137.3,46.8,137.3,46.8z"/>
		<path id="L1_x5F_l2_x5F_s6" fill="#F78406" d="M64.4,6.8c8.8,0.4,18.6,4.7,33.5,11.1c15,6.5,28.6,8.5,39.4,10.1
			c5.9,0.9,11,1.7,15.1,2.9c-5.9,2.4-14.3,4.8-22.3,6.3l-0.2,0l-0.2,0c-0.1,0-14.5,3.3-27.8,2.6c-8-0.4-12.2-2-14.3-3.3
			c-6.5-4.1-13.5-6.3-21.3-6.6c-7.6-0.4-15.4,1-23.6,2.4c-4.2,0.7-8.6,1.5-13.3,2.1c-1.7,0.2-3.3,0.3-5,0.4
			c6.8-5.3,7.7-10.9,7.2-16.1c1.1-0.9,3.2-2.4,7.2-4.5C49.8,8.6,57.2,6.4,64.4,6.8z"/>
		<path id="L1_x5F_l1_x5F_s6" fill="#FFAE43" fill-opacity="0.55" d="M60.6,13.8c6.7,0.3,14.7,3.6,26.9,8.6c9.9,4.1,18.9,6,26.7,7.3
			c-2.6,0.5-12.5,2.3-21.6,1.8c-6.5-0.3-9.3-1.6-10.1-2.1c-6.1-3.6-12.6-5.6-19.8-5.9c-6.8-0.3-13.5,0.7-20.6,1.9
			c-1.7,0.3-3.4,0.6-5.2,0.8c0.5-1.6,0.8-3.2,0.9-5c0.9-0.5,2-1.2,3.6-1.9C49.7,15.2,55.3,13.6,60.6,13.8z"/>
		<rect id="L1_x5F_s1_x5F_c_1_" x="62.5" y="15" fill="none" width="9.3" height="9.3"/>
	</g>
</g>
<g id="L1_x5F_s5">
</g>
<g id="L1_x5F_s4">
</g>
<g id="L1_x5F_s3">
</g>
<g id="L1_x5F_s2">
</g>
<g id="L1_x5F_s1">
</g>
</svg>
