<?xml version="1.0" encoding="utf-8"?>
<!-- Generator: Adobe Illustrator 19.1.0, SVG Export Plug-In . SVG Version: 6.00 Build 0)  -->
<svg version="1.1" xmlns="http://www.w3.org/2000/svg" xmlns:xlink="http://www.w3.org/1999/xlink" x="0px" y="0px"
	 viewBox="0 0 222.7 61.6" enable-background="new 0 0 222.7 61.6" xml:space="preserve">
<g id="Layer_1">
</g>
<g id="L3_x5F_s8">
</g>
<g id="L3_x5F_s7">
</g>
<g id="L3_x5F_s6">
</g>
<g id="L3_x5F_s5">
</g>
<g id="L3_x5F_s4">
</g>
<g id="L3_x5F_s3">
</g>
<g id="L3_x5F_s2">
</g>
<g id="L3_x5F_s1">
</g>
<g id="L2_x5F_s8_1_">
</g>
<g id="L2_x5F_s7">
</g>
<g id="L2_x5F_s6">
</g>
<g id="L2_x5F_s5">
</g>
<g id="L2_x5F_s4">
</g>
<g id="L2_x5F_s3">
</g>
<g id="L2_x5F_s2">
</g>
<g id="L2_x5F_s1">
</g>
<g id="L1_x5F_s8">
	<g>
		<path id="L1_x5F_l3_x5F_s8" fill="#F4750C" d="M173.6,59.1c0,0,62.2-8.2,46.6-22.1s-47.4-8.1-87.2-22.9S78.9-5.9,43.2,8.5
			S41.8,25,14,35.1c-30.5,11-5.9,20.4,23.7,18.1s49.3-8.5,70.1,2.5S173.6,59.1,173.6,59.1z"/>
		<path id="L1_x5F_l2_x5F_s8" fill="#F78406" d="M83.6,4.9c12.7,0.6,26.8,7.4,48,17.6c21.5,10.3,40.9,13.5,56.6,16
			c8.4,1.4,15.9,2.6,21.7,4.6c-8.6,3.8-20.9,7.9-32.5,10.3l-0.3,0.1l-0.3,0.1c-0.2,0.1-21.1,5.4-40.3,4.4
			c-11.6-0.6-17.6-3.2-20.5-5.3c-9.3-6.5-19.3-10-30.6-10.5c-11-0.5-22.3,1.6-34.2,4c-6.1,1.2-12.5,2.4-19.3,3.4
			c-2.4,0.3-4.8,0.6-7.2,0.7c10-8.6,11.7-17.6,11.1-25.9c1.6-1.5,4.8-3.9,10.6-7.2C62.3,7.9,73.1,4.3,83.6,4.9z"/>
		<path id="L1_x5F_l1_x5F_s8" fill="#FFAE43" fill-opacity="0.55" d="M86.5,13.5c10.5,0.5,22.8,7.3,41.5,17.6
			c15.2,8.4,29.2,12.3,41.4,14.8c-4.2,1.1-19.7,5.1-33.9,4.4c-10.1-0.5-14.4-3.1-15.7-4.2c-9.3-7.5-19.3-11.5-30.6-12
			c-10.6-0.5-21.2,1.9-32.4,4.5c-2.7,0.6-5.4,1.3-8.2,1.9c0.9-3.3,1.5-6.9,1.7-10.6c1.4-1.1,3.2-2.5,5.7-4.2
			C69.2,16.6,78.1,13.1,86.5,13.5z"/>
		<rect id="L1_x5F_s8_x5F_c" x="85.5" y="20.7" fill="none" width="9.3" height="9.3"/>
	</g>
</g>
<g id="L1_x5F_s7">
</g>
<g id="L1_x5F_s6">
</g>
<g id="L1_x5F_s5">
</g>
<g id="L1_x5F_s4">
</g>
<g id="L1_x5F_s3">
</g>
<g id="L1_x5F_s2">
</g>
<g id="L1_x5F_s1">
</g>
</svg>
