<?xml version="1.0" encoding="utf-8"?>
<!-- Generator: Adobe Illustrator 19.1.0, SVG Export Plug-In . SVG Version: 6.00 Build 0)  -->
<svg version="1.1" xmlns="http://www.w3.org/2000/svg" xmlns:xlink="http://www.w3.org/1999/xlink" x="0px" y="0px"
	 viewBox="0 0 151.9 40.6" enable-background="new 0 0 151.9 40.6" xml:space="preserve">
<g id="Layer_1">
</g>
<g id="L3_x5F_s8">
</g>
<g id="L3_x5F_s7">
</g>
<g id="L3_x5F_s6">
</g>
<g id="L3_x5F_s5">
</g>
<g id="L3_x5F_s4">
</g>
<g id="L3_x5F_s3">
</g>
<g id="L3_x5F_s2">
</g>
<g id="L3_x5F_s1">
</g>
<g id="L2_x5F_s8_1_">
</g>
<g id="L2_x5F_s7">
</g>
<g id="L2_x5F_s6">
</g>
<g id="L2_x5F_s5">
</g>
<g id="L2_x5F_s4">
</g>
<g id="L2_x5F_s3">
</g>
<g id="L2_x5F_s2">
</g>
<g id="L2_x5F_s1">
</g>
<g id="L1_x5F_s8">
</g>
<g id="L1_x5F_s7">
</g>
<g id="L1_x5F_s6">
</g>
<g id="L1_x5F_s5">
	<g>
		<path id="L1_x5F_l3_x5F_s5" fill="#F4750C" d="M118.8,39.1c0,0,42.3-5,31.3-14.2S117.5,19.4,90,9.5S52.6-3.8,28.6,5.4
			S28,16.2,9.3,22.6c-20.6,7-3.5,13.3,16.6,11.9c20.1-1.4,33.5-5.3,47.9,2S118.8,39.1,118.8,39.1z"/>
		<path id="L1_x5F_l2_x5F_s5" fill="#F78406" d="M51.7,4c7.3,0.4,15.4,3.9,27.7,9.3c12.4,5.4,23.6,7.1,32.5,8.5
			c4.8,0.7,9.1,1.4,12.5,2.4c-4.9,2-11.8,4.1-18.4,5.3l-0.1,0l-0.1,0c-0.1,0-12,2.8-22.9,2.2c-6.6-0.3-10.1-1.7-11.8-2.8
			c-5.4-3.4-11.2-5.3-17.6-5.6c-6.3-0.3-12.7,0.8-19.5,2c-3.5,0.6-7.1,1.2-11,1.7c-1.4,0.2-2.7,0.3-4.1,0.4c5.6-4.5,6.4-9.2,6-13.5
			c0.9-0.8,2.7-2,6-3.8C39.6,5.5,45.7,3.7,51.7,4z"/>
		<path id="L1_x5F_l1_x5F_s5" fill="#FFAE43" fill-opacity="0.55" d="M50.5,9.6c4.7,0.2,10.3,3.1,18.7,7.4
			c6.9,3.5,13.2,5.2,18.6,6.3c-1.8,0.5-8.8,2.1-15.1,1.8c-4.5-0.2-6.5-1.3-7.1-1.8c-4.2-3.2-8.7-4.8-13.8-5.1
			C47.1,18,42.4,19,37.4,20c-1.2,0.3-2.4,0.5-3.6,0.8c0.4-1.4,0.6-2.9,0.6-4.4c0.6-0.5,1.4-1,2.5-1.7C42.8,10.8,46.8,9.4,50.5,9.6z"
			/>
		<rect id="L1_x5F_s5_x5F_c" x="45.8" y="12.4" fill="none" width="9.3" height="9.3"/>
	</g>
</g>
<g id="L1_x5F_s4">
</g>
<g id="L1_x5F_s3">
</g>
<g id="L1_x5F_s2">
</g>
<g id="L1_x5F_s1">
</g>
</svg>
