<?xml version="1.0" encoding="utf-8"?>
<!-- Generator: Adobe Illustrator 19.1.0, SVG Export Plug-In . SVG Version: 6.00 Build 0)  -->
<svg version="1.1" xmlns="http://www.w3.org/2000/svg" xmlns:xlink="http://www.w3.org/1999/xlink" x="0px" y="0px"
	 viewBox="0 0 78.1 23.8" enable-background="new 0 0 78.1 23.8" xml:space="preserve">
<g id="Layer_1">
</g>
<g id="L3_x5F_s8">
</g>
<g id="L3_x5F_s7">
</g>
<g id="L3_x5F_s6">
</g>
<g id="L3_x5F_s5">
</g>
<g id="L3_x5F_s4">
</g>
<g id="L3_x5F_s3">
</g>
<g id="L3_x5F_s2">
</g>
<g id="L3_x5F_s1">
</g>
<g id="L2_x5F_s8_1_">
</g>
<g id="L2_x5F_s7">
</g>
<g id="L2_x5F_s6">
</g>
<g id="L2_x5F_s5">
</g>
<g id="L2_x5F_s4">
</g>
<g id="L2_x5F_s3">
</g>
<g id="L2_x5F_s2">
</g>
<g id="L2_x5F_s1">
</g>
<g id="L1_x5F_s8">
</g>
<g id="L1_x5F_s7">
</g>
<g id="L1_x5F_s6">
</g>
<g id="L1_x5F_s5">
</g>
<g id="L1_x5F_s4">
</g>
<g id="L1_x5F_s3">
</g>
<g id="L1_x5F_s2">
	<g>
		<path id="L1_x5F_l3_x5F_s2" fill="#F4750C" d="M60.9,22.5c0,0,21.8-3.7,16.3-9s-16.6-2.9-30.6-8.4s-19-7.4-31.5-1.5
			s-0.5,6.5-10.2,10.6c-10.7,4.5-2,8.1,8.4,6.9s17.3-3.7,24.6,0.5S60.9,22.5,60.9,22.5z"/>
		<path id="L1_x5F_l2_x5F_s2" fill="#F78406" d="M26.7,5c3.9,0.2,8.4,1.9,15.1,4.6c6.7,2.7,12.8,3.5,17.7,4.2
			c2.6,0.4,4.9,0.7,6.8,1.2c-2.6,0.9-6.4,1.9-10,2.5l-0.1,0l-0.1,0c-0.1,0-6.5,1.3-12.4,1c-3.6-0.2-5.5-0.8-6.4-1.4
			c-2.9-1.7-6.1-2.6-9.6-2.7c-3.4-0.2-6.9,0.4-10.6,0.9c-1.9,0.3-3.8,0.6-6,0.8c-0.7,0.1-1.5,0.1-2.2,0.2c3-2.1,3.5-4.4,3.2-6.5
			c0.5-0.4,1.5-1,3.2-1.8C20.2,5.7,23.5,4.8,26.7,5z"/>
		<path id="L1_x5F_l1_x5F_s2" fill="#FFAE43" fill-opacity="0.55" d="M26.7,7.5c3.3,0.2,7.2,1.7,13.2,4.1c4.9,1.9,9.3,2.8,13.2,3.5
			c-1.3,0.2-6.1,1.1-10.6,0.8c-3.2-0.2-4.5-0.8-5-1c-3-1.7-6.2-2.6-9.7-2.8c-3.3-0.2-6.6,0.3-10.1,0.9c-0.8,0.1-1.7,0.3-2.6,0.4
			c0.3-0.7,0.4-1.5,0.4-2.3c0.4-0.2,1-0.5,1.8-0.9C21.3,8.1,24,7.4,26.7,7.5z"/>
		<rect id="L1_x5F_s2_x5F_c" x="22.1" y="5.7" fill="none" width="9.3" height="9.3"/>
	</g>
</g>
<g id="L1_x5F_s1">
</g>
</svg>
