<?xml version="1.0" encoding="utf-8"?>
<!-- Generator: Adobe Illustrator 19.1.0, SVG Export Plug-In . SVG Version: 6.00 Build 0)  -->
<svg version="1.1" xmlns="http://www.w3.org/2000/svg" xmlns:xlink="http://www.w3.org/1999/xlink" x="0px" y="0px"
	 viewBox="0 0 117.4 33.9" enable-background="new 0 0 117.4 33.9" xml:space="preserve">
<g id="Layer_1">
</g>
<g id="L3_x5F_s8">
</g>
<g id="L3_x5F_s7">
</g>
<g id="L3_x5F_s6">
</g>
<g id="L3_x5F_s5">
</g>
<g id="L3_x5F_s4">
</g>
<g id="L3_x5F_s3">
</g>
<g id="L3_x5F_s2">
</g>
<g id="L3_x5F_s1">
</g>
<g id="L2_x5F_s8_1_">
</g>
<g id="L2_x5F_s7">
</g>
<g id="L2_x5F_s6">
</g>
<g id="L2_x5F_s5">
</g>
<g id="L2_x5F_s4">
</g>
<g id="L2_x5F_s3">
</g>
<g id="L2_x5F_s2">
</g>
<g id="L2_x5F_s1">
</g>
<g id="L1_x5F_s8">
</g>
<g id="L1_x5F_s7">
</g>
<g id="L1_x5F_s6">
</g>
<g id="L1_x5F_s5">
</g>
<g id="L1_x5F_s4">
	<g>
		<path id="L1_x5F_l3_x5F_s4" fill="#F4750C" d="M91.6,32.3c0,0,32.7-4.8,24.3-12.5s-25-4.3-46.2-12.3S41.1-3.2,22.4,4.9
			S21.8,14,7.3,19.7C-8.7,26,4.4,31.1,20,29.6c15.6-1.4,25.9-4.9,37,1.1S91.6,32.3,91.6,32.3z"/>
		<path id="L1_x5F_l2_x5F_s4" fill="#F78406" d="M37.7,4.8c5.9,0.3,12.6,3.1,22.6,7.5c10.1,4.4,19.3,5.7,26.6,6.8
			c4,0.6,7.4,1.1,10.2,2c-4,1.6-9.7,3.2-15,4.3l-0.1,0l-0.1,0c-0.1,0-9.8,2.2-18.7,1.8c-5.4-0.3-8.2-1.4-9.6-2.2
			c-4.4-2.8-9.1-4.2-14.4-4.5c-5.1-0.3-10.4,0.6-15.9,1.6c-2.8,0.5-5.8,1-9,1.4c-1.1,0.1-2.2,0.2-3.3,0.3c4.6-3.6,5.2-7.4,4.9-10.8
			c0.7-0.6,2.2-1.6,4.9-3C27.8,6,32.8,4.6,37.7,4.8z"/>
		<path id="L1_x5F_l1_x5F_s4" fill="#FFAE43" fill-opacity="0.55" d="M38.4,11.2c4.1,0.2,9,2.2,16.4,5.1c6,2.4,11.5,3.6,16.3,4.4
			c-1.6,0.3-7.6,1.3-13.2,1.1c-4-0.2-5.7-0.9-6.2-1.3c-3.7-2.2-7.7-3.3-12.1-3.5c-4.2-0.2-8.2,0.4-12.6,1.1c-1,0.2-2.1,0.3-3.2,0.5
			c0.3-0.9,0.5-1.9,0.5-3c0.5-0.3,1.2-0.7,2.2-1.1C31.7,12,35.2,11,38.4,11.2z"/>
		<rect id="L1_x5F_s4_x5F_c" x="35.2" y="9.6" fill="none" width="9.3" height="9.3"/>
	</g>
</g>
<g id="L1_x5F_s3">
</g>
<g id="L1_x5F_s2">
</g>
<g id="L1_x5F_s1">
</g>
</svg>
