<?xml version="1.0" encoding="utf-8"?>
<!-- Generator: Adobe Illustrator 19.1.0, SVG Export Plug-In . SVG Version: 6.00 Build 0)  -->
<svg version="1.1" xmlns="http://www.w3.org/2000/svg" xmlns:xlink="http://www.w3.org/1999/xlink" x="0px" y="0px"
	 viewBox="0 0 100.8 29.2" enable-background="new 0 0 100.8 29.2" xml:space="preserve">
<g id="Layer_1">
</g>
<g id="L3_x5F_s8">
</g>
<g id="L3_x5F_s7">
</g>
<g id="L3_x5F_s6">
</g>
<g id="L3_x5F_s5">
</g>
<g id="L3_x5F_s4">
</g>
<g id="L3_x5F_s3">
</g>
<g id="L3_x5F_s2">
</g>
<g id="L3_x5F_s1">
</g>
<g id="L2_x5F_s8_1_">
</g>
<g id="L2_x5F_s7">
</g>
<g id="L2_x5F_s6">
</g>
<g id="L2_x5F_s5">
</g>
<g id="L2_x5F_s4">
</g>
<g id="L2_x5F_s3">
</g>
<g id="L2_x5F_s2">
</g>
<g id="L2_x5F_s1">
</g>
<g id="L1_x5F_s8">
</g>
<g id="L1_x5F_s7">
</g>
<g id="L1_x5F_s6">
</g>
<g id="L1_x5F_s5">
</g>
<g id="L1_x5F_s4">
</g>
<g id="L1_x5F_s3">
	<g>
		<path id="L1_x5F_l3_x5F_s3" fill="#F4750C" d="M78.7,27.9c0,0,28.1-4.2,20.9-10.8S78.1,13.4,60,6.5S35.3-2.8,19.3,4.2
			s-0.5,7.9-13,12.8c-13.7,5.4-2.5,9.8,10.9,8.5s22.3-4.3,31.8,0.9S78.7,27.9,78.7,27.9z"/>
		<path id="L1_x5F_l2_x5F_s3" fill="#F78406" d="M31.9,5.9c4.7,0.2,9.9,2.3,17.8,5.4c8,3.1,15.1,4.1,20.9,5c3.1,0.4,5.8,0.8,8,1.4
			c-3.1,1.1-7.6,2.3-11.8,3l-0.1,0l-0.1,0c-0.1,0-7.7,1.5-14.7,1.2c-4.3-0.2-6.5-1-7.6-1.6c-3.5-2-7.2-3-11.3-3.2
			c-4-0.2-8.1,0.4-12.5,1.1c-2.2,0.3-4.5,0.7-7,1c-0.9,0.1-1.8,0.2-2.6,0.2c3.6-2.5,4.1-5.2,3.8-7.7c0.6-0.4,1.7-1.1,3.8-2.1
			C24.2,6.7,28.1,5.7,31.9,5.9z"/>
		<path id="L1_x5F_l1_x5F_s3_2_" fill="#FFAE43" fill-opacity="0.55" d="M31.2,8.6c3.8,0.2,8.2,2,15.1,4.6c5.5,2.2,10.6,3.2,15,3.9
			c-1.5,0.3-7,1.2-12.1,1c-3.6-0.2-5.2-0.9-5.7-1.1c-3.4-1.9-7-3-11.1-3.2c-3.8-0.2-7.6,0.4-11.5,1c-1,0.1-1.9,0.3-2.9,0.4
			c0.3-0.8,0.4-1.7,0.5-2.7c0.5-0.3,1.1-0.6,2-1C25.1,9.3,28.2,8.4,31.2,8.6z"/>
		<rect id="L1_x5F_s3_x5F_c" x="26.6" y="6.9" fill="none" width="9.3" height="9.3"/>
	</g>
</g>
<g id="L1_x5F_s2">
</g>
<g id="L1_x5F_s1">
</g>
</svg>
