<?xml version="1.0" encoding="utf-8"?>
<!-- Generator: Adobe Illustrator 19.1.0, SVG Export Plug-In . SVG Version: 6.00 Build 0)  -->
<svg version="1.1" xmlns="http://www.w3.org/2000/svg" xmlns:xlink="http://www.w3.org/1999/xlink" x="0px" y="0px"
	 viewBox="0 0 32.1 17.4" enable-background="new 0 0 32.1 17.4" xml:space="preserve">
<g id="Layer_1">
</g>
<g id="L3_x5F_s8">
</g>
<g id="L3_x5F_s7">
</g>
<g id="L3_x5F_s6">
</g>
<g id="L3_x5F_s5">
</g>
<g id="L3_x5F_s4">
</g>
<g id="L3_x5F_s3">
</g>
<g id="L3_x5F_s2">
</g>
<g id="L3_x5F_s1">
</g>
<g id="L2_x5F_s8_1_">
</g>
<g id="L2_x5F_s7">
</g>
<g id="L2_x5F_s6">
</g>
<g id="L2_x5F_s5">
</g>
<g id="L2_x5F_s4">
</g>
<g id="L2_x5F_s3">
</g>
<g id="L2_x5F_s2">
	<g>
		<path id="L2_x5F_l3_x5F_s2" fill="#F4750C" d="M24.5,17.1c0,0,9.2-1.3,7.3-5.2C30,8,25.3,9.1,20,4.6S12.8-1.5,7.3,1.8
			s-0.7,4.4-5,6.6c-4.7,2.5-1.4,5.3,2.9,5.1c4.3-0.2,7.3-1.5,10,1.7S24.5,17.1,24.5,17.1z"/>
		<path id="L2_x5F_l2_x5F_s2" fill="#F78406" d="M11.7,2.4c1.4,0.3,2.9,1.7,5.1,3.8c2.2,2.2,4.4,3,6.1,3.7c0.9,0.4,1.7,0.7,2.4,1.1
			c-1.1,0.6-2.6,1.1-3.9,1.4l0,0l0,0c0,0-2.5,0.7-4.7,0.2c-1.3-0.3-1.9-0.8-2.2-1.2c-0.9-1.3-2-2.1-3.2-2.3c-1.2-0.3-2.6,0-4,0.2
			C6.4,9.5,5.6,9.6,4.8,9.7c-0.3,0-0.6,0-0.8,0c1.3-1.4,1.7-3,1.8-4.5C6.1,5,6.5,4.6,7.2,4C9.2,2.6,10.5,2.1,11.7,2.4z"/>
		<path id="L2_x5F_l1_x5F_s2" fill="#FFAE43" fill-opacity="0.55" d="M11.5,3.8c1.3,0.3,2.7,1.6,4.8,3.7c1.7,1.7,3.4,2.6,4.9,3.2
			c-0.5,0.1-2.6,0.6-4.3,0.2c-1.3-0.3-1.7-0.8-1.9-1c-1-1.4-2.2-2.3-3.6-2.6c-1.3-0.3-2.7,0-4.1,0.2C6.9,7.7,6.5,7.8,6.2,7.8
			C6.4,7.3,6.5,6.7,6.6,6c0.2-0.2,0.5-0.4,0.8-0.6C9.3,4.1,10.5,3.6,11.5,3.8z"/>
		<rect id="L2_x5F_s2_x5F_c" x="9.8" y="3.8" fill="none" width="3.8" height="3.8"/>
	</g>
</g>
<g id="L2_x5F_s1">
</g>
<g id="L1_x5F_s8">
</g>
<g id="L1_x5F_s7">
</g>
<g id="L1_x5F_s6">
</g>
<g id="L1_x5F_s5">
</g>
<g id="L1_x5F_s4">
</g>
<g id="L1_x5F_s3">
</g>
<g id="L1_x5F_s2">
</g>
<g id="L1_x5F_s1">
</g>
</svg>
