<?xml version="1.0" encoding="utf-8"?>
<!-- Generator: Adobe Illustrator 19.1.0, SVG Export Plug-In . SVG Version: 6.00 Build 0)  -->
<svg version="1.1" xmlns="http://www.w3.org/2000/svg" xmlns:xlink="http://www.w3.org/1999/xlink" x="0px" y="0px"
	 viewBox="0 0 62.4 30.9" enable-background="new 0 0 62.4 30.9" xml:space="preserve">
<g id="Layer_1">
</g>
<g id="L3_x5F_s8">
</g>
<g id="L3_x5F_s7">
</g>
<g id="L3_x5F_s6">
</g>
<g id="L3_x5F_s5">
</g>
<g id="L3_x5F_s4">
</g>
<g id="L3_x5F_s3">
</g>
<g id="L3_x5F_s2">
</g>
<g id="L3_x5F_s1">
</g>
<g id="L2_x5F_s8_1_">
</g>
<g id="L2_x5F_s7">
</g>
<g id="L2_x5F_s6">
	<g>
		<path id="L2_x5F_l3_x5F_s6" fill="#F4750C" d="M48,30.3c0,0,17.7-2.4,13.8-9.4S48.9,15.9,38.3,8S23.9-2.8,13.4,3.2
			s-1,7.8-9.1,11.9c-8.9,4.5-2.4,9.6,6,9.1s14.1-2.9,19.5,2.8S48,30.3,48,30.3z"/>
		<path id="L2_x5F_l2_x5F_s6" fill="#F78406" d="M22,4c2.3,0.5,4.5,3.1,7.9,7c3.4,4,6.8,5.5,9.5,6.7c1.5,0.7,2.7,1.2,3.7,2
			c-1.7,1.1-4.1,2.2-6.3,2.8l0,0l0,0c0,0-4,1.4-7.4,0.6c-2.1-0.4-3-1.5-3.5-2.2c-1.4-2.4-3-3.8-5-4.2c-2-0.4-4.1,0.1-6.3,0.6
			c-1.2,0.3-2.3,0.6-3.6,0.7c-0.4,0.1-0.9,0.1-1.3,0.1c2.2-2.7,2.9-5.7,3.1-8.6c0.4-0.5,1-1.2,2.2-2.2C18,4.6,20.1,3.6,22,4z"/>
		<path id="L2_x5F_l1_x5F_s6" fill="#FFAE43" fill-opacity="0.55" d="M21.6,8.5c1.4,0.3,2.9,2.2,5.2,5c1.9,2.3,3.7,3.5,5.3,4.3
			c-0.6,0.2-2.9,0.9-4.9,0.5c-1.4-0.3-1.9-1-2.1-1.3c-1.1-2-2.3-3.1-3.9-3.5c-1.5-0.3-3,0.1-4.6,0.5c-0.4,0.1-0.8,0.2-1.2,0.3
			c0.2-0.8,0.4-1.6,0.6-2.5c0.2-0.2,0.5-0.6,0.9-0.9C19.1,9,20.4,8.3,21.6,8.5z"/>
		<rect id="L2_x5F_s6_x5F_c" x="20.5" y="9.9" fill="none" width="3.8" height="3.8"/>
	</g>
</g>
<g id="L2_x5F_s5">
</g>
<g id="L2_x5F_s4">
</g>
<g id="L2_x5F_s3">
</g>
<g id="L2_x5F_s2">
</g>
<g id="L2_x5F_s1">
</g>
<g id="L1_x5F_s8">
</g>
<g id="L1_x5F_s7">
</g>
<g id="L1_x5F_s6">
</g>
<g id="L1_x5F_s5">
</g>
<g id="L1_x5F_s4">
</g>
<g id="L1_x5F_s3">
</g>
<g id="L1_x5F_s2">
</g>
<g id="L1_x5F_s1">
</g>
</svg>
