<?xml version="1.0" encoding="utf-8"?>
<!-- Generator: Adobe Illustrator 19.1.0, SVG Export Plug-In . SVG Version: 6.00 Build 0)  -->
<svg version="1.1" xmlns="http://www.w3.org/2000/svg" xmlns:xlink="http://www.w3.org/1999/xlink" x="0px" y="0px"
	 viewBox="0 0 71.9 30.9" enable-background="new 0 0 71.9 30.9" xml:space="preserve">
<g id="Layer_1">
</g>
<g id="L3_x5F_s8">
</g>
<g id="L3_x5F_s7">
</g>
<g id="L3_x5F_s6">
</g>
<g id="L3_x5F_s5">
</g>
<g id="L3_x5F_s4">
</g>
<g id="L3_x5F_s3">
</g>
<g id="L3_x5F_s2">
</g>
<g id="L3_x5F_s1">
</g>
<g id="L2_x5F_s8_1_">
</g>
<g id="L2_x5F_s7">
	<g>
		<path id="L2_x5F_l3_x5F_s7" fill="#F4750C" d="M55.3,30.3c0,0,20.4-2.4,15.9-9.4c-4.5-7-14.9-5-27.1-12.9S27.5-2.8,15.4,3.2
			S14.3,11,4.9,15.2c-10.3,4.5-2.8,9.6,6.9,9.1c9.6-0.4,16.2-2.9,22.5,2.8S55.3,30.3,55.3,30.3z"/>
		<path id="L2_x5F_l2_x5F_s7" fill="#F78406" d="M27.8,4.4C31,5,34.2,7.7,39.2,11.8c5,4.1,9.7,5.8,13.6,7.1c2.1,0.7,3.9,1.3,5.3,2.2
			c-2.3,1.1-5.7,2.1-8.7,2.6l-0.1,0l-0.1,0c-0.1,0-5.6,1.2-10.4,0.3c-2.9-0.5-4.3-1.6-5-2.4c-2-2.5-4.4-4-7.3-4.5
			c-2.8-0.5-5.7-0.1-8.8,0.4c-1.6,0.2-3.3,0.5-5,0.6c-0.6,0-1.2,0.1-1.9,0c2.9-2.6,3.8-5.7,4-8.5c0.5-0.4,1.4-1.2,3-2.2
			C22.3,4.8,25.2,3.9,27.8,4.4z"/>
		<path id="L2_x5F_l1_x5F_s7" fill="#FFAE43" fill-opacity="0.55" d="M27.1,8.9c2.3,0.4,4.9,2.4,8.7,5.4c3.1,2.5,6.1,3.8,8.8,4.8
			c-1,0.2-4.5,0.7-7.7,0.1c-2.2-0.4-3.1-1.2-3.4-1.5c-1.8-2.1-4-3.3-6.5-3.8c-2.4-0.4-4.8-0.1-7.3,0.2c-0.6,0.1-1.2,0.2-1.9,0.2
			c0.3-0.8,0.5-1.6,0.7-2.5c0.3-0.2,0.8-0.5,1.4-0.9C23.1,9.1,25.2,8.5,27.1,8.9z"/>
		<rect id="L2_x5F_s7_x5F_c" x="27.3" y="11.1" fill="none" width="3.8" height="3.8"/>
	</g>
</g>
<g id="L2_x5F_s6">
</g>
<g id="L2_x5F_s5">
</g>
<g id="L2_x5F_s4">
</g>
<g id="L2_x5F_s3">
</g>
<g id="L2_x5F_s2">
</g>
<g id="L2_x5F_s1">
</g>
<g id="L1_x5F_s8">
</g>
<g id="L1_x5F_s7">
</g>
<g id="L1_x5F_s6">
</g>
<g id="L1_x5F_s5">
</g>
<g id="L1_x5F_s4">
</g>
<g id="L1_x5F_s3">
</g>
<g id="L1_x5F_s2">
</g>
<g id="L1_x5F_s1">
</g>
</svg>
