<?xml version="1.0" encoding="utf-8"?>
<!-- Generator: Adobe Illustrator 19.1.0, SVG Export Plug-In . SVG Version: 6.00 Build 0)  -->
<svg version="1.1" xmlns="http://www.w3.org/2000/svg" xmlns:xlink="http://www.w3.org/1999/xlink" x="0px" y="0px"
	 viewBox="0 0 53.4 30.9" enable-background="new 0 0 53.4 30.9" xml:space="preserve">
<g id="Layer_1">
</g>
<g id="L3_x5F_s8">
</g>
<g id="L3_x5F_s7">
</g>
<g id="L3_x5F_s6">
</g>
<g id="L3_x5F_s5">
</g>
<g id="L3_x5F_s4">
</g>
<g id="L3_x5F_s3">
</g>
<g id="L3_x5F_s2">
</g>
<g id="L3_x5F_s1">
</g>
<g id="L2_x5F_s8_1_">
</g>
<g id="L2_x5F_s7">
</g>
<g id="L2_x5F_s6">
</g>
<g id="L2_x5F_s5">
	<g>
		<path id="L2_x5F_l3_x5F_s5_2_" fill="#F4750C" d="M40.7,30.3c0,0,15.3-2.4,12.3-9.4S42.1,16,33.4,8S21.5-2.8,12.2,3.2
			S11,11,3.9,15.2c-7.9,4.5-2.5,9.6,4.7,9.1c7.2-0.4,12.2-2.9,16.6,2.8S40.7,30.3,40.7,30.3z"/>
		<path id="L2_x5F_l2_x5F_s5_2_" fill="#F78406" d="M18,5c2.3,0.5,4.5,3.1,7.9,7c3.4,4,6.8,5.5,9.5,6.7c1.5,0.7,2.7,1.2,3.7,2
			c-1.7,1.1-4.1,2.2-6.3,2.8l0,0l0,0c0,0-4,1.4-7.4,0.6c-2.1-0.4-3-1.5-3.5-2.2c-1.4-2.4-3-3.8-5-4.2c-2-0.4-4.1,0.1-6.3,0.6
			c-1.2,0.3-2.3,0.6-3.6,0.7c-0.4,0.1-0.9,0.1-1.3,0.1c2.2-2.7,2.9-5.7,3.1-8.6c0.4-0.5,1-1.2,2.2-2.2C14.1,5.6,16.2,4.6,18,5z"/>
		<path id="L2_x5F_l1_x5F_s5_2_" fill="#FFAE43" fill-opacity="0.55" d="M19.5,7.2c1.9,0.4,3.8,2.8,6.8,6.5c2.4,3,4.8,4.6,6.9,5.7
			c-0.8,0.3-3.8,1.2-6.3,0.6c-1.8-0.4-2.5-1.3-2.7-1.7c-1.4-2.6-3-4.1-5.1-4.5c-1.9-0.4-3.9,0.1-6,0.7c-0.5,0.1-1,0.3-1.6,0.4
			c0.3-1,0.5-2.1,0.7-3.3c0.3-0.3,0.7-0.7,1.2-1.2C16.3,7.8,18,6.9,19.5,7.2z"/>
		<rect id="L2_x5F_s5_x5F_c_2_" x="19.1" y="10.2" fill="none" width="3.8" height="3.8"/>
	</g>
</g>
<g id="L2_x5F_s4">
</g>
<g id="L2_x5F_s3">
</g>
<g id="L2_x5F_s2">
</g>
<g id="L2_x5F_s1">
</g>
<g id="L1_x5F_s8">
</g>
<g id="L1_x5F_s7">
</g>
<g id="L1_x5F_s6">
</g>
<g id="L1_x5F_s5">
</g>
<g id="L1_x5F_s4">
</g>
<g id="L1_x5F_s3">
</g>
<g id="L1_x5F_s2">
</g>
<g id="L1_x5F_s1">
</g>
</svg>
