<?xml version="1.0" encoding="utf-8"?>
<!-- Generator: Adobe Illustrator 19.1.0, SVG Export Plug-In . SVG Version: 6.00 Build 0)  -->
<svg version="1.1" xmlns="http://www.w3.org/2000/svg" xmlns:xlink="http://www.w3.org/1999/xlink" x="0px" y="0px"
	 viewBox="0 0 80 37.7" enable-background="new 0 0 80 37.7" xml:space="preserve">
<g id="Layer_1">
</g>
<g id="L3_x5F_s8">
</g>
<g id="L3_x5F_s7">
</g>
<g id="L3_x5F_s6">
</g>
<g id="L3_x5F_s5">
</g>
<g id="L3_x5F_s4">
</g>
<g id="L3_x5F_s3">
</g>
<g id="L3_x5F_s2">
</g>
<g id="L3_x5F_s1">
</g>
<g id="L2_x5F_s8_1_">
	<g>
		<path id="L2_x5F_l3_x5F_s8" fill="#F4750C" d="M61.6,37c0,0,22.7-3,17.7-11.5c-5-8.5-16.6-6.1-30.2-15.8S30.6-3.4,17.2,4
			s-1.3,9.5-11.7,14.5C-6,24,2.4,30.2,13.1,29.7c10.7-0.5,18.1-3.5,25,3.4S61.6,37,61.6,37z"/>
		<path id="L2_x5F_l2_x5F_s8" fill="#F78406" d="M33.4,4.3c4.3,0.9,8.7,4.7,15.3,10.4c6.7,5.8,13.2,8.1,18.3,10
			c2.8,1,5.2,1.9,7.1,3.1c-3.1,1.4-7.6,2.8-11.6,3.5l-0.1,0l-0.1,0c-0.1,0-7.5,1.6-13.9,0.3c-3.9-0.8-5.8-2.3-6.7-3.4
			c-2.8-3.5-6-5.5-9.8-6.3c-3.7-0.7-7.7-0.2-11.8,0.4c-2.2,0.3-4.4,0.6-6.8,0.8c-0.8,0.1-1.7,0.1-2.5,0c3.9-3.6,5-7.8,5.2-11.7
			c0.6-0.6,1.8-1.6,4-3C26,4.8,29.8,3.6,33.4,4.3z"/>
		<path id="L2_x5F_l1_x5F_s8" fill="#FFAE43" fill-opacity="0.55" d="M31.6,9.6c3.5,0.7,7.3,3.8,13.1,8.4c4.7,3.8,9.2,5.9,13.2,7.4
			c-1.4,0.2-6.7,1-11.4,0.1c-3.3-0.7-4.7-1.8-5.1-2.3c-2.8-3.2-6-5.1-9.7-5.9c-3.5-0.7-7.1-0.3-10.9,0.2c-0.9,0.1-1.8,0.2-2.8,0.3
			c0.4-1.2,0.8-2.5,1-3.8c0.5-0.3,1.2-0.8,2.1-1.3C25.8,9.9,28.9,9,31.6,9.6z"/>
		<rect id="L2_x5F_s8_x5F_c" x="31.1" y="13" fill="none" width="3.8" height="3.8"/>
	</g>
</g>
<g id="L2_x5F_s7">
</g>
<g id="L2_x5F_s6">
</g>
<g id="L2_x5F_s5">
</g>
<g id="L2_x5F_s4">
</g>
<g id="L2_x5F_s3">
</g>
<g id="L2_x5F_s2">
</g>
<g id="L2_x5F_s1">
</g>
<g id="L1_x5F_s8">
</g>
<g id="L1_x5F_s7">
</g>
<g id="L1_x5F_s6">
</g>
<g id="L1_x5F_s5">
</g>
<g id="L1_x5F_s4">
</g>
<g id="L1_x5F_s3">
</g>
<g id="L1_x5F_s2">
</g>
<g id="L1_x5F_s1">
</g>
</svg>
