<?xml version="1.0" encoding="utf-8"?>
<!-- Generator: Adobe Illustrator 19.1.0, SVG Export Plug-In . SVG Version: 6.00 Build 0)  -->
<svg version="1.1" xmlns="http://www.w3.org/2000/svg" xmlns:xlink="http://www.w3.org/1999/xlink" x="0px" y="0px"
	 viewBox="0 0 32.6 19.9" enable-background="new 0 0 32.6 19.9" xml:space="preserve">
<g id="Layer_1">
</g>
<g id="L3_x5F_s8">
</g>
<g id="L3_x5F_s7">
</g>
<g id="L3_x5F_s6">
</g>
<g id="L3_x5F_s5">
</g>
<g id="L3_x5F_s4">
</g>
<g id="L3_x5F_s3">
</g>
<g id="L3_x5F_s2">
</g>
<g id="L3_x5F_s1">
</g>
<g id="L2_x5F_s8_1_">
</g>
<g id="L2_x5F_s7">
</g>
<g id="L2_x5F_s6">
</g>
<g id="L2_x5F_s5">
</g>
<g id="L2_x5F_s4">
</g>
<g id="L2_x5F_s3">
	<g>
		<path id="L2_x5F_l3_x5F_s3" fill="#F4750C" d="M24.6,19.4c0,0,9.4-2,7.7-6.5c-1.7-4.5-6.5-3-11.7-8s-7-6.8-12.8-2.6
			s-0.9,5.2-5.4,8c-4.9,3.2-1.8,6.3,2.6,5.9c4.4-0.5,7.5-2.2,10.1,1.5S24.6,19.4,24.6,19.4z"/>
		<path id="L2_x5F_l2_x5F_s3" fill="#F78406" d="M13.4,4.4c1.8,0.4,3.6,2,6.4,4.4c2.8,2.5,5.5,3.5,7.7,4.3c1.2,0.4,2.2,0.8,3,1.3
			c-1.3,0.6-3.2,1.2-4.9,1.5l0,0l0,0c0,0-3.1,0.7-5.8,0.2c-1.6-0.3-2.4-1-2.8-1.4c-1.2-1.5-2.5-2.4-4.1-2.7
			c-1.5-0.3-3.2-0.1-4.9,0.2c-0.9,0.1-1.8,0.3-2.8,0.3c-0.3,0-0.7,0-1,0c1.6-1.5,2.1-3.3,2.2-5c0.3-0.3,0.8-0.7,1.7-1.3
			C10.3,4.6,11.9,4.1,13.4,4.4z"/>
		<path id="L2_x5F_l1_x5F_s3" fill="#FFAE43" fill-opacity="0.55" d="M12.4,5.7c1.3,0.3,2.7,1.6,4.8,3.7c1.7,1.7,3.4,2.6,4.9,3.2
			c-0.5,0.1-2.6,0.6-4.3,0.2c-1.3-0.3-1.7-0.8-1.9-1c-1-1.4-2.2-2.3-3.6-2.6C11,9,9.6,9.2,8.2,9.5C7.8,9.5,7.5,9.6,7.1,9.7
			c0.2-0.6,0.3-1.1,0.4-1.8C7.7,7.7,8,7.5,8.3,7.3C10.2,5.9,11.4,5.5,12.4,5.7z"/>
		<rect id="L2_x5F_s3_x5F_c" x="10.5" y="5.8" fill="none" width="3.8" height="3.8"/>
	</g>
</g>
<g id="L2_x5F_s2">
</g>
<g id="L2_x5F_s1">
</g>
<g id="L1_x5F_s8">
</g>
<g id="L1_x5F_s7">
</g>
<g id="L1_x5F_s6">
</g>
<g id="L1_x5F_s5">
</g>
<g id="L1_x5F_s4">
</g>
<g id="L1_x5F_s3">
</g>
<g id="L1_x5F_s2">
</g>
<g id="L1_x5F_s1">
</g>
</svg>
