<?xml version="1.0" encoding="utf-8"?>
<!-- Generator: Adobe Illustrator 19.1.0, SVG Export Plug-In . SVG Version: 6.00 Build 0)  -->
<svg version="1.1" xmlns="http://www.w3.org/2000/svg" xmlns:xlink="http://www.w3.org/1999/xlink" x="0px" y="0px"
	 viewBox="0 0 37.1 23.7" enable-background="new 0 0 37.1 23.7" xml:space="preserve">
<g id="Layer_1">
</g>
<g id="L3_x5F_s8">
</g>
<g id="L3_x5F_s7">
</g>
<g id="L3_x5F_s6">
</g>
<g id="L3_x5F_s5">
</g>
<g id="L3_x5F_s4">
</g>
<g id="L3_x5F_s3">
</g>
<g id="L3_x5F_s2">
</g>
<g id="L3_x5F_s1">
</g>
<g id="L2_x5F_s8_1_">
</g>
<g id="L2_x5F_s7">
</g>
<g id="L2_x5F_s6">
</g>
<g id="L2_x5F_s5">
</g>
<g id="L2_x5F_s4">
	<g>
		<path id="L2_x5F_l3_x5F_s4" fill="#F4750C" d="M28,23.1c0,0,10.7-2.3,8.8-7.7s-7.4-3.6-13.3-9.5S15.6-2.2,9,2.8s-1.1,6.1-6.2,9.5
			c-5.6,3.8-2,7.5,3,7c5-0.5,8.6-2.6,11.5,1.7S28,23.1,28,23.1z"/>
		<path id="L2_x5F_l2_x5F_s4" fill="#F78406" d="M15.6,3.1c2,0.4,4.1,2.7,7.1,6.2c3.1,3.5,6.1,4.8,8.6,5.9c1.3,0.6,2.5,1.1,3.3,1.8
			c-1.5,1-3.7,1.9-5.7,2.4l0,0l0,0c0,0-3.6,1.2-6.7,0.5c-1.9-0.4-2.7-1.3-3.1-2c-1.3-2.1-2.8-3.4-4.6-3.7c-1.8-0.4-3.7,0-5.7,0.5
			c-1,0.2-2.1,0.5-3.3,0.6c-0.4,0.1-0.8,0.1-1.2,0.1c2-2.4,2.6-5,2.8-7.5c0.3-0.4,0.9-1.1,2-1.9C12,3.6,13.9,2.7,15.6,3.1z"/>
		<path id="L2_x5F_l1_x5F_s4" fill="#FFAE43" fill-opacity="0.55" d="M15.4,6.1c1.5,0.3,3,2.2,5.4,5.2c1.9,2.4,3.8,3.6,5.4,4.5
			c-0.6,0.2-3,0.9-5,0.5c-1.4-0.3-2-1-2.1-1.3c-1.1-2-2.4-3.2-4-3.6c-1.5-0.3-3.1,0.1-4.8,0.5C10,11.9,9.6,12,9.1,12.1
			c0.2-0.8,0.4-1.7,0.6-2.6c0.2-0.3,0.5-0.6,0.9-0.9C12.9,6.6,14.2,5.9,15.4,6.1z"/>
		<rect id="L2_x5F_s4_x5F_c" x="13.7" y="7.1" fill="none" width="3.8" height="3.8"/>
	</g>
</g>
<g id="L2_x5F_s3">
</g>
<g id="L2_x5F_s2">
</g>
<g id="L2_x5F_s1">
</g>
<g id="L1_x5F_s8">
</g>
<g id="L1_x5F_s7">
</g>
<g id="L1_x5F_s6">
</g>
<g id="L1_x5F_s5">
</g>
<g id="L1_x5F_s4">
</g>
<g id="L1_x5F_s3">
</g>
<g id="L1_x5F_s2">
</g>
<g id="L1_x5F_s1">
</g>
</svg>
