<?xml version="1.0" encoding="utf-8"?>
<!-- Generator: Adobe Illustrator 19.1.0, SVG Export Plug-In . SVG Version: 6.00 Build 0)  -->
<svg version="1.1" xmlns="http://www.w3.org/2000/svg" xmlns:xlink="http://www.w3.org/1999/xlink" x="0px" y="0px"
	 viewBox="0 0 27.7 16.9" enable-background="new 0 0 27.7 16.9" xml:space="preserve">
<g id="Layer_1">
</g>
<g id="L3_x5F_s8">
</g>
<g id="L3_x5F_s7">
</g>
<g id="L3_x5F_s6">
</g>
<g id="L3_x5F_s5">
</g>
<g id="L3_x5F_s4">
</g>
<g id="L3_x5F_s3">
</g>
<g id="L3_x5F_s2">
</g>
<g id="L3_x5F_s1">
</g>
<g id="L2_x5F_s8_1_">
</g>
<g id="L2_x5F_s7">
</g>
<g id="L2_x5F_s6">
</g>
<g id="L2_x5F_s5">
</g>
<g id="L2_x5F_s4">
</g>
<g id="L2_x5F_s3">
</g>
<g id="L2_x5F_s2">
</g>
<g id="L2_x5F_s1">
	<g>
		<path id="L2_x5F_l3_x5F_s1" fill="#F4750C" d="M20.9,16.5c0,0,8-1.7,6.6-5.5S22,8.4,17.6,4.2S11.6-1.6,6.7,2S5.9,6.3,2.1,8.8
			c-4.2,2.7-1.5,5.4,2.3,5c3.7-0.4,6.4-1.8,8.6,1.2S20.9,16.5,20.9,16.5z"/>
		<path id="L2_x5F_l2_x5F_s1" fill="#F78406" d="M11.7,2.9c1.4,0.3,2.9,1.7,5.1,3.8c2.2,2.2,4.4,3,6.1,3.7c0.9,0.4,1.7,0.7,2.4,1.1
			c-1.1,0.6-2.6,1.1-3.9,1.4l0,0l0,0c0,0-2.5,0.7-4.7,0.2c-1.3-0.3-1.9-0.8-2.2-1.2c-0.9-1.3-2-2.1-3.2-2.3c-1.2-0.3-2.6,0-4,0.2
			c-0.7,0.1-1.5,0.3-2.3,0.3c-0.3,0-0.6,0-0.8,0c1.3-1.4,1.7-3,1.8-4.5c0.2-0.2,0.6-0.6,1.4-1.2C9.2,3.1,10.5,2.6,11.7,2.9z"/>
		<path id="L2_x5F_l1_x5F_s1" fill="#FFAE43" fill-opacity="0.55" d="M11.5,4.3C12.8,4.6,14.2,6,16.3,8c1.7,1.7,3.4,2.6,4.9,3.2
			c-0.5,0.1-2.6,0.6-4.3,0.2c-1.3-0.3-1.7-0.8-1.9-1c-1-1.4-2.2-2.3-3.6-2.6c-1.3-0.3-2.7,0-4.1,0.2C6.9,8.2,6.6,8.3,6.2,8.3
			c0.2-0.6,0.3-1.1,0.4-1.8c0.2-0.2,0.5-0.4,0.8-0.6C9.3,4.6,10.5,4.1,11.5,4.3z"/>
		<rect id="L2_x5F_s1_x5F_c" x="9.9" y="4.3" fill="none" width="3.8" height="3.8"/>
	</g>
</g>
<g id="L1_x5F_s8">
</g>
<g id="L1_x5F_s7">
</g>
<g id="L1_x5F_s6">
</g>
<g id="L1_x5F_s5">
</g>
<g id="L1_x5F_s4">
</g>
<g id="L1_x5F_s3">
</g>
<g id="L1_x5F_s2">
</g>
<g id="L1_x5F_s1">
</g>
</svg>
