<?xml version="1.0" encoding="utf-8"?>
<!-- Generator: Adobe Illustrator 19.1.0, SVG Export Plug-In . SVG Version: 6.00 Build 0)  -->
<svg version="1.1" xmlns="http://www.w3.org/2000/svg" xmlns:xlink="http://www.w3.org/1999/xlink" x="0px" y="0px"
	 viewBox="0 0 70.3 41.4" enable-background="new 0 0 70.3 41.4" xml:space="preserve">
<g id="Layer_1">
</g>
<g id="L3_x5F_s8">
</g>
<g id="L3_x5F_s7">
</g>
<g id="L3_x5F_s6">
	<g>
		<path id="L3_x5F_l3_x5F_s6" fill="#F7590B" d="M4.7,37.1c0.4,0.1,0.7,0.2,1.1,0.4c2.2,1.3,10.7,6,17.3,2.8
			c7.7-3.8,11.1-16.6,13.7-16.7c2.7-0.1,10.8-11.2,18.9-5.5S76,9.4,67.4,5S30.5-2.3,23.1,2.5S3.3,5.1,1.8,15.2s-2.4,13.2-1.2,17.7
			C1.4,36.3,3.7,37,4.7,37.1z"/>
		<path id="L3_x5F_l2_x5F_s6" fill="#F4750C" fill-opacity="0.49" d="M58.2,11.7c-0.6,0.4-1.2,0.8-1.8,1.1c-1.7,0.8-3.4,0.7-4.7-0.1
			c-5.8-3.9-11.6,0.4-15,2.9c-0.5,0.4-1.2,0.9-1.6,1.1L34.9,17L34.5,17c-1.8,0.3-3.1,2.5-4.6,5.1c-1.9,3.1-4.2,7-7.4,8.5
			c-2,1-4.6,1-7.6,0.2c-2.2-0.6-4.3-1.6-5.4-2.3L9,28.2l-0.1,0c-1.2,0.1-2.1-0.5-2.2-1.4l-0.1-0.9c-0.3-1.8,0-3.7,0.9-8.2l0-0.2
			c0.1-0.4,0.1-0.8,0.2-1.1C7.8,15.7,7.9,15,8,14.2c0.3-1.8,1.4-2.7,2.4-3.2c1.6-0.9,3.8-1.5,6.1-2.1c2.8-0.7,5.8-1.5,8.3-3.1
			C27.6,4,35.7,3.7,41.7,4c6.1,0.3,12.2,1.3,16,2.5l2,0.6c1.5,0.5,1.7,2.1,0.4,3.1L58.2,11.7z"/>
		<path id="L3_x5F_l1_x5F_s6" fill="#F4750C" d="M53.4,8.5c-0.3,0.2-0.6,0.5-0.9,0.6c-0.5,0.2-1.4,0.5-2.2-0.1
			c-5.4-4.4-10-0.4-12.5,1.7c-0.2,0.2-0.5,0.4-0.7,0.6c-0.2,0.2-0.5,0.3-0.7,0.3c-1.7,0.5-2.7,2.7-3.8,5c-1.1,2.4-2.5,5.3-4.3,6.3
			c-2.6,1.4-7-1.3-8.4-2.3L19,20l-0.5,0c0,0,0,0,0,0c-0.2-1.1,0-2.6,0.3-6.3c0.1-0.9,0.2-1.8,0.3-2.8c0-0.2,0.1-0.5,0.8-1
			c1-0.6,2.5-1,4-1.3c2.2-0.5,4.4-1,6.4-2.5c0.8-0.6,4.3-1.4,11.6-0.5C46.3,6.2,50.7,7.4,53.4,8.5z"/>
		<rect id="L3_x5F_s6_x5F_c" x="30.5" y="8.5" fill="none" width="3.8" height="3.8"/>
	</g>
</g>
<g id="L3_x5F_s5">
</g>
<g id="L3_x5F_s4">
</g>
<g id="L3_x5F_s3">
</g>
<g id="L3_x5F_s2">
</g>
<g id="L3_x5F_s1">
</g>
<g id="L2_x5F_s8_1_">
</g>
<g id="L2_x5F_s7">
</g>
<g id="L2_x5F_s6">
</g>
<g id="L2_x5F_s5">
</g>
<g id="L2_x5F_s4">
</g>
<g id="L2_x5F_s3">
</g>
<g id="L2_x5F_s2">
</g>
<g id="L2_x5F_s1">
</g>
<g id="L1_x5F_s8">
</g>
<g id="L1_x5F_s7">
</g>
<g id="L1_x5F_s6">
</g>
<g id="L1_x5F_s5">
</g>
<g id="L1_x5F_s4">
</g>
<g id="L1_x5F_s3">
</g>
<g id="L1_x5F_s2">
</g>
<g id="L1_x5F_s1">
</g>
</svg>
