<?xml version="1.0" encoding="utf-8"?>
<!-- Generator: Adobe Illustrator 19.1.0, SVG Export Plug-In . SVG Version: 6.00 Build 0)  -->
<svg version="1.1" xmlns="http://www.w3.org/2000/svg" xmlns:xlink="http://www.w3.org/1999/xlink" x="0px" y="0px"
	 viewBox="0 0 46.4 31.5" enable-background="new 0 0 46.4 31.5" xml:space="preserve">
<g id="Layer_1">
</g>
<g id="L3_x5F_s8">
</g>
<g id="L3_x5F_s7">
</g>
<g id="L3_x5F_s6">
</g>
<g id="L3_x5F_s5">
</g>
<g id="L3_x5F_s4">
</g>
<g id="L3_x5F_s3">
</g>
<g id="L3_x5F_s2">
</g>
<g id="L3_x5F_s1">
	<g>
		<path id="L3_x5F_l3_x5F_s1" fill="#F7590B" d="M3.9,27.7c0,0,7.1,5.8,12.1,3.2s6.7-12.5,8.5-12.4c1.8,0.1,6.8-8.2,12.4-3.5
			S50.2,9,44.2,5.2S19.2-2,14.4,1.5S1.2,2.6,0.6,10.4s-1,10.2-0.1,13.8S3.9,27.7,3.9,27.7z"/>
		<path id="L3_x5F_l2_x5F_s1" fill="#F4750C" fill-opacity="0.49" d="M43,11.9c-0.4,0.4-0.9,0.7-1.4,0.9c-1.4,0.6-2.7,0.5-3.8-0.4
			c-5-4.2-9.3-0.4-11.9,1.9c-0.4,0.3-0.9,0.8-1.2,1l-0.3,0.2l-0.3,0c-1.4,0.2-2.3,2.3-3.4,4.7c-1.3,2.9-2.9,6.6-5.4,7.9
			c-1.6,0.8-3.6,0.7-6.1-0.3c-1.9-0.8-3.6-1.9-4.5-2.6l-0.4-0.4l-1.7,0l-0.5-2.5c-0.3-1.8-0.2-3.6,0.1-8l0-0.2
			c0-0.4,0.1-0.7,0.1-1.1c0.1-0.7,0.1-1.3,0.2-2c0.1-1.7,1-2.5,1.7-3c1.2-0.8,3-1.2,4.8-1.6c2.2-0.5,4.6-1.1,6.5-2.5
			c2.2-1.6,8.7-1.4,13.5-0.6c5,0.7,10,2.1,13.1,3.5l4.2,1.9L43,11.9z"/>
		<path id="L3_x5F_l1_x5F_s1" fill="#F4750C" d="M43.6,9.2c-0.3,0.3-0.6,0.5-1,0.7c-0.5,0.2-1.5,0.6-2.4-0.2c-5.9-5-11-0.6-13.7,1.8
			c-0.4,0.3-0.8,0.7-1.1,0.9c-2.1,0.3-3.3,2.9-4.5,5.7c-1.2,2.6-2.6,5.9-4.6,7c-2.9,1.5-7.7-1.5-9.2-2.7l-0.9-0.7l-0.6,0
			c0,0,0,0,0,0c-0.2-1.2-0.1-2.9,0.3-7c0.1-1,0.2-2,0.3-3.2c0-0.2,0.1-0.6,0.8-1.1C8,9.6,9.6,9.3,11.3,8.9c2.4-0.5,4.8-1.1,6.9-2.7
			c0.9-0.7,4.7-1.6,12.6-0.4C35.8,6.5,40.7,7.8,43.6,9.2z"/>
		<rect id="L3_x5F_s1_x5F_c" x="16.5" y="10" fill="none" width="3.8" height="3.8"/>
	</g>
</g>
<g id="L2_x5F_s8_1_">
</g>
<g id="L2_x5F_s7">
</g>
<g id="L2_x5F_s6">
</g>
<g id="L2_x5F_s5">
</g>
<g id="L2_x5F_s4">
</g>
<g id="L2_x5F_s3">
</g>
<g id="L2_x5F_s2">
</g>
<g id="L2_x5F_s1">
</g>
<g id="L1_x5F_s8">
</g>
<g id="L1_x5F_s7">
</g>
<g id="L1_x5F_s6">
</g>
<g id="L1_x5F_s5">
</g>
<g id="L1_x5F_s4">
</g>
<g id="L1_x5F_s3">
</g>
<g id="L1_x5F_s2">
</g>
<g id="L1_x5F_s1">
</g>
</svg>
