<?xml version="1.0" encoding="utf-8"?>
<!-- Generator: Adobe Illustrator 19.1.0, SVG Export Plug-In . SVG Version: 6.00 Build 0)  -->
<svg version="1.1" xmlns="http://www.w3.org/2000/svg" xmlns:xlink="http://www.w3.org/1999/xlink" x="0px" y="0px"
	 viewBox="0 0 70.3 41.4" enable-background="new 0 0 70.3 41.4" xml:space="preserve">
<g id="Layer_1">
</g>
<g id="L3_x5F_s8">
</g>
<g id="L3_x5F_s7">
	<g>
		<path id="L3_x5F_l3_x5F_s7" fill="#F7590B" d="M23.1,40.3c7.7-3.8,11.1-16.6,13.7-16.7c2.7-0.1,10.8-11.2,18.9-5.5S76,9.4,67.4,5
			S30.5-2.3,23.1,2.5S3.3,5.1,1.8,15.2s-2.4,13.2-1.2,17.7c0.9,3.4,3.1,4.1,4.2,4.2c0.4,0.1,0.7,0.2,1.1,0.4
			C8,38.8,16.5,43.5,23.1,40.3"/>
		<path id="L3_x5F_l2_x5F_s7" fill="#F4750C" fill-opacity="0.49" d="M62.3,10.3c-0.6,0.5-1.3,0.8-1.9,1.1c-1.9,0.8-3.7,0.8-5,0
			c-6.2-3.8-12.4,0.7-16.1,3.3c-0.6,0.4-1.3,0.9-1.7,1.2l-0.4,0.2l-0.4,0.1c-1.9,0.4-3.4,2.6-5.1,5.3c-2.1,3.2-4.6,7.2-8.1,8.8
			c-2.2,1-4.9,1.2-8.2,0.4c-2.4-0.6-4.6-1.5-5.7-2.2l-0.5-0.3l-0.1,0c-1.2,0.1-2.2-0.5-2.4-1.4l-0.1-0.9c-0.2-1.8,0.1-3.7,1.1-8.3
			l0-0.2C7.8,17,7.9,16.6,8,16.2c0.2-0.7,0.3-1.4,0.5-2.1c0.4-1.8,1.6-2.7,2.6-3.3c1.7-1,4.1-1.6,6.6-2.2c3.1-0.8,6.2-1.6,8.9-3.3
			C29.7,3.3,38.3,2.8,44.7,3c6.6,0.2,13,1,17.1,2.1l2.1,0.6c1.6,0.4,1.7,2.1,0.3,3.2L62.3,10.3z"/>
		<path id="L3_x5F_l1_x5F_s7" fill="#F4750C" d="M57.2,7.2c-0.3,0.3-0.6,0.5-1,0.7c-0.5,0.2-1.5,0.5-2.3-0.1
			c-5.7-4.3-10.7-0.2-13.5,2c-0.2,0.2-0.5,0.4-0.7,0.6c-0.2,0.2-0.5,0.3-0.8,0.4c-1.9,0.6-3,2.8-4.2,5.2c-1.2,2.4-2.8,5.4-4.8,6.4
			c-2.9,1.4-7.5-1.1-8.9-2.2L20,19.7l-0.6,0c0,0,0,0,0,0c-0.2-1.1,0-2.7,0.5-6.3c0.1-0.9,0.2-1.8,0.4-2.9c0-0.2,0.1-0.5,0.8-1
			c1.1-0.7,2.7-1,4.4-1.5c2.3-0.6,4.8-1.1,6.9-2.6c0.9-0.6,4.6-1.6,12.4-0.8C49.6,5.1,54.3,6.1,57.2,7.2z"/>
		<rect id="L3_x5F_s7_x5F_c" x="30.5" y="10.5" fill="none" width="3.8" height="3.8"/>
	</g>
</g>
<g id="L3_x5F_s6">
</g>
<g id="L3_x5F_s5">
</g>
<g id="L3_x5F_s4">
</g>
<g id="L3_x5F_s3">
</g>
<g id="L3_x5F_s2">
</g>
<g id="L3_x5F_s1">
</g>
<g id="L2_x5F_s8_1_">
</g>
<g id="L2_x5F_s7">
</g>
<g id="L2_x5F_s6">
</g>
<g id="L2_x5F_s5">
</g>
<g id="L2_x5F_s4">
</g>
<g id="L2_x5F_s3">
</g>
<g id="L2_x5F_s2">
</g>
<g id="L2_x5F_s1">
</g>
<g id="L1_x5F_s8">
</g>
<g id="L1_x5F_s7">
</g>
<g id="L1_x5F_s6">
</g>
<g id="L1_x5F_s5">
</g>
<g id="L1_x5F_s4">
</g>
<g id="L1_x5F_s3">
</g>
<g id="L1_x5F_s2">
</g>
<g id="L1_x5F_s1">
</g>
</svg>
