<?xml version="1.0" encoding="utf-8"?>
<!-- Generator: Adobe Illustrator 19.1.0, SVG Export Plug-In . SVG Version: 6.00 Build 0)  -->
<svg version="1.1" xmlns="http://www.w3.org/2000/svg" xmlns:xlink="http://www.w3.org/1999/xlink" x="0px" y="0px"
	 viewBox="0 0 70.3 41.4" enable-background="new 0 0 70.3 41.4" xml:space="preserve">
<g id="Layer_1">
</g>
<g id="L3_x5F_s8">
</g>
<g id="L3_x5F_s7">
</g>
<g id="L3_x5F_s6">
</g>
<g id="L3_x5F_s5">
	<g>
		<path id="L3_x5F_l3_x5F_s5" fill="#F7590B" d="M4.7,37.1c0.4,0.1,0.7,0.2,1.1,0.4c2.2,1.3,10.7,6,17.3,2.8
			c7.7-3.8,11.1-16.6,13.7-16.7c2.7-0.1,10.8-11.2,18.9-5.5S76,9.4,67.4,5S30.5-2.3,23.1,2.5S3.3,5.1,1.8,15.2s-2.4,13.2-1.2,17.7
			C1.4,36.3,3.7,37,4.7,37.1z"/>
		<path id="L3_x5F_l2_x5F_s5" fill="#F4750C" fill-opacity="0.49" d="M57.7,10.5c-0.5,0.4-1,0.7-1.5,1c-1.5,0.7-2.9,0.6-4.1-0.3
			c-5.3-4.1-10-0.2-12.9,2.2c-0.4,0.4-1,0.8-1.3,1l-0.3,0.2l-0.3,0c-1.5,0.2-2.6,2.4-3.8,4.8c-1.5,3-3.3,6.7-6,8.1
			c-1.7,0.9-3.9,0.8-6.6-0.2c-2-0.7-3.8-1.8-4.8-2.5l-0.5-0.4l-0.1,0c-1,0-1.9-0.6-2-1.5l-0.2-0.9c-0.3-1.8-0.1-3.6,0.4-8l0-0.2
			c0-0.4,0.1-0.7,0.1-1.1c0.1-0.7,0.2-1.3,0.2-2.1c0.2-1.8,1.1-2.6,1.9-3.1c1.4-0.9,3.2-1.3,5.2-1.8c2.4-0.6,4.9-1.2,7-2.7
			c2.4-1.7,9.4-1.6,14.6-1C48.3,2.8,53.6,4,57,5.4l1.8,0.7c1.3,0.5,1.5,2.2,0.5,3.1L57.7,10.5z"/>
		<path id="L3_x5F_l1_x5F_s5" fill="#F4750C" d="M53.4,8.5c-0.2,0.2-0.5,0.4-0.8,0.6c-0.4,0.2-1.3,0.5-2-0.2
			c-5-4.5-9.2-0.7-11.4,1.3c-0.2,0.2-0.4,0.4-0.6,0.5c-0.2,0.2-0.4,0.3-0.7,0.3c-1.6,0.5-2.4,2.6-3.3,4.9c-0.9,2.3-2.1,5.2-3.8,6.1
			c-2.4,1.3-6.5-1.5-7.7-2.6l-0.8-0.7l-0.5,0c0,0,0,0,0,0c-0.2-1.1-0.1-2.6,0.1-6.2c0-0.8,0.1-1.8,0.2-2.8c0-0.2,0-0.5,0.7-1
			c0.9-0.6,2.2-0.9,3.7-1.2c2-0.4,4-0.9,5.8-2.2c0.7-0.6,3.9-1.3,10.6-0.1C46.8,6.1,50.9,7.3,53.4,8.5z"/>
		<rect id="L3_x5F_s5_x5F_c" x="30.5" y="10.5" fill="none" width="3.8" height="3.8"/>
	</g>
</g>
<g id="L3_x5F_s4">
</g>
<g id="L3_x5F_s3">
</g>
<g id="L3_x5F_s2">
</g>
<g id="L3_x5F_s1">
</g>
<g id="L2_x5F_s8_1_">
</g>
<g id="L2_x5F_s7">
</g>
<g id="L2_x5F_s6">
</g>
<g id="L2_x5F_s5">
</g>
<g id="L2_x5F_s4">
</g>
<g id="L2_x5F_s3">
</g>
<g id="L2_x5F_s2">
</g>
<g id="L2_x5F_s1">
</g>
<g id="L1_x5F_s8">
</g>
<g id="L1_x5F_s7">
</g>
<g id="L1_x5F_s6">
</g>
<g id="L1_x5F_s5">
</g>
<g id="L1_x5F_s4">
</g>
<g id="L1_x5F_s3">
</g>
<g id="L1_x5F_s2">
</g>
<g id="L1_x5F_s1">
</g>
</svg>
