<?xml version="1.0" encoding="utf-8"?>
<!-- Generator: Adobe Illustrator 19.1.0, SVG Export Plug-In . SVG Version: 6.00 Build 0)  -->
<svg version="1.1" xmlns="http://www.w3.org/2000/svg" xmlns:xlink="http://www.w3.org/1999/xlink" x="0px" y="0px"
	 viewBox="0 0 70.3 41.4" enable-background="new 0 0 70.3 41.4" xml:space="preserve">
<g id="Layer_1">
</g>
<g id="L3_x5F_s8">
	<g>
		<path id="L3_x5F_l3_x5F_s8" fill="#F7590B" d="M23.1,40.3c7.7-3.8,11.1-16.6,13.7-16.7c2.7-0.1,10.8-11.2,18.9-5.5S76,9.4,67.4,5
			S30.5-2.3,23.1,2.5S3.3,5.1,1.8,15.2s-2.4,13.2-1.2,17.7c0.9,3.4,3.1,4.1,4.2,4.2c0.4,0.1,0.7,0.2,1.1,0.4
			C8,38.8,16.5,43.5,23.1,40.3"/>
		<path id="L3_x5F_l2_x5F_s8" fill="#F4750C" fill-opacity="0.49" d="M62.1,10.4c-0.6,0.5-1.3,0.9-2,1.2c-2,0.9-3.9,0.9-5.3,0.1
			c-6.4-3.7-13,0.9-16.9,3.6c-0.6,0.4-1.3,0.9-1.8,1.2l-0.4,0.2l-0.4,0.1c-2,0.4-3.6,2.7-5.4,5.4c-2.2,3.2-5,7.3-8.6,9
			c-2.3,1.1-5.2,1.2-8.5,0.5c-2.5-0.5-4.7-1.5-5.9-2.1l-0.6-0.3l-0.1,0c-1.3,0.2-2.3-0.4-2.5-1.3l-0.1-0.9c-0.2-1.8,0.2-3.7,1.3-8.4
			l0-0.2C4.9,18,5,17.6,5.1,17.2c0.2-0.7,0.3-1.4,0.5-2.2c0.4-1.8,1.7-2.8,2.8-3.4c1.8-1,4.3-1.7,6.9-2.4c3.2-0.9,6.5-1.7,9.4-3.5
			c3.3-2,12.3-2.6,19-2.5c6.9,0.1,13.6,0.8,17.8,1.8l2.2,0.6c1.6,0.4,1.8,2.1,0.3,3.2L62.1,10.4z"/>
		<path id="L3_x5F_l1_x5F_s8" fill="#F4750C" d="M57.2,7.2c-0.4,0.3-0.8,0.6-1.3,0.8c-0.7,0.3-1.9,0.7-2.9,0.1
			c-6.7-3.9-13.4,0.7-17,3.2c-0.3,0.2-0.7,0.5-1,0.7c-0.3,0.2-0.7,0.3-1,0.4c-2.4,0.7-4,3.2-5.7,5.7c-1.7,2.6-3.9,5.8-6.5,7
			c-3.7,1.7-9.3-0.5-10.9-1.5l-1.1-0.6l-0.7,0.1c0,0,0,0,0,0c-0.2-1.1,0.3-2.7,1.1-6.6c0.2-0.9,0.5-1.9,0.7-3
			c0.1-0.2,0.1-0.6,1.1-1.1c1.4-0.8,3.4-1.3,5.6-1.9c3-0.8,6-1.6,8.8-3.3c1.2-0.7,5.9-2,15.5-1.8C47.9,5.7,53.7,6.3,57.2,7.2z"/>
		<rect id="L3_x5F_s8_x5F_c" x="30.5" y="8.5" fill="none" width="3.8" height="3.8"/>
	</g>
</g>
<g id="L3_x5F_s7">
</g>
<g id="L3_x5F_s6">
</g>
<g id="L3_x5F_s5">
</g>
<g id="L3_x5F_s4">
</g>
<g id="L3_x5F_s3">
</g>
<g id="L3_x5F_s2">
</g>
<g id="L3_x5F_s1">
</g>
<g id="L2_x5F_s8_1_">
</g>
<g id="L2_x5F_s7">
</g>
<g id="L2_x5F_s6">
</g>
<g id="L2_x5F_s5">
</g>
<g id="L2_x5F_s4">
</g>
<g id="L2_x5F_s3">
</g>
<g id="L2_x5F_s2">
</g>
<g id="L2_x5F_s1">
</g>
<g id="L1_x5F_s8">
</g>
<g id="L1_x5F_s7">
</g>
<g id="L1_x5F_s6">
</g>
<g id="L1_x5F_s5">
</g>
<g id="L1_x5F_s4">
</g>
<g id="L1_x5F_s3">
</g>
<g id="L1_x5F_s2">
</g>
<g id="L1_x5F_s1">
</g>
</svg>
