<?xml version="1.0" encoding="utf-8"?>
<!-- Generator: Adobe Illustrator 19.1.0, SVG Export Plug-In . SVG Version: 6.00 Build 0)  -->
<svg version="1.1" xmlns="http://www.w3.org/2000/svg" xmlns:xlink="http://www.w3.org/1999/xlink" x="0px" y="0px"
	 viewBox="0 0 61.1 34.8" enable-background="new 0 0 61.1 34.8" xml:space="preserve">
<g id="Layer_1">
</g>
<g id="L3_x5F_s8">
</g>
<g id="L3_x5F_s7">
</g>
<g id="L3_x5F_s6">
</g>
<g id="L3_x5F_s5">
</g>
<g id="L3_x5F_s4">
	<g>
		<path id="L3_x5F_l3_x5F_s4" fill="#F7590B" d="M4,31.4c0.3,0,0.6,0.1,0.9,0.3c1.8,1.1,9.2,4.9,15,2.1c6.7-3.2,9.8-14,12.1-14.1
			c2.3-0.1,9.5-9.4,16.4-4.8S66,7.4,58.6,3.8S26.7-1.9,20.3,2.3S3.1,4.7,1.7,13.1s-2.2,11.1-1.3,14.8C1.2,30.7,3.1,31.3,4,31.4z"/>
		<path id="L3_x5F_l2_x5F_s4" fill="#F4750C" fill-opacity="0.49" d="M49.7,12.2c-0.5,0.4-1,0.7-1.5,1c-1.5,0.7-2.9,0.6-4.1-0.3
			c-5.3-4.1-10-0.2-12.9,2.2c-0.4,0.4-1,0.8-1.3,1l-0.3,0.2l-0.3,0c-1.5,0.2-2.6,2.4-3.8,4.8c-1.5,3-3.3,6.7-6,8.1
			c-1.7,0.9-3.9,0.8-6.6-0.2c-2-0.7-3.8-1.8-4.8-2.5l-0.5-0.4l-0.1,0c-1,0-1.9-0.6-2-1.5l-0.2-0.9c-0.3-1.8-0.1-3.6,0.4-8l0-0.2
			c0-0.4,0.1-0.7,0.1-1.1c0.1-0.7,0.2-1.3,0.2-2.1c0.2-1.8,1.1-2.6,1.9-3.1c1.4-0.9,3.2-1.3,5.2-1.8c2.4-0.6,4.9-1.2,7-2.7
			c2.4-1.7,9.4-1.6,14.6-1C40.3,4.5,45.6,5.6,49,7l1.8,0.7c1.3,0.5,1.5,2.2,0.5,3.1L49.7,12.2z"/>
		<path id="L3_x5F_l1_x5F_s4" fill="#F4750C" d="M45.4,10.2c-0.2,0.2-0.5,0.4-0.8,0.6c-0.4,0.2-1.3,0.5-2-0.2
			c-5-4.5-9.2-0.7-11.4,1.3c-0.2,0.2-0.4,0.4-0.6,0.5c-0.2,0.2-0.4,0.3-0.7,0.3c-1.6,0.5-2.4,2.6-3.3,4.9c-0.9,2.3-2.1,5.2-3.8,6.1
			c-2.4,1.3-6.5-1.5-7.7-2.6l-0.8-0.7l-0.5,0c0,0,0,0,0,0c-0.2-1.1-0.1-2.6,0.1-6.2c0-0.8,0.1-1.8,0.2-2.8c0-0.2,0-0.5,0.7-1
			c0.9-0.6,2.2-0.9,3.7-1.2c2-0.4,4-0.9,5.8-2.2c0.7-0.6,3.9-1.3,10.6-0.1C38.8,7.7,42.9,8.9,45.4,10.2z"/>
		<rect id="L3_x5F_s4_x5F_c" x="22.5" y="12.1" fill="none" width="3.8" height="3.8"/>
	</g>
</g>
<g id="L3_x5F_s3">
</g>
<g id="L3_x5F_s2">
</g>
<g id="L3_x5F_s1">
</g>
<g id="L2_x5F_s8_1_">
</g>
<g id="L2_x5F_s7">
</g>
<g id="L2_x5F_s6">
</g>
<g id="L2_x5F_s5">
</g>
<g id="L2_x5F_s4">
</g>
<g id="L2_x5F_s3">
</g>
<g id="L2_x5F_s2">
</g>
<g id="L2_x5F_s1">
</g>
<g id="L1_x5F_s8">
</g>
<g id="L1_x5F_s7">
</g>
<g id="L1_x5F_s6">
</g>
<g id="L1_x5F_s5">
</g>
<g id="L1_x5F_s4">
</g>
<g id="L1_x5F_s3">
</g>
<g id="L1_x5F_s2">
</g>
<g id="L1_x5F_s1">
</g>
</svg>
