<?xml version="1.0" encoding="utf-8"?>
<!-- Generator: Adobe Illustrator 19.1.0, SVG Export Plug-In . SVG Version: 6.00 Build 0)  -->
<svg version="1.1" id="Layer_1" xmlns="http://www.w3.org/2000/svg" xmlns:xlink="http://www.w3.org/1999/xlink" x="0px" y="0px"
	 viewBox="0 0 59.5 13.2" enable-background="new 0 0 59.5 13.2" xml:space="preserve">
<path fill="#FFAE43" fill-opacity="0.55" d="M18.3,0c5.2,0.3,11.3,2.7,20.7,6.4c7.6,3,14.6,4.4,20.6,5.4c-2,0.4-9.6,1.7-16.6,1.3
	c-5-0.2-7.1-1.2-7.8-1.6c-4.7-2.7-9.7-4.1-15.3-4.4C14.6,6.9,9.5,7.7,4,8.5C2.7,8.7,1.4,8.9,0,9.1C0.4,8,0.6,6.7,0.6,5.5
	C1.3,5.1,2.2,4.6,3.4,4C9.8,1,14.1-0.2,18.3,0z"/>
</svg>
